<?xml version="1.0" encoding="UTF-8" standalone="no"?>
<!DOCTYPE svg PUBLIC "-//W3C//DTD SVG 20010904//EN" "http://www.w3.org/TR/2001/REC-SVG-20010904/DTD/svg10.dtd">
<svg version="1.0" xmlns="http://www.w3.org/2000/svg" width="500.000000pt" height="500.000000pt" viewBox="0 0 500.000000 500.000000"  preserveAspectRatio="xMidYMid meet">

<g transform="translate(0.000000,500.000000) scale(0.100000,-0.100000)" fill="white" stroke="none">
<path d="M3159 3748 c-80 -62 -139 -204 -186 -448 -19 -102 -26 -169 -27 -275 -1 -193 17 -251 129 -404 16 -22 25 -47 25 -72 l0 -39 -199 0 -198 0 -7 31 c-3 17 -6 101 -6 185 l0 154 43 53 c73 90 79 125 75 429 -4 229 -7 270 -24 318 -16 48 -23 55 -48 58 -16 2 -34 -2 -40 -8 -7 -7 -13 -90 -16 -243 -7 -307 -24 -312 -28 -8 -2 192 -5 228 -19 243 -19 22 -52 23 -79 4 -18 -13 -19 -30 -22 -233 -1 -120 -5 -225 -8 -233 -16 -44 -24 36 -24 235 0 232 -2 245 -45 245 -64 0 -80 -84 -80 -420 0 -300 2 -309 85 -402 l42 -48 -8 -180 -7 -180 -202 0 -202 0 -7 175 c-8 195 -8 192 60 265 106 114 140 275 95 453 -29 112 -68 184 -137 255 -60 59 -64 62 -112 62 -59 0 -114 -35 -160 -102 -158 -232 -156 -497 7 -681 l51 -58 0 -153 c0 -85 -3 -168 -6 -185 l-6 -31 -229 0 c-131 0 -239 -4 -255 -10 l-27 -11 6 -117 c16 -349 246 -705 557 -862 57 -29 55 -26 36 -45 -13 -13 -16 -38 -16 -116 0 -55 5 -109 10 -120 10 -18 27 -19 545 -19 l534 0 15 22 c23 32 22 194 0 226 -18 27 -20 24 26 47 54 27 149 93 213 148 210 180 369 526 355 772 -4 81 -13 85 -195 85 l-141 0 -7 118 c-4 64 -5 343 -3 620 6 556 9 532 -57 532 -22 0 -47 -11 -76 -32z m96 -621 l0 -617 -63 0 c-58 0 -63 2 -57 20 12 37 -7 91 -48 138 -100 116 -128 278 -91 535 32 220 88 401 149 481 26 34 81 68 100 62 7 -2 10 -217 10 -619z m-785 344 c0 -240 2 -251 46 -251 51 0 54 14 54 255 0 184 3 224 14 228 33 13 37 -17 30 -235 -6 -194 -5 -215 10 -231 24 -24 62 -21 80 5 13 19 16 60 16 245 0 126 4 223 9 223 27 0 35 -72 39 -348 3 -281 3 -282 -21 -335 -13 -28 -41 -72 -62 -97 l-38 -45 7 -187 7 -188 -68 0 -68 0 3 190 4 190 -46 52 c-71 81 -76 106 -76 372 0 222 10 338 31 378 23 43 29 -2 29 -221z m-457 206 c60 -26 133 -127 173 -239 24 -70 36 -192 24 -258 -16 -89 -40 -138 -110 -220 l-62 -74 4 -188 3 -188 -68 0 -67 0 6 168 c4 93 4 180 0 195 -3 14 -29 52 -57 84 -106 120 -141 255 -105 414 30 136 108 268 179 303 39 19 40 19 80 3z m1523 -1294 c-2 -10 -7 -45 -11 -78 -35 -305 -279 -619 -579 -744 -146 -61 -230 -75 -441 -75 -195 -1 -250 6 -375 46 -336 107 -594 405 -655 755 -8 47 -15 92 -15 99 0 12 167 14 1041 14 986 0 1040 -1 1035 -17z m-586 -1038 l0 -35 -450 0 -450 0 0 35 0 35 450 0 450 0 0 -35z"/>
<path d="M3190 2981 c0 -226 -2 -260 -16 -272 -14 -11 -19 -10 -36 11 -35 43 -66 113 -78 178 -8 38 -18 62 -26 62 -21 0 -22 -11 -8 -77 14 -68 54 -155 86 -190 21 -23 62 -30 85 -15 27 17 33 70 33 297 0 128 -3 240 -6 249 -3 9 -12 16 -20 16 -12 0 -14 -44 -14 -259z"/>
<path d="M1794 3148 c-11 -18 59 -74 111 -88 67 -19 145 -9 202 26 30 19 49 38 51 52 4 29 0 28 -50 -8 -50 -37 -110 -54 -157 -45 -42 8 -102 38 -120 59 -16 19 -27 20 -37 4z"/>
<path d="M1717 2256 c-71 -26 -107 -76 -107 -149 0 -24 6 -52 14 -62 13 -18 14 -17 21 16 18 83 86 154 161 166 44 7 43 20 -3 32 -45 13 -39 13 -86 -3z"/>
<path d="M3193 2259 c-37 -11 -44 -29 -11 -29 71 0 157 -83 173 -168 6 -34 8 -36 21 -17 22 30 18 107 -9 145 -39 59 -112 87 -174 69z"/>
<path d="M3181 2125 c-127 -89 -266 -150 -441 -197 -94 -24 -334 -35 -436 -19 -167 26 -356 99 -502 195 -40 27 -75 46 -77 44 -3 -3 79 -90 182 -195 175 -177 194 -193 273 -231 122 -60 191 -75 319 -70 81 3 123 10 179 30 125 45 176 83 357 264 178 179 221 224 214 224 -2 0 -33 -20 -68 -45z"/>
</g>
</svg>