<svg width="23" height="23" viewBox="0 0 23 23" fill="none" xmlns="http://www.w3.org/2000/svg">
<path d="M17.4663 7.8335C17.4663 6.37481 16.8868 4.97586 15.8554 3.94441C14.8239 2.91296 13.425 2.3335 11.9663 2.3335C10.5076 2.3335 9.10867 2.91296 8.07722 3.94441C7.04577 4.97586 6.46631 6.37481 6.46631 7.8335C6.46631 14.2502 3.71631 16.0835 3.71631 16.0835H20.2163C20.2163 16.0835 17.4663 14.2502 17.4663 7.8335Z" stroke="#EEECE8" stroke-width="2" stroke-linecap="round" stroke-linejoin="round"/>
<path d="M13.552 19.75C13.3909 20.0278 13.1596 20.2584 12.8812 20.4187C12.6029 20.579 12.2874 20.6634 11.9662 20.6634C11.645 20.6634 11.3295 20.579 11.0512 20.4187C10.7728 20.2584 10.5415 20.0278 10.3804 19.75" stroke="#EEECE8" stroke-width="2" stroke-linecap="round" stroke-linejoin="round"/>
</svg>
