<svg width="390" height="220" viewBox="0 0 390 220" fill="none" xmlns="http://www.w3.org/2000/svg">
<g clip-path="url(#clip0_52_2022)">
<rect width="390" height="220" fill="#FF32AB"/>
<g filter="url(#filter0_d_52_2022)">
<path d="M26.3729 151.773L72.1151 161.26C79.0487 162.698 86.2408 162.255 92.9457 159.977C185.804 128.433 172.47 -6.87287 75.2413 -19.6852L60.3828 -21.6432C58.5824 -21.8804 56.7621 -21.9276 54.9518 -21.7839L11.69 -18.3499C-11.2534 -16.5288 -31.4165 -2.43851 -41.014 18.4805C-66.5973 74.2426 -33.6997 139.315 26.3729 151.773Z" fill="#D167B8"/>
</g>
<g filter="url(#filter1_d_52_2022)">
<path d="M142.649 109.973L149.594 129.629C167.593 180.578 233.925 193.059 269.211 152.137C299.535 116.97 283.334 62.2224 238.756 49.2205L210.894 41.094C197.698 37.2453 183.467 39.6505 172.269 47.6218L159.489 56.7197C142.623 68.7257 135.753 90.4528 142.649 109.973Z" fill="#FF72B1"/>
</g>
<g filter="url(#filter2_d_52_2022)">
<path d="M-24.6506 43.7326L-7.37141 48.1569C2.56841 50.7019 9.24167 38.1978 1.59454 31.3569L-6.67801 23.9565C-18.9394 12.9877 -36.5743 29.0132 -26.8254 42.2652C-26.2916 42.9907 -25.5232 43.5092 -24.6506 43.7326Z" fill="#FD8A61"/>
</g>
<g filter="url(#filter3_d_52_2022)">
<path d="M-42.2236 137.919L-42.8596 142.771C-48.7965 188.059 1.18921 219.402 39.3699 194.331C70.2171 174.076 67.1519 127.907 33.8978 111.908L19.0474 104.763C-7.33796 92.0683 -38.4178 108.887 -42.2236 137.919Z" fill="#FFB1AC"/>
</g>
<g filter="url(#filter4_d_52_2022)">
<path d="M58.4853 -44.7635L71.8695 -27.7961C86.0587 -9.80811 114.206 -12.9895 124.022 -33.6907C130.786 -47.9552 124.076 -64.9662 109.395 -70.7712L86.0091 -80.0181C63.9372 -89.9325 43.174 -63.4992 58.4853 -44.7635Z" fill="#FF3824"/>
</g>
<g filter="url(#filter5_d_52_2022)">
<path d="M26.4408 82.6354L25.2462 75.5543C24.8543 73.2312 24.8122 70.8625 25.1214 68.527L27.8423 47.9763C34.1631 0.23597 -15.006 -35.4706 -58.4472 -14.6871C-80.5602 -4.10766 -92.7288 20.0795 -88.0439 44.1411L-74.7946 112.188C-73.3294 119.713 -69.4867 126.57 -63.8322 131.747C-25.7007 166.664 35.0416 133.618 26.4408 82.6354Z" fill="#FF8E4D"/>
</g>
<g filter="url(#filter6_d_52_2022)">
<path d="M251.953 112.995L241.643 56.3647C241.346 54.7347 241.256 53.0737 241.376 51.4212C243.71 19.0795 204.184 1.67257 181.9 25.2287L179.79 27.4595L132.819 84.854C103.693 120.443 118.675 174.148 162.018 189.521C211.444 207.052 261.346 164.59 251.953 112.995Z" fill="#C93167"/>
</g>
<g filter="url(#filter7_d_52_2022)">
<path d="M2.98093 54.3863L4.36304 51.3837C4.77723 50.4839 4.89887 49.4769 4.71085 48.5044L-24 -100L-8.05033 49.5282C-8.01704 49.8402 -8.03955 50.1557 -8.1168 50.4599C-9.8871 57.4305 -0.0263004 60.9192 2.98093 54.3863Z" fill="#FF628F"/>
</g>
<g filter="url(#filter8_d_52_2022)">
<path d="M-112 -119L162.782 358.642C165.385 363.166 170.239 365.92 175.457 365.832C193.923 365.521 204.641 344.808 194.228 329.555L-112 -119Z" fill="#E5C219"/>
</g>
<g filter="url(#filter9_d_52_2022)">
<path d="M304.052 344.214L402.178 343.788C455.057 343.559 500.2 305.536 509.415 253.466C517.431 208.171 486.779 165.093 441.358 157.821L416.5 153.841C409.225 152.676 401.813 154.855 396.325 159.771L395.08 160.888C392.127 163.533 388.316 165.018 384.352 165.069L321.618 165.869C224.246 167.11 196.289 299.603 284.858 340.08C290.881 342.832 297.43 344.243 304.052 344.214Z" fill="#FFB593"/>
</g>
<g filter="url(#filter10_d_52_2022)">
<path d="M-25.8999 -26.607L-12.2861 -2.61832C1.25979 21.2508 34.1346 24.9954 52.7014 4.78404C76.1645 -20.7571 62.8121 -62.1293 28.8447 -69.1354L10.0766 -73.0065C-1.05326 -75.3021 -12.1883 -69.112 -16.1134 -58.4473L-16.334 -57.8481C-17.3059 -55.2073 -18.9817 -52.8827 -21.1799 -51.1259C-28.5652 -45.2236 -30.5661 -34.8293 -25.8999 -26.607Z" fill="#FF5632"/>
</g>
<path d="M594.5 381.252L615.146 387.248C690.029 408.994 765.68 355.444 770.06 277.59C770.68 266.559 769.078 255.516 765.348 245.116L747.383 195.025C736.407 164.424 711.997 140.552 681.159 130.261L600.852 103.463C578.976 96.1632 555.034 98.4435 534.93 109.742C429.168 169.178 441.74 325.274 555.652 367.017L594.5 381.252Z" fill="#EE4920"/>
<g filter="url(#filter12_d_52_2022)">
<path d="M-60 213.378L-19.1352 252.051C11.0408 280.609 59.2057 277.17 85.0186 244.615C114.376 207.59 105.111 153.277 65.14 128.078L38.81 111.478C20.266 99.7873 -2.55791 97.0719 -23.3273 104.086L-55.4686 114.94C-64.9374 118.137 -73.2272 124.106 -79.2633 132.071C-97.2576 155.817 -92.3108 189.7 -68.2785 207.311L-60 213.378Z" fill="#D83C2D"/>
</g>
<g filter="url(#filter13_d_52_2022)">
<path d="M354.526 90.3857L363.756 80.75C377.16 66.756 376.725 44.5572 362.782 31.0996L340.889 9.96904C308.06 -21.7174 253.188 -0.138298 250.738 45.4225C247.732 101.295 315.821 130.793 354.526 90.3857Z" fill="#EBB94F"/>
</g>
<g filter="url(#filter14_d_52_2022)">
<path d="M-10.9634 257.158L-8.08517 263.047C18.6752 317.807 98.3623 312.598 117.766 254.82C121.363 244.109 121.267 232.501 117.493 221.85L98.0058 166.864C80.1813 116.569 20.4431 95.6139 -24.8947 123.753C-59.8735 145.463 -66.7174 193.518 -39.1901 224.13L-15.3859 250.602C-13.6148 252.571 -12.1264 254.778 -10.9634 257.158Z" fill="#FF427C"/>
</g>
<g filter="url(#filter15_d_52_2022)">
<path d="M212.968 220.215L217.656 232.3C233.191 272.351 287.094 278.926 311.801 243.783C333.626 212.739 307.502 170.698 270.003 176.517L256.935 178.545C255.001 178.845 253.025 178.726 251.141 178.196C225.961 171.114 203.509 195.828 212.968 220.215Z" fill="#FF5D4C"/>
</g>
<g filter="url(#filter16_d_52_2022)">
<path d="M259.611 367.207L273.189 381.068C276.858 384.813 282.082 386.663 287.294 386.093C366.11 377.472 373.589 264.636 295.958 248.52C285.934 246.439 275.752 251.293 271.056 260.391L249.752 301.668C238.559 323.354 242.533 349.774 259.611 367.207Z" fill="#FF4678"/>
</g>
<g filter="url(#filter17_d_52_2022)">
<path d="M129.295 24.3741L131.057 23.7017C145.355 18.2451 154.556 4.24986 153.897 -11.0398L153.08 -30.0097C152.714 -38.4951 148.447 -46.3353 141.521 -51.2505C107.119 -75.6624 61.0908 -43.4474 72.2473 -2.76612L76.4585 12.5895C76.8189 13.9038 77.2833 15.1874 77.8472 16.4281L79.7873 20.6966C87.4224 37.4952 109.432 41.5929 122.601 28.6676C124.513 26.791 126.792 25.3293 129.295 24.3741Z" fill="#FF44B6"/>
</g>
<g filter="url(#filter18_d_52_2022)">
<path d="M230 630.443L458.936 268.829C464.054 260.746 461.062 250.011 452.502 245.738C444.986 241.987 435.849 244.901 431.893 252.312L230 630.443Z" fill="#FFA8A7"/>
</g>
<g filter="url(#filter19_d_52_2022)">
<path d="M329.451 323.876L343.487 301.175C356.298 280.456 357.877 254.696 347.693 232.567L336.649 208.571C309.87 150.384 234.646 134.34 186.456 176.536C134.016 222.453 139.923 305.751 198.318 343.809L209.003 350.773C249.582 377.22 303.978 365.073 329.451 323.876Z" fill="#C0521F"/>
</g>
<g filter="url(#filter20_d_52_2022)">
<path d="M-65.6083 13.3365L-61.2955 12.4868C-29.1333 6.15048 -31.2461 -40.5346 -63.8492 -43.9398C-69.5912 -44.5395 -74.8377 -40.6471 -75.9288 -34.9779L-82.0723 -3.05531C-83.9499 6.70102 -75.3563 15.2569 -65.6083 13.3365Z" fill="#FF89BB"/>
</g>
<g filter="url(#filter21_d_52_2022)">
<path d="M-23.7439 196.565L-16.1881 206.843C14.7607 248.945 75.5449 254.539 113.658 218.793C158.145 177.069 149.75 104.241 96.9359 73.7332L85.7322 67.2615C59.4731 52.0932 26.5326 54.9592 3.28771 74.4346L-10.431 85.9287C-43.3621 113.52 -49.1897 161.949 -23.7439 196.565Z" fill="#FF8F9E"/>
</g>
<g filter="url(#filter22_d_52_2022)">
<path d="M400.291 0.4702L400.148 0.152618C400.211 0.259043 400.258 0.365282 400.291 0.4702L438.035 84.0081C444.54 98.4042 437.663 115.313 422.957 121.082C344.467 151.874 281.616 51.1017 343.796 -5.84063L365.05 -25.3041C368.428 -28.3971 373.71 -28.017 376.61 -24.4722L397.991 1.66383C398.948 2.83273 400.692 1.74961 400.291 0.4702Z" fill="#FF9D78"/>
</g>
<g filter="url(#filter23_d_52_2022)">
<path d="M363.017 215.937L353.605 170.833C351.885 162.589 351.788 154.089 353.321 145.808L361.594 101.096C369.452 58.6322 340.376 18.1674 297.624 12.0692C248.335 5.03871 203.589 41.696 200.781 91.4043L197 158.349L200.825 230.446C203.376 278.524 245.42 314.821 293.356 310.326C340.085 305.945 372.605 261.881 363.017 215.937Z" fill="#F6CB26"/>
</g>
</g>
<defs>
<filter id="filter0_d_52_2022" x="-97.7681" y="-69.8651" width="301.618" height="279.952" filterUnits="userSpaceOnUse" color-interpolation-filters="sRGB">
<feFlood flood-opacity="0" result="BackgroundImageFix"/>
<feColorMatrix in="SourceAlpha" type="matrix" values="0 0 0 0 0 0 0 0 0 0 0 0 0 0 0 0 0 0 127 0" result="hardAlpha"/>
<feOffset/>
<feGaussianBlur stdDeviation="24"/>
<feColorMatrix type="matrix" values="0 0 0 0 0.564706 0 0 0 0 0.156863 0 0 0 0 0.117647 0 0 0 0.115385 0"/>
<feBlend mode="multiply" in2="BackgroundImageFix" result="effect1_dropShadow_52_2022"/>
<feBlend mode="normal" in="SourceGraphic" in2="effect1_dropShadow_52_2022" result="shape"/>
</filter>
<filter id="filter1_d_52_2022" x="91.9956" y="-8.70294" width="240.736" height="233.274" filterUnits="userSpaceOnUse" color-interpolation-filters="sRGB">
<feFlood flood-opacity="0" result="BackgroundImageFix"/>
<feColorMatrix in="SourceAlpha" type="matrix" values="0 0 0 0 0 0 0 0 0 0 0 0 0 0 0 0 0 0 127 0" result="hardAlpha"/>
<feOffset/>
<feGaussianBlur stdDeviation="24"/>
<feColorMatrix type="matrix" values="0 0 0 0 0.564706 0 0 0 0 0.156863 0 0 0 0 0.117647 0 0 0 0.115385 0"/>
<feBlend mode="multiply" in2="BackgroundImageFix" result="effect1_dropShadow_52_2022"/>
<feBlend mode="normal" in="SourceGraphic" in2="effect1_dropShadow_52_2022" result="shape"/>
</filter>
<filter id="filter2_d_52_2022" x="-77.6511" y="-27.6908" width="130.56" height="124.184" filterUnits="userSpaceOnUse" color-interpolation-filters="sRGB">
<feFlood flood-opacity="0" result="BackgroundImageFix"/>
<feColorMatrix in="SourceAlpha" type="matrix" values="0 0 0 0 0 0 0 0 0 0 0 0 0 0 0 0 0 0 127 0" result="hardAlpha"/>
<feOffset/>
<feGaussianBlur stdDeviation="24"/>
<feColorMatrix type="matrix" values="0 0 0 0 0.564706 0 0 0 0 0.156863 0 0 0 0 0.117647 0 0 0 0.115385 0"/>
<feBlend mode="multiply" in2="BackgroundImageFix" result="effect1_dropShadow_52_2022"/>
<feBlend mode="normal" in="SourceGraphic" in2="effect1_dropShadow_52_2022" result="shape"/>
</filter>
<filter id="filter3_d_52_2022" x="-91.343" y="52.4769" width="200.121" height="198.747" filterUnits="userSpaceOnUse" color-interpolation-filters="sRGB">
<feFlood flood-opacity="0" result="BackgroundImageFix"/>
<feColorMatrix in="SourceAlpha" type="matrix" values="0 0 0 0 0 0 0 0 0 0 0 0 0 0 0 0 0 0 127 0" result="hardAlpha"/>
<feOffset/>
<feGaussianBlur stdDeviation="24"/>
<feColorMatrix type="matrix" values="0 0 0 0 0.564706 0 0 0 0 0.156863 0 0 0 0 0.117647 0 0 0 0.115385 0"/>
<feBlend mode="multiply" in2="BackgroundImageFix" result="effect1_dropShadow_52_2022"/>
<feBlend mode="normal" in="SourceGraphic" in2="effect1_dropShadow_52_2022" result="shape"/>
</filter>
<filter id="filter4_d_52_2022" x="5.21422" y="-130.175" width="169.449" height="162.139" filterUnits="userSpaceOnUse" color-interpolation-filters="sRGB">
<feFlood flood-opacity="0" result="BackgroundImageFix"/>
<feColorMatrix in="SourceAlpha" type="matrix" values="0 0 0 0 0 0 0 0 0 0 0 0 0 0 0 0 0 0 127 0" result="hardAlpha"/>
<feOffset/>
<feGaussianBlur stdDeviation="24"/>
<feColorMatrix type="matrix" values="0 0 0 0 0.564706 0 0 0 0 0.156863 0 0 0 0 0.117647 0 0 0 0.115385 0"/>
<feBlend mode="multiply" in2="BackgroundImageFix" result="effect1_dropShadow_52_2022"/>
<feBlend mode="normal" in="SourceGraphic" in2="effect1_dropShadow_52_2022" result="shape"/>
</filter>
<filter id="filter5_d_52_2022" x="-137.04" y="-68.7341" width="213.434" height="262.933" filterUnits="userSpaceOnUse" color-interpolation-filters="sRGB">
<feFlood flood-opacity="0" result="BackgroundImageFix"/>
<feColorMatrix in="SourceAlpha" type="matrix" values="0 0 0 0 0 0 0 0 0 0 0 0 0 0 0 0 0 0 127 0" result="hardAlpha"/>
<feOffset/>
<feGaussianBlur stdDeviation="24"/>
<feColorMatrix type="matrix" values="0 0 0 0 0.564706 0 0 0 0 0.156863 0 0 0 0 0.117647 0 0 0 0.115385 0"/>
<feBlend mode="multiply" in2="BackgroundImageFix" result="effect1_dropShadow_52_2022"/>
<feBlend mode="normal" in="SourceGraphic" in2="effect1_dropShadow_52_2022" result="shape"/>
</filter>
<filter id="filter6_d_52_2022" x="69.7708" y="-33.6542" width="231.33" height="275.193" filterUnits="userSpaceOnUse" color-interpolation-filters="sRGB">
<feFlood flood-opacity="0" result="BackgroundImageFix"/>
<feColorMatrix in="SourceAlpha" type="matrix" values="0 0 0 0 0 0 0 0 0 0 0 0 0 0 0 0 0 0 127 0" result="hardAlpha"/>
<feOffset/>
<feGaussianBlur stdDeviation="24"/>
<feColorMatrix type="matrix" values="0 0 0 0 0.564706 0 0 0 0 0.156863 0 0 0 0 0.117647 0 0 0 0.115385 0"/>
<feBlend mode="multiply" in2="BackgroundImageFix" result="effect1_dropShadow_52_2022"/>
<feBlend mode="normal" in="SourceGraphic" in2="effect1_dropShadow_52_2022" result="shape"/>
</filter>
<filter id="filter7_d_52_2022" x="-72" y="-148" width="124.797" height="253.853" filterUnits="userSpaceOnUse" color-interpolation-filters="sRGB">
<feFlood flood-opacity="0" result="BackgroundImageFix"/>
<feColorMatrix in="SourceAlpha" type="matrix" values="0 0 0 0 0 0 0 0 0 0 0 0 0 0 0 0 0 0 127 0" result="hardAlpha"/>
<feOffset/>
<feGaussianBlur stdDeviation="24"/>
<feColorMatrix type="matrix" values="0 0 0 0 0.564706 0 0 0 0 0.156863 0 0 0 0 0.117647 0 0 0 0.115385 0"/>
<feBlend mode="multiply" in2="BackgroundImageFix" result="effect1_dropShadow_52_2022"/>
<feBlend mode="normal" in="SourceGraphic" in2="effect1_dropShadow_52_2022" result="shape"/>
</filter>
<filter id="filter8_d_52_2022" x="-160" y="-167" width="406.305" height="580.834" filterUnits="userSpaceOnUse" color-interpolation-filters="sRGB">
<feFlood flood-opacity="0" result="BackgroundImageFix"/>
<feColorMatrix in="SourceAlpha" type="matrix" values="0 0 0 0 0 0 0 0 0 0 0 0 0 0 0 0 0 0 127 0" result="hardAlpha"/>
<feOffset/>
<feGaussianBlur stdDeviation="24"/>
<feColorMatrix type="matrix" values="0 0 0 0 0.564706 0 0 0 0 0.156863 0 0 0 0 0.117647 0 0 0 0.115385 0"/>
<feBlend mode="multiply" in2="BackgroundImageFix" result="effect1_dropShadow_52_2022"/>
<feBlend mode="normal" in="SourceGraphic" in2="effect1_dropShadow_52_2022" result="shape"/>
</filter>
<filter id="filter9_d_52_2022" x="183.428" y="105.534" width="375.261" height="286.681" filterUnits="userSpaceOnUse" color-interpolation-filters="sRGB">
<feFlood flood-opacity="0" result="BackgroundImageFix"/>
<feColorMatrix in="SourceAlpha" type="matrix" values="0 0 0 0 0 0 0 0 0 0 0 0 0 0 0 0 0 0 127 0" result="hardAlpha"/>
<feOffset/>
<feGaussianBlur stdDeviation="24"/>
<feColorMatrix type="matrix" values="0 0 0 0 0.564706 0 0 0 0 0.156863 0 0 0 0 0.117647 0 0 0 0.115385 0"/>
<feBlend mode="multiply" in2="BackgroundImageFix" result="effect1_dropShadow_52_2022"/>
<feBlend mode="normal" in="SourceGraphic" in2="effect1_dropShadow_52_2022" result="shape"/>
</filter>
<filter id="filter10_d_52_2022" x="-76.4072" y="-121.483" width="188.912" height="187.359" filterUnits="userSpaceOnUse" color-interpolation-filters="sRGB">
<feFlood flood-opacity="0" result="BackgroundImageFix"/>
<feColorMatrix in="SourceAlpha" type="matrix" values="0 0 0 0 0 0 0 0 0 0 0 0 0 0 0 0 0 0 127 0" result="hardAlpha"/>
<feOffset/>
<feGaussianBlur stdDeviation="24"/>
<feColorMatrix type="matrix" values="0 0 0 0 0.564706 0 0 0 0 0.156863 0 0 0 0 0.117647 0 0 0 0.115385 0"/>
<feBlend mode="multiply" in2="BackgroundImageFix" result="effect1_dropShadow_52_2022"/>
<feBlend mode="normal" in="SourceGraphic" in2="effect1_dropShadow_52_2022" result="shape"/>
</filter>
<filter id="filter12_d_52_2022" x="-138.094" y="52.2574" width="288.311" height="267.174" filterUnits="userSpaceOnUse" color-interpolation-filters="sRGB">
<feFlood flood-opacity="0" result="BackgroundImageFix"/>
<feColorMatrix in="SourceAlpha" type="matrix" values="0 0 0 0 0 0 0 0 0 0 0 0 0 0 0 0 0 0 127 0" result="hardAlpha"/>
<feOffset/>
<feGaussianBlur stdDeviation="24"/>
<feColorMatrix type="matrix" values="0 0 0 0 0.564706 0 0 0 0 0.156863 0 0 0 0 0.117647 0 0 0 0.115385 0"/>
<feBlend mode="multiply" in2="BackgroundImageFix" result="effect1_dropShadow_52_2022"/>
<feBlend mode="normal" in="SourceGraphic" in2="effect1_dropShadow_52_2022" result="shape"/>
</filter>
<filter id="filter13_d_52_2022" x="202.641" y="-53.0524" width="218.89" height="210.181" filterUnits="userSpaceOnUse" color-interpolation-filters="sRGB">
<feFlood flood-opacity="0" result="BackgroundImageFix"/>
<feColorMatrix in="SourceAlpha" type="matrix" values="0 0 0 0 0 0 0 0 0 0 0 0 0 0 0 0 0 0 127 0" result="hardAlpha"/>
<feOffset/>
<feGaussianBlur stdDeviation="24"/>
<feColorMatrix type="matrix" values="0 0 0 0 0.564706 0 0 0 0 0.156863 0 0 0 0 0.117647 0 0 0 0.115385 0"/>
<feBlend mode="multiply" in2="BackgroundImageFix" result="effect1_dropShadow_52_2022"/>
<feBlend mode="normal" in="SourceGraphic" in2="effect1_dropShadow_52_2022" result="shape"/>
</filter>
<filter id="filter14_d_52_2022" x="-104.149" y="63.1462" width="272.544" height="286.139" filterUnits="userSpaceOnUse" color-interpolation-filters="sRGB">
<feFlood flood-opacity="0" result="BackgroundImageFix"/>
<feColorMatrix in="SourceAlpha" type="matrix" values="0 0 0 0 0 0 0 0 0 0 0 0 0 0 0 0 0 0 127 0" result="hardAlpha"/>
<feOffset/>
<feGaussianBlur stdDeviation="24"/>
<feColorMatrix type="matrix" values="0 0 0 0 0.564706 0 0 0 0 0.156863 0 0 0 0 0.117647 0 0 0 0.115385 0"/>
<feBlend mode="multiply" in2="BackgroundImageFix" result="effect1_dropShadow_52_2022"/>
<feBlend mode="normal" in="SourceGraphic" in2="effect1_dropShadow_52_2022" result="shape"/>
</filter>
<filter id="filter15_d_52_2022" x="162.759" y="127.972" width="204.992" height="186.672" filterUnits="userSpaceOnUse" color-interpolation-filters="sRGB">
<feFlood flood-opacity="0" result="BackgroundImageFix"/>
<feColorMatrix in="SourceAlpha" type="matrix" values="0 0 0 0 0 0 0 0 0 0 0 0 0 0 0 0 0 0 127 0" result="hardAlpha"/>
<feOffset/>
<feGaussianBlur stdDeviation="24"/>
<feColorMatrix type="matrix" values="0 0 0 0 0.564706 0 0 0 0 0.156863 0 0 0 0 0.117647 0 0 0 0.115385 0"/>
<feBlend mode="multiply" in2="BackgroundImageFix" result="effect1_dropShadow_52_2022"/>
<feBlend mode="normal" in="SourceGraphic" in2="effect1_dropShadow_52_2022" result="shape"/>
</filter>
<filter id="filter16_d_52_2022" x="195.449" y="200.042" width="203" height="234.152" filterUnits="userSpaceOnUse" color-interpolation-filters="sRGB">
<feFlood flood-opacity="0" result="BackgroundImageFix"/>
<feColorMatrix in="SourceAlpha" type="matrix" values="0 0 0 0 0 0 0 0 0 0 0 0 0 0 0 0 0 0 127 0" result="hardAlpha"/>
<feOffset/>
<feGaussianBlur stdDeviation="24"/>
<feColorMatrix type="matrix" values="0 0 0 0 0.564706 0 0 0 0 0.156863 0 0 0 0 0.117647 0 0 0 0.115385 0"/>
<feBlend mode="multiply" in2="BackgroundImageFix" result="effect1_dropShadow_52_2022"/>
<feBlend mode="normal" in="SourceGraphic" in2="effect1_dropShadow_52_2022" result="shape"/>
</filter>
<filter id="filter17_d_52_2022" x="22.5446" y="-107.708" width="179.385" height="191.991" filterUnits="userSpaceOnUse" color-interpolation-filters="sRGB">
<feFlood flood-opacity="0" result="BackgroundImageFix"/>
<feColorMatrix in="SourceAlpha" type="matrix" values="0 0 0 0 0 0 0 0 0 0 0 0 0 0 0 0 0 0 127 0" result="hardAlpha"/>
<feOffset/>
<feGaussianBlur stdDeviation="24"/>
<feColorMatrix type="matrix" values="0 0 0 0 0.564706 0 0 0 0 0.156863 0 0 0 0 0.117647 0 0 0 0.115385 0"/>
<feBlend mode="multiply" in2="BackgroundImageFix" result="effect1_dropShadow_52_2022"/>
<feBlend mode="normal" in="SourceGraphic" in2="effect1_dropShadow_52_2022" result="shape"/>
</filter>
<filter id="filter18_d_52_2022" x="182" y="196.103" width="327.445" height="482.34" filterUnits="userSpaceOnUse" color-interpolation-filters="sRGB">
<feFlood flood-opacity="0" result="BackgroundImageFix"/>
<feColorMatrix in="SourceAlpha" type="matrix" values="0 0 0 0 0 0 0 0 0 0 0 0 0 0 0 0 0 0 127 0" result="hardAlpha"/>
<feOffset/>
<feGaussianBlur stdDeviation="24"/>
<feColorMatrix type="matrix" values="0 0 0 0 0.564706 0 0 0 0 0.156863 0 0 0 0 0.117647 0 0 0 0.115385 0"/>
<feBlend mode="multiply" in2="BackgroundImageFix" result="effect1_dropShadow_52_2022"/>
<feBlend mode="normal" in="SourceGraphic" in2="effect1_dropShadow_52_2022" result="shape"/>
</filter>
<filter id="filter19_d_52_2022" x="102.557" y="104.778" width="299.792" height="307.998" filterUnits="userSpaceOnUse" color-interpolation-filters="sRGB">
<feFlood flood-opacity="0" result="BackgroundImageFix"/>
<feColorMatrix in="SourceAlpha" type="matrix" values="0 0 0 0 0 0 0 0 0 0 0 0 0 0 0 0 0 0 127 0" result="hardAlpha"/>
<feOffset/>
<feGaussianBlur stdDeviation="24"/>
<feColorMatrix type="matrix" values="0 0 0 0 0.564706 0 0 0 0 0.156863 0 0 0 0 0.117647 0 0 0 0.115385 0"/>
<feBlend mode="multiply" in2="BackgroundImageFix" result="effect1_dropShadow_52_2022"/>
<feBlend mode="normal" in="SourceGraphic" in2="effect1_dropShadow_52_2022" result="shape"/>
</filter>
<filter id="filter20_d_52_2022" x="-130.332" y="-92.0007" width="140.078" height="153.609" filterUnits="userSpaceOnUse" color-interpolation-filters="sRGB">
<feFlood flood-opacity="0" result="BackgroundImageFix"/>
<feColorMatrix in="SourceAlpha" type="matrix" values="0 0 0 0 0 0 0 0 0 0 0 0 0 0 0 0 0 0 127 0" result="hardAlpha"/>
<feOffset/>
<feGaussianBlur stdDeviation="24"/>
<feColorMatrix type="matrix" values="0 0 0 0 0.564706 0 0 0 0 0.156863 0 0 0 0 0.117647 0 0 0 0.115385 0"/>
<feBlend mode="multiply" in2="BackgroundImageFix" result="effect1_dropShadow_52_2022"/>
<feBlend mode="normal" in="SourceGraphic" in2="effect1_dropShadow_52_2022" result="shape"/>
</filter>
<filter id="filter21_d_52_2022" x="-87.5648" y="9.58446" width="277.955" height="280.796" filterUnits="userSpaceOnUse" color-interpolation-filters="sRGB">
<feFlood flood-opacity="0" result="BackgroundImageFix"/>
<feColorMatrix in="SourceAlpha" type="matrix" values="0 0 0 0 0 0 0 0 0 0 0 0 0 0 0 0 0 0 127 0" result="hardAlpha"/>
<feOffset/>
<feGaussianBlur stdDeviation="24"/>
<feColorMatrix type="matrix" values="0 0 0 0 0.564706 0 0 0 0 0.156863 0 0 0 0 0.117647 0 0 0 0.115385 0"/>
<feBlend mode="multiply" in2="BackgroundImageFix" result="effect1_dropShadow_52_2022"/>
<feBlend mode="normal" in="SourceGraphic" in2="effect1_dropShadow_52_2022" result="shape"/>
</filter>
<filter id="filter22_d_52_2022" x="270.567" y="-75.398" width="217.927" height="250.205" filterUnits="userSpaceOnUse" color-interpolation-filters="sRGB">
<feFlood flood-opacity="0" result="BackgroundImageFix"/>
<feColorMatrix in="SourceAlpha" type="matrix" values="0 0 0 0 0 0 0 0 0 0 0 0 0 0 0 0 0 0 127 0" result="hardAlpha"/>
<feOffset/>
<feGaussianBlur stdDeviation="24"/>
<feColorMatrix type="matrix" values="0 0 0 0 0.564706 0 0 0 0 0.156863 0 0 0 0 0.117647 0 0 0 0.115385 0"/>
<feBlend mode="multiply" in2="BackgroundImageFix" result="effect1_dropShadow_52_2022"/>
<feBlend mode="normal" in="SourceGraphic" in2="effect1_dropShadow_52_2022" result="shape"/>
</filter>
<filter id="filter23_d_52_2022" x="149" y="-36.796" width="263.698" height="395.499" filterUnits="userSpaceOnUse" color-interpolation-filters="sRGB">
<feFlood flood-opacity="0" result="BackgroundImageFix"/>
<feColorMatrix in="SourceAlpha" type="matrix" values="0 0 0 0 0 0 0 0 0 0 0 0 0 0 0 0 0 0 127 0" result="hardAlpha"/>
<feOffset/>
<feGaussianBlur stdDeviation="24"/>
<feColorMatrix type="matrix" values="0 0 0 0 0.564706 0 0 0 0 0.156863 0 0 0 0 0.117647 0 0 0 0.115385 0"/>
<feBlend mode="multiply" in2="BackgroundImageFix" result="effect1_dropShadow_52_2022"/>
<feBlend mode="normal" in="SourceGraphic" in2="effect1_dropShadow_52_2022" result="shape"/>
</filter>
<clipPath id="clip0_52_2022">
<rect width="390" height="220" fill="white"/>
</clipPath>
</defs>
</svg>
