<svg width="130" height="130" viewBox="0 0 130 130" fill="none" xmlns="http://www.w3.org/2000/svg">
<rect x="10" y="15" width="110" height="110" rx="30" fill="url(#paint0_linear_84_11508)"/>
<path d="M33.9993 53.625C20.3091 44.368 31.592 29.9263 40.625 44.6745L33.9993 53.625Z" fill="#EEECE8"/>
<path d="M33.9993 53.625C20.3091 44.368 31.592 29.9263 40.625 44.6745" stroke="#2A2121" stroke-width="2.4" stroke-linecap="round" stroke-linejoin="round"/>
<path d="M84.175 43.4843C90.9045 32.6713 106.854 34.0896 96.9323 48.75L84.175 43.4843Z" fill="#EEECE8"/>
<path d="M84.175 43.4843C90.9045 32.6713 106.854 34.0896 96.9323 48.75" stroke="#2A2121" stroke-width="2.4" stroke-linecap="round" stroke-linejoin="round"/>
<path d="M52.3747 51.675C52.1176 50.0825 52.9246 48.5433 53.3 47.125L52.3747 51.675Z" fill="#EEECE8"/>
<path d="M52.3747 51.675C52.1176 50.0825 52.9246 48.5433 53.3 47.125" stroke="#2A2121" stroke-width="2.4" stroke-linecap="round" stroke-linejoin="round"/>
<path d="M63.05 53.625C63.183 50.9002 63.3581 48.1686 63.7 45.5L63.05 53.625Z" fill="#EEECE8"/>
<path d="M63.05 53.625C63.183 50.9002 63.3581 48.1686 63.7 45.5" stroke="#2A2121" stroke-width="2.4" stroke-linecap="round" stroke-linejoin="round"/>
<path d="M74.1 51.675C74.1 50.2648 74.1 48.8569 74.1 47.45V51.675Z" fill="#EEECE8"/>
<path d="M74.1 51.675C74.1 50.2648 74.1 48.8569 74.1 47.45" stroke="#2A2121" stroke-width="2.4" stroke-linecap="round" stroke-linejoin="round"/>
<path d="M49.725 72.475C52.1537 71.7974 54.7254 71.5075 57.2 71.175L49.725 72.475Z" fill="#EEECE8"/>
<path d="M49.725 72.475C52.1537 71.7974 54.7254 71.5075 57.2 71.175" stroke="#2A2121" stroke-width="2.4" stroke-linecap="round" stroke-linejoin="round"/>
<path d="M73.125 71.176C75.6909 70.6629 78.0913 70.8275 80.6 71.176H73.125Z" fill="#EEECE8"/>
<path d="M73.125 71.176C75.6909 70.6629 78.0913 70.8275 80.6 71.176" stroke="#2A2121" stroke-width="2.4" stroke-linecap="round" stroke-linejoin="round"/>
<path d="M61.1 83.2016C71.9875 77.5912 70.6348 85.9957 62.2307 84.6836L61.1 83.2016Z" fill="#EEECE8"/>
<path d="M61.1 83.2016C71.9875 77.5912 70.6348 85.9957 62.2307 84.6836" stroke="#2A2121" stroke-width="2.4" stroke-linecap="round" stroke-linejoin="round"/>
<path d="M65.325 86.775C64.6926 93.6994 59.1412 94.3069 54.275 92.2135L65.325 86.775Z" fill="#EEECE8"/>
<path d="M65.325 86.775C64.6926 93.6994 59.1412 94.3069 54.275 92.2135" stroke="#2A2121" stroke-width="2.4" stroke-linecap="round" stroke-linejoin="round"/>
<path d="M65.0133 86.775C64.6308 95.9722 72.6638 94.5769 77.025 90.1573L65.0133 86.775Z" fill="#EEECE8"/>
<path d="M65.0133 86.775C64.6308 95.9722 72.6638 94.5769 77.025 90.1573" stroke="#2A2121" stroke-width="2.4" stroke-linecap="round" stroke-linejoin="round"/>
<path d="M36.075 78.975C31.306 77.4241 26.2638 77.3386 21.45 76.7L36.075 78.975Z" fill="#EEECE8"/>
<path d="M36.075 78.975C31.306 77.4241 26.2638 77.3386 21.45 76.7" stroke="#2A2121" stroke-width="2.4" stroke-linecap="round" stroke-linejoin="round"/>
<path d="M37.7 86.775C32.4569 88.0126 27.2165 88.9694 22.1 90.675L37.7 86.775Z" fill="#EEECE8"/>
<path d="M37.7 86.775C32.4569 88.0126 27.2165 88.9694 22.1 90.675" stroke="#2A2121" stroke-width="2.4" stroke-linecap="round" stroke-linejoin="round"/>
<path d="M95.225 75.725C98.9628 74.737 102.599 73.3265 106.275 72.15L95.225 75.725Z" fill="#EEECE8"/>
<path d="M95.225 75.725C98.9628 74.737 102.599 73.3265 106.275 72.15" stroke="#2A2121" stroke-width="2.4" stroke-linecap="round" stroke-linejoin="round"/>
<path d="M96.525 84.826C100.379 84.336 104.695 84.5088 108.225 84.6398L96.525 84.826Z" fill="#EEECE8"/>
<path d="M96.525 84.826C100.379 84.336 104.695 84.5088 108.225 84.6398" stroke="#2A2121" stroke-width="2.4" stroke-linecap="round" stroke-linejoin="round"/>
<defs>
<linearGradient id="paint0_linear_84_11508" x1="65" y1="15" x2="65" y2="125" gradientUnits="userSpaceOnUse">
<stop stop-color="#E9A431"/>
<stop offset="1" stop-color="#D83C2D"/>
</linearGradient>
</defs>
</svg>
