<svg width="330" height="169" viewBox="0 0 330 169" fill="none" xmlns="http://www.w3.org/2000/svg">
<g clip-path="url(#clip0_84_8629)">
<rect width="330" height="169" fill="#FF819F"/>
<g filter="url(#filter0_d_84_8629)">
<path d="M221.174 218.225C223.541 214.125 229.459 214.125 231.826 218.225L257.98 263.525C260.347 267.625 257.388 272.75 252.653 272.75H200.347C195.612 272.75 192.653 267.625 195.02 263.525L221.174 218.225Z" fill="#FF336F"/>
</g>
<g filter="url(#filter1_d_84_8629)">
<path d="M248.969 254.054C248.983 254.03 249.017 254.03 249.031 254.054L268.022 286.946C268.035 286.97 268.018 287 267.991 287H230.009C229.982 287 229.965 286.97 229.978 286.946L248.969 254.054Z" fill="#FF6EB9"/>
</g>
<g filter="url(#filter2_d_84_8629)">
<path d="M449.212 -104.095C449.441 -105.43 451.358 -105.43 451.588 -104.095L484.37 86.3987C484.535 87.3551 485.704 87.7351 486.399 87.0581L624.89 -47.7861C625.86 -48.7311 627.411 -47.6043 626.812 -46.3892L541.364 126.992C540.935 127.863 541.658 128.857 542.618 128.718L733.919 101.03C735.259 100.836 735.852 102.659 734.653 103.29L563.613 193.333C562.754 193.785 562.754 195.015 563.613 195.467L734.653 285.51C735.852 286.141 735.259 287.964 733.919 287.77L542.618 260.082C541.658 259.943 540.935 260.937 541.364 261.808L626.812 435.189C627.411 436.404 625.86 437.531 624.89 436.586L486.399 301.742C485.704 301.065 484.535 301.445 484.37 302.401L451.588 492.895C451.358 494.23 449.441 494.23 449.212 492.895L416.43 302.401C416.265 301.445 415.096 301.065 414.401 301.742L275.91 436.586C274.94 437.531 273.389 436.404 273.988 435.189L359.436 261.808C359.865 260.937 359.142 259.943 358.182 260.082L166.881 287.77C165.541 287.964 164.948 286.141 166.147 285.51L337.187 195.467C338.046 195.015 338.046 193.785 337.187 193.333L166.147 103.29C164.948 102.659 165.541 100.836 166.881 101.03L358.182 128.718C359.142 128.857 359.865 127.863 359.436 126.992L273.988 -46.3892C273.389 -47.6043 274.94 -48.7311 275.91 -47.7861L414.401 87.0581C415.096 87.7351 416.265 87.3551 416.43 86.3987L449.212 -104.095Z" fill="#FFA3AF"/>
</g>
<g filter="url(#filter3_d_84_8629)">
<circle cx="29.5" cy="108.5" r="94.5" fill="#B3CFCD"/>
</g>
<g filter="url(#filter4_d_84_8629)">
<circle cx="213" cy="309" r="83" fill="#C3C383"/>
</g>
<g filter="url(#filter5_d_84_8629)">
<rect x="113" y="-43" width="144" height="144" rx="3.52084" fill="#D33B5A"/>
</g>
<g filter="url(#filter6_d_84_8629)">
<circle cx="27" cy="259" r="42" fill="#C17D94"/>
</g>
<g filter="url(#filter7_d_84_8629)">
<path d="M183.108 169.626C183.575 168.177 185.625 168.177 186.092 169.626L195.902 200.027C196.267 201.159 197.71 201.488 198.53 200.627L220.558 177.492C221.608 176.39 223.455 177.279 223.248 178.787L218.895 210.434C218.732 211.612 219.89 212.535 221.002 212.115L250.887 200.829C252.311 200.291 253.589 201.894 252.748 203.163L235.095 229.787C234.438 230.778 235.08 232.111 236.265 232.216L268.087 235.014C269.603 235.147 270.059 237.146 268.751 237.924L241.294 254.252C240.272 254.86 240.272 256.34 241.294 256.948L268.751 273.276C270.059 274.054 269.603 276.053 268.087 276.186L236.265 278.984C235.08 279.089 234.438 280.422 235.095 281.413L252.748 308.037C253.589 309.306 252.311 310.909 250.887 310.371L221.002 299.085C219.89 298.665 218.732 299.588 218.895 300.766L223.248 332.413C223.455 333.921 221.608 334.81 220.558 333.708L198.53 310.573C197.71 309.712 196.267 310.041 195.902 311.173L186.092 341.574C185.625 343.023 183.575 343.023 183.108 341.574L173.298 311.173C172.933 310.041 171.49 309.712 170.67 310.573L148.642 333.708C147.592 334.81 145.745 333.921 145.952 332.413L150.305 300.766C150.468 299.588 149.31 298.665 148.198 299.085L118.313 310.371C116.889 310.909 115.611 309.306 116.452 308.037L134.105 281.413C134.762 280.422 134.12 279.089 132.935 278.984L101.113 276.186C99.5967 276.053 99.1406 274.054 100.449 273.276L127.906 256.948C128.928 256.34 128.928 254.86 127.906 254.252L100.449 237.924C99.1406 237.146 99.5967 235.147 101.113 235.014L132.935 232.216C134.12 232.111 134.762 230.778 134.105 229.787L116.452 203.163C115.611 201.894 116.889 200.291 118.313 200.829L148.198 212.115C149.31 212.535 150.468 211.612 150.305 210.434L145.952 178.787C145.745 177.279 147.592 176.39 148.642 177.492L170.67 200.627C171.49 201.488 172.933 201.159 173.298 200.027L183.108 169.626Z" fill="#FFAE7C"/>
</g>
<g filter="url(#filter8_d_84_8629)">
<path d="M236.863 65.2372C236.924 65.1318 237.076 65.1318 237.137 65.2372L275.834 132.263C275.895 132.368 275.819 132.5 275.697 132.5H198.303C198.181 132.5 198.105 132.368 198.166 132.263L236.863 65.2372Z" fill="#FFC51F"/>
</g>
<g filter="url(#filter9_d_84_8629)">
<rect x="174" y="-94" width="168" height="168" rx="0.208475" fill="#D83C2D"/>
</g>
<g filter="url(#filter10_d_84_8629)">
<path d="M26.2 223L26.3409 322.883C26.3409 322.893 26.3521 322.898 26.3597 322.892L104.54 260.726L26.5354 323.113C26.5278 323.119 26.5306 323.131 26.54 323.133L123.888 345.497L26.4773 323.408C26.4679 323.406 26.4601 323.415 26.4643 323.424L69.6751 413.477L26.2104 323.546C26.2062 323.538 26.1938 323.538 26.1896 323.546L-17.2752 413.477L25.9357 323.424C25.9399 323.415 25.9321 323.406 25.9227 323.408L-71.4878 345.497L25.86 323.133C25.8694 323.131 25.8722 323.119 25.8646 323.113L-52.1395 260.726L26.0403 322.892C26.0479 322.898 26.0591 322.893 26.0591 322.883L26.2 223Z" fill="#FEA8A3"/>
</g>
<g filter="url(#filter11_d_84_8629)">
<circle cx="88.5" cy="37.5" r="5.5" fill="#FFA720"/>
</g>
<g filter="url(#filter12_d_84_8629)">
<rect x="-48" y="106" width="68" height="68" rx="0.0802827" fill="#FFA4B7"/>
</g>
<g filter="url(#filter13_d_84_8629)">
<rect x="63" y="1" width="100" height="100" rx="0.00087447" fill="#FF8C2D"/>
</g>
<g filter="url(#filter14_d_84_8629)">
<rect x="-95" y="-103" width="131" height="131" rx="1.64413" fill="#FF9621"/>
</g>
<g filter="url(#filter15_d_84_8629)">
<circle cx="-54.5" cy="272.5" r="66.5" fill="#FFAD7F"/>
</g>
<g filter="url(#filter16_d_84_8629)">
<path d="M15.7225 -44.1988C20.2903 -52.1104 31.7097 -52.1104 36.2775 -44.1988L82.4064 35.6988C86.9742 43.6104 81.2645 53.5 72.1289 53.5H-20.1289C-29.2645 53.5 -34.9742 43.6104 -30.4064 35.6988L15.7225 -44.1988Z" fill="#D83C2D"/>
</g>
<g filter="url(#filter17_d_84_8629)">
<path d="M270.966 -124.941C270.981 -124.967 271.019 -124.967 271.034 -124.941L296.947 -80.0593C296.962 -80.0329 296.943 -80 296.912 -80H245.088C245.057 -80 245.038 -80.0329 245.053 -80.0593L270.966 -124.941Z" fill="#D83C2D"/>
</g>
</g>
<defs>
<filter id="filter0_d_84_8629" x="98.1871" y="119.15" width="256.626" height="249.6" filterUnits="userSpaceOnUse" color-interpolation-filters="sRGB">
<feFlood flood-opacity="0" result="BackgroundImageFix"/>
<feColorMatrix in="SourceAlpha" type="matrix" values="0 0 0 0 0 0 0 0 0 0 0 0 0 0 0 0 0 0 127 0" result="hardAlpha"/>
<feOffset/>
<feGaussianBlur stdDeviation="48"/>
<feColorMatrix type="matrix" values="0 0 0 0 0.564706 0 0 0 0 0.156863 0 0 0 0 0.117647 0 0 0 0.230769 0"/>
<feBlend mode="multiply" in2="BackgroundImageFix" result="effect1_dropShadow_84_8629"/>
<feBlend mode="normal" in="SourceGraphic" in2="effect1_dropShadow_84_8629" result="shape"/>
</filter>
<filter id="filter1_d_84_8629" x="133.974" y="158.036" width="230.053" height="224.964" filterUnits="userSpaceOnUse" color-interpolation-filters="sRGB">
<feFlood flood-opacity="0" result="BackgroundImageFix"/>
<feColorMatrix in="SourceAlpha" type="matrix" values="0 0 0 0 0 0 0 0 0 0 0 0 0 0 0 0 0 0 127 0" result="hardAlpha"/>
<feOffset/>
<feGaussianBlur stdDeviation="48"/>
<feColorMatrix type="matrix" values="0 0 0 0 0.564706 0 0 0 0 0.156863 0 0 0 0 0.117647 0 0 0 0.230769 0"/>
<feBlend mode="multiply" in2="BackgroundImageFix" result="effect1_dropShadow_84_8629"/>
<feBlend mode="normal" in="SourceGraphic" in2="effect1_dropShadow_84_8629" result="shape"/>
</filter>
<filter id="filter2_d_84_8629" x="69.4991" y="-201.096" width="761.802" height="790.993" filterUnits="userSpaceOnUse" color-interpolation-filters="sRGB">
<feFlood flood-opacity="0" result="BackgroundImageFix"/>
<feColorMatrix in="SourceAlpha" type="matrix" values="0 0 0 0 0 0 0 0 0 0 0 0 0 0 0 0 0 0 127 0" result="hardAlpha"/>
<feOffset/>
<feGaussianBlur stdDeviation="48"/>
<feColorMatrix type="matrix" values="0 0 0 0 0.564706 0 0 0 0 0.156863 0 0 0 0 0.117647 0 0 0 0.230769 0"/>
<feBlend mode="multiply" in2="BackgroundImageFix" result="effect1_dropShadow_84_8629"/>
<feBlend mode="normal" in="SourceGraphic" in2="effect1_dropShadow_84_8629" result="shape"/>
</filter>
<filter id="filter3_d_84_8629" x="-161" y="-82" width="381" height="381" filterUnits="userSpaceOnUse" color-interpolation-filters="sRGB">
<feFlood flood-opacity="0" result="BackgroundImageFix"/>
<feColorMatrix in="SourceAlpha" type="matrix" values="0 0 0 0 0 0 0 0 0 0 0 0 0 0 0 0 0 0 127 0" result="hardAlpha"/>
<feOffset/>
<feGaussianBlur stdDeviation="48"/>
<feColorMatrix type="matrix" values="0 0 0 0 0.564706 0 0 0 0 0.156863 0 0 0 0 0.117647 0 0 0 0.230769 0"/>
<feBlend mode="multiply" in2="BackgroundImageFix" result="effect1_dropShadow_84_8629"/>
<feBlend mode="normal" in="SourceGraphic" in2="effect1_dropShadow_84_8629" result="shape"/>
</filter>
<filter id="filter4_d_84_8629" x="34" y="130" width="358" height="358" filterUnits="userSpaceOnUse" color-interpolation-filters="sRGB">
<feFlood flood-opacity="0" result="BackgroundImageFix"/>
<feColorMatrix in="SourceAlpha" type="matrix" values="0 0 0 0 0 0 0 0 0 0 0 0 0 0 0 0 0 0 127 0" result="hardAlpha"/>
<feOffset/>
<feGaussianBlur stdDeviation="48"/>
<feColorMatrix type="matrix" values="0 0 0 0 0.564706 0 0 0 0 0.156863 0 0 0 0 0.117647 0 0 0 0.230769 0"/>
<feBlend mode="multiply" in2="BackgroundImageFix" result="effect1_dropShadow_84_8629"/>
<feBlend mode="normal" in="SourceGraphic" in2="effect1_dropShadow_84_8629" result="shape"/>
</filter>
<filter id="filter5_d_84_8629" x="17" y="-139" width="336" height="336" filterUnits="userSpaceOnUse" color-interpolation-filters="sRGB">
<feFlood flood-opacity="0" result="BackgroundImageFix"/>
<feColorMatrix in="SourceAlpha" type="matrix" values="0 0 0 0 0 0 0 0 0 0 0 0 0 0 0 0 0 0 127 0" result="hardAlpha"/>
<feOffset/>
<feGaussianBlur stdDeviation="48"/>
<feColorMatrix type="matrix" values="0 0 0 0 0.564706 0 0 0 0 0.156863 0 0 0 0 0.117647 0 0 0 0.230769 0"/>
<feBlend mode="multiply" in2="BackgroundImageFix" result="effect1_dropShadow_84_8629"/>
<feBlend mode="normal" in="SourceGraphic" in2="effect1_dropShadow_84_8629" result="shape"/>
</filter>
<filter id="filter6_d_84_8629" x="-111" y="121" width="276" height="276" filterUnits="userSpaceOnUse" color-interpolation-filters="sRGB">
<feFlood flood-opacity="0" result="BackgroundImageFix"/>
<feColorMatrix in="SourceAlpha" type="matrix" values="0 0 0 0 0 0 0 0 0 0 0 0 0 0 0 0 0 0 127 0" result="hardAlpha"/>
<feOffset/>
<feGaussianBlur stdDeviation="48"/>
<feColorMatrix type="matrix" values="0 0 0 0 0.564706 0 0 0 0 0.156863 0 0 0 0 0.117647 0 0 0 0.230769 0"/>
<feBlend mode="multiply" in2="BackgroundImageFix" result="effect1_dropShadow_84_8629"/>
<feBlend mode="normal" in="SourceGraphic" in2="effect1_dropShadow_84_8629" result="shape"/>
</filter>
<filter id="filter7_d_84_8629" x="3.68079" y="72.539" width="361.838" height="366.122" filterUnits="userSpaceOnUse" color-interpolation-filters="sRGB">
<feFlood flood-opacity="0" result="BackgroundImageFix"/>
<feColorMatrix in="SourceAlpha" type="matrix" values="0 0 0 0 0 0 0 0 0 0 0 0 0 0 0 0 0 0 127 0" result="hardAlpha"/>
<feOffset/>
<feGaussianBlur stdDeviation="48"/>
<feColorMatrix type="matrix" values="0 0 0 0 0.564706 0 0 0 0 0.156863 0 0 0 0 0.117647 0 0 0 0.230769 0"/>
<feBlend mode="multiply" in2="BackgroundImageFix" result="effect1_dropShadow_84_8629"/>
<feBlend mode="normal" in="SourceGraphic" in2="effect1_dropShadow_84_8629" result="shape"/>
</filter>
<filter id="filter8_d_84_8629" x="102.144" y="-30.8419" width="269.711" height="259.342" filterUnits="userSpaceOnUse" color-interpolation-filters="sRGB">
<feFlood flood-opacity="0" result="BackgroundImageFix"/>
<feColorMatrix in="SourceAlpha" type="matrix" values="0 0 0 0 0 0 0 0 0 0 0 0 0 0 0 0 0 0 127 0" result="hardAlpha"/>
<feOffset/>
<feGaussianBlur stdDeviation="48"/>
<feColorMatrix type="matrix" values="0 0 0 0 0.564706 0 0 0 0 0.156863 0 0 0 0 0.117647 0 0 0 0.230769 0"/>
<feBlend mode="multiply" in2="BackgroundImageFix" result="effect1_dropShadow_84_8629"/>
<feBlend mode="normal" in="SourceGraphic" in2="effect1_dropShadow_84_8629" result="shape"/>
</filter>
<filter id="filter9_d_84_8629" x="78" y="-190" width="360" height="360" filterUnits="userSpaceOnUse" color-interpolation-filters="sRGB">
<feFlood flood-opacity="0" result="BackgroundImageFix"/>
<feColorMatrix in="SourceAlpha" type="matrix" values="0 0 0 0 0 0 0 0 0 0 0 0 0 0 0 0 0 0 127 0" result="hardAlpha"/>
<feOffset/>
<feGaussianBlur stdDeviation="48"/>
<feColorMatrix type="matrix" values="0 0 0 0 0.564706 0 0 0 0 0.156863 0 0 0 0 0.117647 0 0 0 0.230769 0"/>
<feBlend mode="multiply" in2="BackgroundImageFix" result="effect1_dropShadow_84_8629"/>
<feBlend mode="normal" in="SourceGraphic" in2="effect1_dropShadow_84_8629" result="shape"/>
</filter>
<filter id="filter10_d_84_8629" x="-167.488" y="127" width="387.376" height="382.477" filterUnits="userSpaceOnUse" color-interpolation-filters="sRGB">
<feFlood flood-opacity="0" result="BackgroundImageFix"/>
<feColorMatrix in="SourceAlpha" type="matrix" values="0 0 0 0 0 0 0 0 0 0 0 0 0 0 0 0 0 0 127 0" result="hardAlpha"/>
<feOffset/>
<feGaussianBlur stdDeviation="48"/>
<feColorMatrix type="matrix" values="0 0 0 0 0.564706 0 0 0 0 0.156863 0 0 0 0 0.117647 0 0 0 0.230769 0"/>
<feBlend mode="multiply" in2="BackgroundImageFix" result="effect1_dropShadow_84_8629"/>
<feBlend mode="normal" in="SourceGraphic" in2="effect1_dropShadow_84_8629" result="shape"/>
</filter>
<filter id="filter11_d_84_8629" x="-13" y="-64" width="203" height="203" filterUnits="userSpaceOnUse" color-interpolation-filters="sRGB">
<feFlood flood-opacity="0" result="BackgroundImageFix"/>
<feColorMatrix in="SourceAlpha" type="matrix" values="0 0 0 0 0 0 0 0 0 0 0 0 0 0 0 0 0 0 127 0" result="hardAlpha"/>
<feOffset/>
<feGaussianBlur stdDeviation="48"/>
<feColorMatrix type="matrix" values="0 0 0 0 0.564706 0 0 0 0 0.156863 0 0 0 0 0.117647 0 0 0 0.230769 0"/>
<feBlend mode="multiply" in2="BackgroundImageFix" result="effect1_dropShadow_84_8629"/>
<feBlend mode="normal" in="SourceGraphic" in2="effect1_dropShadow_84_8629" result="shape"/>
</filter>
<filter id="filter12_d_84_8629" x="-144" y="10" width="260" height="260" filterUnits="userSpaceOnUse" color-interpolation-filters="sRGB">
<feFlood flood-opacity="0" result="BackgroundImageFix"/>
<feColorMatrix in="SourceAlpha" type="matrix" values="0 0 0 0 0 0 0 0 0 0 0 0 0 0 0 0 0 0 127 0" result="hardAlpha"/>
<feOffset/>
<feGaussianBlur stdDeviation="48"/>
<feColorMatrix type="matrix" values="0 0 0 0 0.564706 0 0 0 0 0.156863 0 0 0 0 0.117647 0 0 0 0.230769 0"/>
<feBlend mode="multiply" in2="BackgroundImageFix" result="effect1_dropShadow_84_8629"/>
<feBlend mode="normal" in="SourceGraphic" in2="effect1_dropShadow_84_8629" result="shape"/>
</filter>
<filter id="filter13_d_84_8629" x="-33" y="-95" width="292" height="292" filterUnits="userSpaceOnUse" color-interpolation-filters="sRGB">
<feFlood flood-opacity="0" result="BackgroundImageFix"/>
<feColorMatrix in="SourceAlpha" type="matrix" values="0 0 0 0 0 0 0 0 0 0 0 0 0 0 0 0 0 0 127 0" result="hardAlpha"/>
<feOffset/>
<feGaussianBlur stdDeviation="48"/>
<feColorMatrix type="matrix" values="0 0 0 0 0.564706 0 0 0 0 0.156863 0 0 0 0 0.117647 0 0 0 0.230769 0"/>
<feBlend mode="multiply" in2="BackgroundImageFix" result="effect1_dropShadow_84_8629"/>
<feBlend mode="normal" in="SourceGraphic" in2="effect1_dropShadow_84_8629" result="shape"/>
</filter>
<filter id="filter14_d_84_8629" x="-191" y="-199" width="323" height="323" filterUnits="userSpaceOnUse" color-interpolation-filters="sRGB">
<feFlood flood-opacity="0" result="BackgroundImageFix"/>
<feColorMatrix in="SourceAlpha" type="matrix" values="0 0 0 0 0 0 0 0 0 0 0 0 0 0 0 0 0 0 127 0" result="hardAlpha"/>
<feOffset/>
<feGaussianBlur stdDeviation="48"/>
<feColorMatrix type="matrix" values="0 0 0 0 0.564706 0 0 0 0 0.156863 0 0 0 0 0.117647 0 0 0 0.230769 0"/>
<feBlend mode="multiply" in2="BackgroundImageFix" result="effect1_dropShadow_84_8629"/>
<feBlend mode="normal" in="SourceGraphic" in2="effect1_dropShadow_84_8629" result="shape"/>
</filter>
<filter id="filter15_d_84_8629" x="-217" y="110" width="325" height="325" filterUnits="userSpaceOnUse" color-interpolation-filters="sRGB">
<feFlood flood-opacity="0" result="BackgroundImageFix"/>
<feColorMatrix in="SourceAlpha" type="matrix" values="0 0 0 0 0 0 0 0 0 0 0 0 0 0 0 0 0 0 127 0" result="hardAlpha"/>
<feOffset/>
<feGaussianBlur stdDeviation="48"/>
<feColorMatrix type="matrix" values="0 0 0 0 0.564706 0 0 0 0 0.156863 0 0 0 0 0.117647 0 0 0 0.230769 0"/>
<feBlend mode="multiply" in2="BackgroundImageFix" result="effect1_dropShadow_84_8629"/>
<feBlend mode="normal" in="SourceGraphic" in2="effect1_dropShadow_84_8629" result="shape"/>
</filter>
<filter id="filter16_d_84_8629" x="-128.014" y="-146.133" width="308.028" height="295.633" filterUnits="userSpaceOnUse" color-interpolation-filters="sRGB">
<feFlood flood-opacity="0" result="BackgroundImageFix"/>
<feColorMatrix in="SourceAlpha" type="matrix" values="0 0 0 0 0 0 0 0 0 0 0 0 0 0 0 0 0 0 127 0" result="hardAlpha"/>
<feOffset/>
<feGaussianBlur stdDeviation="48"/>
<feColorMatrix type="matrix" values="0 0 0 0 0.564706 0 0 0 0 0.156863 0 0 0 0 0.117647 0 0 0 0.230769 0"/>
<feBlend mode="multiply" in2="BackgroundImageFix" result="effect1_dropShadow_84_8629"/>
<feBlend mode="normal" in="SourceGraphic" in2="effect1_dropShadow_84_8629" result="shape"/>
</filter>
<filter id="filter17_d_84_8629" x="149.048" y="-220.96" width="243.904" height="236.96" filterUnits="userSpaceOnUse" color-interpolation-filters="sRGB">
<feFlood flood-opacity="0" result="BackgroundImageFix"/>
<feColorMatrix in="SourceAlpha" type="matrix" values="0 0 0 0 0 0 0 0 0 0 0 0 0 0 0 0 0 0 127 0" result="hardAlpha"/>
<feOffset/>
<feGaussianBlur stdDeviation="48"/>
<feColorMatrix type="matrix" values="0 0 0 0 0.564706 0 0 0 0 0.156863 0 0 0 0 0.117647 0 0 0 0.230769 0"/>
<feBlend mode="multiply" in2="BackgroundImageFix" result="effect1_dropShadow_84_8629"/>
<feBlend mode="normal" in="SourceGraphic" in2="effect1_dropShadow_84_8629" result="shape"/>
</filter>
<clipPath id="clip0_84_8629">
<rect width="330" height="169" fill="white"/>
</clipPath>
</defs>
</svg>
