<svg width="170" height="170" viewBox="0 0 170 170" fill="none" xmlns="http://www.w3.org/2000/svg">
<g clip-path="url(#clip0_84_9806)">
<rect width="170" height="170" fill="#FFE2FD"/>
<g filter="url(#filter0_d_84_9806)">
<path d="M37.5212 205.829L51.2065 235.977C64.9425 266.236 103.196 275.946 129.701 255.902C177.743 219.572 152.05 143 91.8181 143H78C45.6785 143 24.1611 176.398 37.5212 205.829Z" fill="#FFFCFB"/>
</g>
<g filter="url(#filter1_d_84_9806)">
<path d="M336 461.209L131.447 93.3509C128.648 88.3181 128.389 82.2597 130.748 77.0065L132.915 72.182C142.329 51.2164 124.516 28.2396 101.866 32.1328C94.0458 33.477 87.2532 38.2865 83.3878 45.2164L79.5096 52.1694C68.963 71.0776 74.2776 94.8894 91.8631 107.519L96.1751 110.615C100.028 113.382 103.359 116.811 106.014 120.741L336 461.209Z" fill="#FFFFB4"/>
</g>
<g filter="url(#filter2_d_84_9806)">
<path d="M51.636 -2.27202L54.2542 0.471329C56.9905 0.628937 59.5424 1.90989 61.304 4.01414L87.5 35.3057L54.2542 0.471329C54.215 0.46907 54.1757 0.467041 54.1364 0.46524L42.1594 -0.0822754C12.4766 -1.43919 7.29399 -43.1846 35.737 -51.7811C36.5769 -52.035 37.3902 -52.3701 38.1651 -52.7817C55.4409 -61.958 73.0599 -41.1559 61.1657 -25.6257L51.0828 -12.4604C48.7325 -9.39161 48.9672 -5.06829 51.636 -2.27202Z" fill="#B5FFFF"/>
</g>
<g filter="url(#filter3_d_84_9806)">
<path d="M162.477 245.193L167.048 244.685C198.349 241.21 219.821 211.486 213.285 180.678L210.509 167.597C203.267 133.458 169.915 111.493 135.691 118.323C83.3403 128.771 60.6162 190.928 93.8841 232.677L99.581 239.827C110.881 254.008 130.48 258.502 146.831 250.662L151.955 248.205C155.268 246.617 158.825 245.598 162.477 245.193Z" fill="#CFFFFF"/>
</g>
<g filter="url(#filter4_d_84_9806)">
<path d="M76.3288 200.648L157.259 303.894C176.118 327.953 208.555 336.744 236.982 325.501C372.074 272.068 363.065 77.9204 223.605 37.2285L189.942 27.4064C180.032 24.5148 169.556 24.1485 159.468 26.3408L149.076 28.5991C72.5315 45.2343 35.8665 133.576 76.3288 200.648Z" fill="#A1FFEE"/>
</g>
<g filter="url(#filter5_d_84_9806)">
<path d="M256.555 251.631L265.597 263.726C266.808 265.347 268.651 266.377 270.666 266.559C297.13 268.953 306.421 232.488 282.492 220.934C263.052 211.547 243.63 234.34 256.555 251.631Z" fill="#C1DBFF"/>
</g>
<g filter="url(#filter6_d_84_9806)">
<path d="M7.76563 241.486L12.2665 239.494C40.9051 226.82 30.2571 183.85 -0.985695 186.015C-3.21262 186.169 -5.25615 187.304 -6.56415 189.113L-19.811 207.433C-33.3855 226.206 -13.419 250.862 7.76563 241.486Z" fill="#FFF5BE"/>
</g>
<g filter="url(#filter7_d_84_9806)">
<path d="M144.776 208.311L154.11 187.526C154.99 185.566 154.944 183.315 153.986 181.393C141.343 156.028 102.92 167.898 106.785 195.974L107.752 202.995C110.418 222.357 136.77 226.141 144.776 208.311Z" fill="#C9FFF8"/>
</g>
<g filter="url(#filter8_d_84_9806)">
<path d="M49.4759 335.833L57.2652 332.213C96.8341 313.826 99.4166 258.544 61.7342 236.548C23.3704 214.154 -24.2485 244.53 -20.1142 288.758L-19.4118 296.272C-16.2854 329.719 19.0125 349.989 49.4759 335.833Z" fill="#9AFFE0"/>
</g>
<g filter="url(#filter9_d_84_9806)">
<path d="M115.851 268.192L120.498 260.809C131.405 243.478 132.745 221.789 124.054 203.249L122.811 200.596C90.7756 132.255 -4.44433 127.062 -43.7203 191.515C-58.8649 216.368 -56.6666 248.074 -38.2372 270.599L-32.6639 277.411C6.99202 325.879 82.4944 321.192 115.851 268.192Z" fill="#EEFFFF"/>
</g>
<g filter="url(#filter10_d_84_9806)">
<path d="M236.904 344.729L253.601 342.77C342.711 332.317 349.048 205.335 261.422 186.062C255.375 184.732 249.052 185.63 243.614 188.589L170.541 228.36C158.162 235.098 148.951 246.458 144.918 259.962C130.55 308.075 171.171 354.763 220.808 347.186L236.904 344.729Z" fill="white"/>
</g>
<g filter="url(#filter11_d_84_9806)">
<path d="M337.424 214.147L338.5 153.913L347.406 94.4147C351.857 64.6817 328.04 38.289 298.007 39.6735C263.993 41.2415 243.319 77.831 259.527 107.776L279.402 144.495C282.582 150.369 282.574 157.453 279.381 163.32L266.653 186.713C249.252 218.693 279.487 255.646 314.28 244.921C327.835 240.743 337.171 228.329 337.424 214.147Z" fill="white"/>
</g>
<g filter="url(#filter12_d_84_9806)">
<path d="M86.9989 343.798L96.7543 341.971C171.503 327.978 167.636 219.636 92.0801 211.008C82.2662 209.887 73.323 216.728 71.8357 226.493L58.2082 315.967C55.6623 332.683 70.3793 346.909 86.9989 343.798Z" fill="#ABFFF7"/>
</g>
<g filter="url(#filter13_d_84_9806)">
<path d="M105.531 48.4135L179 31L103.885 42.2009C103.631 42.2389 103.386 42.3244 103.163 42.453C99.9287 44.3202 101.897 49.2748 105.531 48.4135Z" fill="#B3CFCD"/>
</g>
<g filter="url(#filter14_d_84_9806)">
<path d="M185.505 94.0044L181.456 107.225C165.297 159.991 223.782 204.2 270.139 174.26C308.539 149.46 299.316 90.8763 255.153 79.0747L226.326 71.3714C208.846 66.7 190.803 76.7033 185.505 94.0044Z" fill="#CBDFF3"/>
</g>
<g filter="url(#filter15_d_84_9806)">
<path d="M-5.02409 380.664L6.30987 375.041C51.7261 352.506 60.1047 291.269 22.4108 257.364C5.20633 241.888 -19.4006 237.77 -40.7065 246.8L-68.9246 258.759C-93.2191 269.056 -109 292.884 -109 319.27C-109 353.711 -82.4118 382.31 -48.0623 384.817L-32.1055 385.981C-22.7653 386.663 -13.4132 384.827 -5.02409 380.664Z" fill="#FFFFFA"/>
</g>
<g filter="url(#filter16_d_84_9806)">
<path d="M3.74542 341.052L14.3615 359.763C75.4308 467.4 239.981 419.067 233.14 295.502C232.302 280.375 223.207 266.936 209.474 260.537L114.4 216.235C111.023 214.661 107.491 213.445 103.861 212.607C40.2844 197.924 -16.9117 254.473 -2.95468 318.212L-0.220551 330.698C0.574429 334.329 1.9114 337.819 3.74542 341.052Z" fill="#FFFFE4"/>
</g>
<g filter="url(#filter17_d_84_9806)">
<path d="M156.999 35.8665L146.363 67.3114C122.249 138.598 220.338 185.037 260.195 121.204C262.486 117.534 262.274 112.831 259.661 109.382L198.825 29.0716C187.207 13.7344 163.165 17.6403 156.999 35.8665Z" fill="#F0FFFF"/>
</g>
<g filter="url(#filter18_d_84_9806)">
<path d="M179.502 296.974L185.52 294.166C211.771 281.917 213.745 245.342 188.966 230.338C162.348 214.22 128.792 235.573 132.118 266.512L132.546 270.489C134.975 293.084 158.909 306.584 179.502 296.974Z" fill="white"/>
</g>
<g filter="url(#filter19_d_84_9806)">
<path d="M63.1625 227.986L67.7188 226.232C83.5154 220.152 85.614 198.658 71.2917 189.637C55.2391 179.526 34.8603 193.451 38.4455 212.08L38.9171 214.531C41.045 225.588 52.6542 232.03 63.1625 227.986Z" fill="#9CFFFF"/>
</g>
<g filter="url(#filter20_d_84_9806)">
<path d="M-56 228L-56.0843 236.048C-56.633 288.448 11.8697 308.71 39.9136 264.442C52.2277 245.004 44.9071 219.178 24.2245 209.093L-4.93797 194.873C-29.0041 183.138 -56.9071 201.241 -56 228Z" fill="#FFFFD7"/>
</g>
<g filter="url(#filter21_d_84_9806)">
<path d="M34.8395 152.61L29.7301 184.298C22.2927 230.424 70.0191 265.718 111.943 245.096C166.251 218.381 160.263 139.097 102.559 120.842L91.8766 117.462C66.1216 109.315 39.1396 125.942 34.8395 152.61Z" fill="#C5CAEB"/>
</g>
<path d="M-23.0346 436.595L12.4762 427.857C71.7334 413.275 92.9008 339.955 50.533 296.034C7.61047 251.539 -67.3109 269.419 -85.5135 328.503L-95.5103 360.952C-101.819 381.427 -94.75 403.668 -77.7779 416.745L-62.9187 428.194C-51.5955 436.918 -36.9151 440.011 -23.0346 436.595Z" fill="#E0FFF0"/>
<path d="M442.025 336.531L459.51 243.281C461.147 234.55 460.702 225.556 458.212 217.03L441.243 158.925C434.376 135.408 410.325 121.36 386.468 126.93L377.691 128.979C249.716 158.858 239.071 336.935 362.576 381.846C397.369 394.498 435.203 372.919 442.025 336.531Z" fill="#9BE8FF"/>
<g filter="url(#filter24_d_84_9806)">
<path d="M64.6089 -30.4104L48.2697 -41.4845C33.9773 -51.1712 14.4405 -43.0299 11.2563 -26.0603C5.27593 5.8115 44.1338 26.1871 67.4534 3.65329C77.4806 -6.03603 76.1514 -22.5874 64.6089 -30.4104Z" fill="#EDFFFF"/>
</g>
<g filter="url(#filter25_d_84_9806)">
<path d="M248.378 223.308L349.224 309.898C349.991 310.557 350.613 311.37 351.049 312.283C358.667 328.231 382.851 320.545 379.64 303.165C379.437 302.065 379.491 300.933 379.797 299.858L396.911 239.759C422.53 149.795 311.625 84.7117 245.578 150.951C225.292 171.295 226.581 204.592 248.378 223.308Z" fill="#FFFBC5"/>
</g>
<g filter="url(#filter26_d_84_9806)">
<path d="M187.747 229.977L196.596 212.995C206.094 194.768 206.929 173.244 198.872 154.336L197.589 151.325C182.745 116.491 144.935 97.4496 108.111 106.263L102.796 107.535C72.5748 114.768 49.9551 139.906 45.9407 170.721C39.5389 219.862 77.1571 263.844 126.684 265.526C152.143 266.391 175.976 252.568 187.747 229.977Z" fill="#D3F2FF"/>
</g>
</g>
<defs>
<filter id="filter0_d_84_9806" x="-62.5056" y="47" width="313.253" height="315.412" filterUnits="userSpaceOnUse" color-interpolation-filters="sRGB">
<feFlood flood-opacity="0" result="BackgroundImageFix"/>
<feColorMatrix in="SourceAlpha" type="matrix" values="0 0 0 0 0 0 0 0 0 0 0 0 0 0 0 0 0 0 127 0" result="hardAlpha"/>
<feOffset/>
<feGaussianBlur stdDeviation="48"/>
<feColorMatrix type="matrix" values="0 0 0 0 0.467974 0 0 0 0 0.541176 0 0 0 0 0.535948 0 0 0 0.230769 0"/>
<feBlend mode="multiply" in2="BackgroundImageFix" result="effect1_dropShadow_84_9806"/>
<feBlend mode="normal" in="SourceGraphic" in2="effect1_dropShadow_84_9806" result="shape"/>
</filter>
<filter id="filter1_d_84_9806" x="-21.89" y="-64.3019" width="453.89" height="621.511" filterUnits="userSpaceOnUse" color-interpolation-filters="sRGB">
<feFlood flood-opacity="0" result="BackgroundImageFix"/>
<feColorMatrix in="SourceAlpha" type="matrix" values="0 0 0 0 0 0 0 0 0 0 0 0 0 0 0 0 0 0 127 0" result="hardAlpha"/>
<feOffset/>
<feGaussianBlur stdDeviation="48"/>
<feColorMatrix type="matrix" values="0 0 0 0 0.467974 0 0 0 0 0.541176 0 0 0 0 0.535948 0 0 0 0.230769 0"/>
<feBlend mode="multiply" in2="BackgroundImageFix" result="effect1_dropShadow_84_9806"/>
<feBlend mode="normal" in="SourceGraphic" in2="effect1_dropShadow_84_9806" result="shape"/>
</filter>
<filter id="filter2_d_84_9806" x="-79.0651" y="-151.036" width="262.565" height="282.341" filterUnits="userSpaceOnUse" color-interpolation-filters="sRGB">
<feFlood flood-opacity="0" result="BackgroundImageFix"/>
<feColorMatrix in="SourceAlpha" type="matrix" values="0 0 0 0 0 0 0 0 0 0 0 0 0 0 0 0 0 0 127 0" result="hardAlpha"/>
<feOffset/>
<feGaussianBlur stdDeviation="48"/>
<feColorMatrix type="matrix" values="0 0 0 0 0.467974 0 0 0 0 0.541176 0 0 0 0 0.535948 0 0 0 0.230769 0"/>
<feBlend mode="multiply" in2="BackgroundImageFix" result="effect1_dropShadow_84_9806"/>
<feBlend mode="normal" in="SourceGraphic" in2="effect1_dropShadow_84_9806" result="shape"/>
</filter>
<filter id="filter3_d_84_9806" x="-17.7166" y="21.0792" width="328.176" height="329.41" filterUnits="userSpaceOnUse" color-interpolation-filters="sRGB">
<feFlood flood-opacity="0" result="BackgroundImageFix"/>
<feColorMatrix in="SourceAlpha" type="matrix" values="0 0 0 0 0 0 0 0 0 0 0 0 0 0 0 0 0 0 127 0" result="hardAlpha"/>
<feOffset/>
<feGaussianBlur stdDeviation="48"/>
<feColorMatrix type="matrix" values="0 0 0 0 0.467974 0 0 0 0 0.541176 0 0 0 0 0.535948 0 0 0 0.230769 0"/>
<feBlend mode="multiply" in2="BackgroundImageFix" result="effect1_dropShadow_84_9806"/>
<feBlend mode="normal" in="SourceGraphic" in2="effect1_dropShadow_84_9806" result="shape"/>
</filter>
<filter id="filter4_d_84_9806" x="-36.3373" y="-71.0707" width="465.759" height="497.415" filterUnits="userSpaceOnUse" color-interpolation-filters="sRGB">
<feFlood flood-opacity="0" result="BackgroundImageFix"/>
<feColorMatrix in="SourceAlpha" type="matrix" values="0 0 0 0 0 0 0 0 0 0 0 0 0 0 0 0 0 0 127 0" result="hardAlpha"/>
<feOffset/>
<feGaussianBlur stdDeviation="48"/>
<feColorMatrix type="matrix" values="0 0 0 0 0.467974 0 0 0 0 0.541176 0 0 0 0 0.535948 0 0 0 0.230769 0"/>
<feBlend mode="multiply" in2="BackgroundImageFix" result="effect1_dropShadow_84_9806"/>
<feBlend mode="normal" in="SourceGraphic" in2="effect1_dropShadow_84_9806" result="shape"/>
</filter>
<filter id="filter5_d_84_9806" x="156.375" y="122.745" width="235.913" height="239.926" filterUnits="userSpaceOnUse" color-interpolation-filters="sRGB">
<feFlood flood-opacity="0" result="BackgroundImageFix"/>
<feColorMatrix in="SourceAlpha" type="matrix" values="0 0 0 0 0 0 0 0 0 0 0 0 0 0 0 0 0 0 127 0" result="hardAlpha"/>
<feOffset/>
<feGaussianBlur stdDeviation="48"/>
<feColorMatrix type="matrix" values="0 0 0 0 0.467974 0 0 0 0 0.541176 0 0 0 0 0.535948 0 0 0 0.230769 0"/>
<feBlend mode="multiply" in2="BackgroundImageFix" result="effect1_dropShadow_84_9806"/>
<feBlend mode="normal" in="SourceGraphic" in2="effect1_dropShadow_84_9806" result="shape"/>
</filter>
<filter id="filter6_d_84_9806" x="-120.248" y="89.9359" width="245.221" height="249.607" filterUnits="userSpaceOnUse" color-interpolation-filters="sRGB">
<feFlood flood-opacity="0" result="BackgroundImageFix"/>
<feColorMatrix in="SourceAlpha" type="matrix" values="0 0 0 0 0 0 0 0 0 0 0 0 0 0 0 0 0 0 127 0" result="hardAlpha"/>
<feOffset/>
<feGaussianBlur stdDeviation="48"/>
<feColorMatrix type="matrix" values="0 0 0 0 0.467974 0 0 0 0 0.541176 0 0 0 0 0.535948 0 0 0 0.230769 0"/>
<feBlend mode="multiply" in2="BackgroundImageFix" result="effect1_dropShadow_84_9806"/>
<feBlend mode="normal" in="SourceGraphic" in2="effect1_dropShadow_84_9806" result="shape"/>
</filter>
<filter id="filter7_d_84_9806" x="10.5135" y="71.4531" width="240.225" height="244.355" filterUnits="userSpaceOnUse" color-interpolation-filters="sRGB">
<feFlood flood-opacity="0" result="BackgroundImageFix"/>
<feColorMatrix in="SourceAlpha" type="matrix" values="0 0 0 0 0 0 0 0 0 0 0 0 0 0 0 0 0 0 127 0" result="hardAlpha"/>
<feOffset/>
<feGaussianBlur stdDeviation="48"/>
<feColorMatrix type="matrix" values="0 0 0 0 0.467974 0 0 0 0 0.541176 0 0 0 0 0.535948 0 0 0 0.230769 0"/>
<feBlend mode="multiply" in2="BackgroundImageFix" result="effect1_dropShadow_84_9806"/>
<feBlend mode="normal" in="SourceGraphic" in2="effect1_dropShadow_84_9806" result="shape"/>
</filter>
<filter id="filter8_d_84_9806" x="-116.366" y="132.997" width="300.895" height="303.407" filterUnits="userSpaceOnUse" color-interpolation-filters="sRGB">
<feFlood flood-opacity="0" result="BackgroundImageFix"/>
<feColorMatrix in="SourceAlpha" type="matrix" values="0 0 0 0 0 0 0 0 0 0 0 0 0 0 0 0 0 0 127 0" result="hardAlpha"/>
<feOffset/>
<feGaussianBlur stdDeviation="48"/>
<feColorMatrix type="matrix" values="0 0 0 0 0.467974 0 0 0 0 0.541176 0 0 0 0 0.535948 0 0 0 0.230769 0"/>
<feBlend mode="multiply" in2="BackgroundImageFix" result="effect1_dropShadow_84_9806"/>
<feBlend mode="normal" in="SourceGraphic" in2="effect1_dropShadow_84_9806" result="shape"/>
</filter>
<filter id="filter9_d_84_9806" x="-149.734" y="50.1141" width="375.473" height="356.916" filterUnits="userSpaceOnUse" color-interpolation-filters="sRGB">
<feFlood flood-opacity="0" result="BackgroundImageFix"/>
<feColorMatrix in="SourceAlpha" type="matrix" values="0 0 0 0 0 0 0 0 0 0 0 0 0 0 0 0 0 0 127 0" result="hardAlpha"/>
<feOffset/>
<feGaussianBlur stdDeviation="48"/>
<feColorMatrix type="matrix" values="0 0 0 0 0.467974 0 0 0 0 0.541176 0 0 0 0 0.535948 0 0 0 0.230769 0"/>
<feBlend mode="multiply" in2="BackgroundImageFix" result="effect1_dropShadow_84_9806"/>
<feBlend mode="normal" in="SourceGraphic" in2="effect1_dropShadow_84_9806" result="shape"/>
</filter>
<filter id="filter10_d_84_9806" x="45.9905" y="89.4621" width="373.903" height="354.536" filterUnits="userSpaceOnUse" color-interpolation-filters="sRGB">
<feFlood flood-opacity="0" result="BackgroundImageFix"/>
<feColorMatrix in="SourceAlpha" type="matrix" values="0 0 0 0 0 0 0 0 0 0 0 0 0 0 0 0 0 0 127 0" result="hardAlpha"/>
<feOffset/>
<feGaussianBlur stdDeviation="48"/>
<feColorMatrix type="matrix" values="0 0 0 0 0.467974 0 0 0 0 0.541176 0 0 0 0 0.535948 0 0 0 0.230769 0"/>
<feBlend mode="multiply" in2="BackgroundImageFix" result="effect1_dropShadow_84_9806"/>
<feBlend mode="normal" in="SourceGraphic" in2="effect1_dropShadow_84_9806" result="shape"/>
</filter>
<filter id="filter11_d_84_9806" x="157.905" y="-56.3787" width="286.038" height="399.192" filterUnits="userSpaceOnUse" color-interpolation-filters="sRGB">
<feFlood flood-opacity="0" result="BackgroundImageFix"/>
<feColorMatrix in="SourceAlpha" type="matrix" values="0 0 0 0 0 0 0 0 0 0 0 0 0 0 0 0 0 0 127 0" result="hardAlpha"/>
<feOffset/>
<feGaussianBlur stdDeviation="48"/>
<feColorMatrix type="matrix" values="0 0 0 0 0.467974 0 0 0 0 0.541176 0 0 0 0 0.535948 0 0 0 0.230769 0"/>
<feBlend mode="multiply" in2="BackgroundImageFix" result="effect1_dropShadow_84_9806"/>
<feBlend mode="normal" in="SourceGraphic" in2="effect1_dropShadow_84_9806" result="shape"/>
</filter>
<filter id="filter12_d_84_9806" x="-38.08" y="114.888" width="284.907" height="325.34" filterUnits="userSpaceOnUse" color-interpolation-filters="sRGB">
<feFlood flood-opacity="0" result="BackgroundImageFix"/>
<feColorMatrix in="SourceAlpha" type="matrix" values="0 0 0 0 0 0 0 0 0 0 0 0 0 0 0 0 0 0 127 0" result="hardAlpha"/>
<feOffset/>
<feGaussianBlur stdDeviation="48"/>
<feColorMatrix type="matrix" values="0 0 0 0 0.467974 0 0 0 0 0.541176 0 0 0 0 0.535948 0 0 0 0.230769 0"/>
<feBlend mode="multiply" in2="BackgroundImageFix" result="effect1_dropShadow_84_9806"/>
<feBlend mode="normal" in="SourceGraphic" in2="effect1_dropShadow_84_9806" result="shape"/>
</filter>
<filter id="filter13_d_84_9806" x="5.5271" y="-65" width="269.473" height="209.513" filterUnits="userSpaceOnUse" color-interpolation-filters="sRGB">
<feFlood flood-opacity="0" result="BackgroundImageFix"/>
<feColorMatrix in="SourceAlpha" type="matrix" values="0 0 0 0 0 0 0 0 0 0 0 0 0 0 0 0 0 0 127 0" result="hardAlpha"/>
<feOffset/>
<feGaussianBlur stdDeviation="48"/>
<feColorMatrix type="matrix" values="0 0 0 0 0.467974 0 0 0 0 0.541176 0 0 0 0 0.535948 0 0 0 0.230769 0"/>
<feBlend mode="multiply" in2="BackgroundImageFix" result="effect1_dropShadow_84_9806"/>
<feBlend mode="normal" in="SourceGraphic" in2="effect1_dropShadow_84_9806" result="shape"/>
</filter>
<filter id="filter14_d_84_9806" x="82.7104" y="-25.7756" width="307.557" height="305.731" filterUnits="userSpaceOnUse" color-interpolation-filters="sRGB">
<feFlood flood-opacity="0" result="BackgroundImageFix"/>
<feColorMatrix in="SourceAlpha" type="matrix" values="0 0 0 0 0 0 0 0 0 0 0 0 0 0 0 0 0 0 127 0" result="hardAlpha"/>
<feOffset/>
<feGaussianBlur stdDeviation="48"/>
<feColorMatrix type="matrix" values="0 0 0 0 0.467974 0 0 0 0 0.541176 0 0 0 0 0.535948 0 0 0 0.230769 0"/>
<feBlend mode="multiply" in2="BackgroundImageFix" result="effect1_dropShadow_84_9806"/>
<feBlend mode="normal" in="SourceGraphic" in2="effect1_dropShadow_84_9806" result="shape"/>
</filter>
<filter id="filter15_d_84_9806" x="-205" y="146.073" width="347.199" height="336.047" filterUnits="userSpaceOnUse" color-interpolation-filters="sRGB">
<feFlood flood-opacity="0" result="BackgroundImageFix"/>
<feColorMatrix in="SourceAlpha" type="matrix" values="0 0 0 0 0 0 0 0 0 0 0 0 0 0 0 0 0 0 127 0" result="hardAlpha"/>
<feOffset/>
<feGaussianBlur stdDeviation="48"/>
<feColorMatrix type="matrix" values="0 0 0 0 0.467974 0 0 0 0 0.541176 0 0 0 0 0.535948 0 0 0 0.230769 0"/>
<feBlend mode="multiply" in2="BackgroundImageFix" result="effect1_dropShadow_84_9806"/>
<feBlend mode="normal" in="SourceGraphic" in2="effect1_dropShadow_84_9806" result="shape"/>
</filter>
<filter id="filter16_d_84_9806" x="-101.074" y="114.262" width="430.421" height="401.075" filterUnits="userSpaceOnUse" color-interpolation-filters="sRGB">
<feFlood flood-opacity="0" result="BackgroundImageFix"/>
<feColorMatrix in="SourceAlpha" type="matrix" values="0 0 0 0 0 0 0 0 0 0 0 0 0 0 0 0 0 0 127 0" result="hardAlpha"/>
<feOffset/>
<feGaussianBlur stdDeviation="48"/>
<feColorMatrix type="matrix" values="0 0 0 0 0.467974 0 0 0 0 0.541176 0 0 0 0 0.535948 0 0 0 0.230769 0"/>
<feBlend mode="multiply" in2="BackgroundImageFix" result="effect1_dropShadow_84_9806"/>
<feBlend mode="normal" in="SourceGraphic" in2="effect1_dropShadow_84_9806" result="shape"/>
</filter>
<filter id="filter17_d_84_9806" x="46.5983" y="-76.4346" width="311.179" height="323.879" filterUnits="userSpaceOnUse" color-interpolation-filters="sRGB">
<feFlood flood-opacity="0" result="BackgroundImageFix"/>
<feColorMatrix in="SourceAlpha" type="matrix" values="0 0 0 0 0 0 0 0 0 0 0 0 0 0 0 0 0 0 127 0" result="hardAlpha"/>
<feOffset/>
<feGaussianBlur stdDeviation="48"/>
<feColorMatrix type="matrix" values="0 0 0 0 0.467974 0 0 0 0 0.541176 0 0 0 0 0.535948 0 0 0 0.230769 0"/>
<feBlend mode="multiply" in2="BackgroundImageFix" result="effect1_dropShadow_84_9806"/>
<feBlend mode="normal" in="SourceGraphic" in2="effect1_dropShadow_84_9806" result="shape"/>
</filter>
<filter id="filter18_d_84_9806" x="35.8889" y="128.821" width="266.544" height="267.29" filterUnits="userSpaceOnUse" color-interpolation-filters="sRGB">
<feFlood flood-opacity="0" result="BackgroundImageFix"/>
<feColorMatrix in="SourceAlpha" type="matrix" values="0 0 0 0 0 0 0 0 0 0 0 0 0 0 0 0 0 0 127 0" result="hardAlpha"/>
<feOffset/>
<feGaussianBlur stdDeviation="48"/>
<feColorMatrix type="matrix" values="0 0 0 0 0.467974 0 0 0 0 0.541176 0 0 0 0 0.535948 0 0 0 0.230769 0"/>
<feBlend mode="multiply" in2="BackgroundImageFix" result="effect1_dropShadow_84_9806"/>
<feBlend mode="normal" in="SourceGraphic" in2="effect1_dropShadow_84_9806" result="shape"/>
</filter>
<filter id="filter19_d_84_9806" x="-57.9695" y="90.2396" width="234.869" height="234.962" filterUnits="userSpaceOnUse" color-interpolation-filters="sRGB">
<feFlood flood-opacity="0" result="BackgroundImageFix"/>
<feColorMatrix in="SourceAlpha" type="matrix" values="0 0 0 0 0 0 0 0 0 0 0 0 0 0 0 0 0 0 127 0" result="hardAlpha"/>
<feOffset/>
<feGaussianBlur stdDeviation="48"/>
<feColorMatrix type="matrix" values="0 0 0 0 0.467974 0 0 0 0 0.541176 0 0 0 0 0.535948 0 0 0 0.230769 0"/>
<feBlend mode="multiply" in2="BackgroundImageFix" result="effect1_dropShadow_84_9806"/>
<feBlend mode="normal" in="SourceGraphic" in2="effect1_dropShadow_84_9806" result="shape"/>
</filter>
<filter id="filter20_d_84_9806" x="-152.088" y="95.2311" width="294.003" height="289.499" filterUnits="userSpaceOnUse" color-interpolation-filters="sRGB">
<feFlood flood-opacity="0" result="BackgroundImageFix"/>
<feColorMatrix in="SourceAlpha" type="matrix" values="0 0 0 0 0 0 0 0 0 0 0 0 0 0 0 0 0 0 127 0" result="hardAlpha"/>
<feOffset/>
<feGaussianBlur stdDeviation="48"/>
<feColorMatrix type="matrix" values="0 0 0 0 0.467974 0 0 0 0 0.541176 0 0 0 0 0.535948 0 0 0 0.230769 0"/>
<feBlend mode="multiply" in2="BackgroundImageFix" result="effect1_dropShadow_84_9806"/>
<feBlend mode="normal" in="SourceGraphic" in2="effect1_dropShadow_84_9806" result="shape"/>
</filter>
<filter id="filter21_d_84_9806" x="-67.0417" y="19.3819" width="312.495" height="327.738" filterUnits="userSpaceOnUse" color-interpolation-filters="sRGB">
<feFlood flood-opacity="0" result="BackgroundImageFix"/>
<feColorMatrix in="SourceAlpha" type="matrix" values="0 0 0 0 0 0 0 0 0 0 0 0 0 0 0 0 0 0 127 0" result="hardAlpha"/>
<feOffset/>
<feGaussianBlur stdDeviation="48"/>
<feColorMatrix type="matrix" values="0 0 0 0 0.467974 0 0 0 0 0.541176 0 0 0 0 0.535948 0 0 0 0.230769 0"/>
<feBlend mode="multiply" in2="BackgroundImageFix" result="effect1_dropShadow_84_9806"/>
<feBlend mode="normal" in="SourceGraphic" in2="effect1_dropShadow_84_9806" result="shape"/>
</filter>
<filter id="filter24_d_84_9806" x="-85.3612" y="-141.634" width="255.557" height="250.834" filterUnits="userSpaceOnUse" color-interpolation-filters="sRGB">
<feFlood flood-opacity="0" result="BackgroundImageFix"/>
<feColorMatrix in="SourceAlpha" type="matrix" values="0 0 0 0 0 0 0 0 0 0 0 0 0 0 0 0 0 0 127 0" result="hardAlpha"/>
<feOffset/>
<feGaussianBlur stdDeviation="48"/>
<feColorMatrix type="matrix" values="0 0 0 0 0.467974 0 0 0 0 0.541176 0 0 0 0 0.535948 0 0 0 0.230769 0"/>
<feBlend mode="multiply" in2="BackgroundImageFix" result="effect1_dropShadow_84_9806"/>
<feBlend mode="normal" in="SourceGraphic" in2="effect1_dropShadow_84_9806" result="shape"/>
</filter>
<filter id="filter25_d_84_9806" x="135.16" y="27.8523" width="361.523" height="389.138" filterUnits="userSpaceOnUse" color-interpolation-filters="sRGB">
<feFlood flood-opacity="0" result="BackgroundImageFix"/>
<feColorMatrix in="SourceAlpha" type="matrix" values="0 0 0 0 0 0 0 0 0 0 0 0 0 0 0 0 0 0 127 0" result="hardAlpha"/>
<feOffset/>
<feGaussianBlur stdDeviation="48"/>
<feColorMatrix type="matrix" values="0 0 0 0 0.467974 0 0 0 0 0.541176 0 0 0 0 0.535948 0 0 0 0.230769 0"/>
<feBlend mode="multiply" in2="BackgroundImageFix" result="effect1_dropShadow_84_9806"/>
<feBlend mode="normal" in="SourceGraphic" in2="effect1_dropShadow_84_9806" result="shape"/>
</filter>
<filter id="filter26_d_84_9806" x="-50.7704" y="8.1212" width="351.139" height="353.443" filterUnits="userSpaceOnUse" color-interpolation-filters="sRGB">
<feFlood flood-opacity="0" result="BackgroundImageFix"/>
<feColorMatrix in="SourceAlpha" type="matrix" values="0 0 0 0 0 0 0 0 0 0 0 0 0 0 0 0 0 0 127 0" result="hardAlpha"/>
<feOffset/>
<feGaussianBlur stdDeviation="48"/>
<feColorMatrix type="matrix" values="0 0 0 0 0.467974 0 0 0 0 0.541176 0 0 0 0 0.535948 0 0 0 0.230769 0"/>
<feBlend mode="multiply" in2="BackgroundImageFix" result="effect1_dropShadow_84_9806"/>
<feBlend mode="normal" in="SourceGraphic" in2="effect1_dropShadow_84_9806" result="shape"/>
</filter>
<clipPath id="clip0_84_9806">
<rect width="170" height="170" fill="white"/>
</clipPath>
</defs>
</svg>
