<svg width="167" height="170" viewBox="0 0 167 170" fill="none" xmlns="http://www.w3.org/2000/svg">
<g clip-path="url(#clip0_84_894)">
<rect width="167" height="170" fill="#FFFFB1"/>
<g filter="url(#filter0_d_84_894)">
<path d="M158.263 81.8934C158.62 79.1578 162.58 79.1578 162.937 81.8934C163.244 84.2411 166.433 84.7217 167.418 82.5687C168.565 80.0599 172.349 81.2271 171.884 83.9465C171.485 86.2802 174.391 87.6795 175.967 85.9125C177.803 83.8534 181.074 86.084 179.829 88.5456C178.76 90.658 181.124 92.8515 183.15 91.6275C185.512 90.2012 187.981 93.297 186.065 95.282C184.42 96.9855 186.033 99.7783 188.33 99.206C191.007 98.5392 192.454 102.225 190.038 103.557C187.964 104.7 188.682 107.844 191.046 107.975C193.801 108.127 194.097 112.075 191.395 112.636C189.077 113.117 188.836 116.333 191.057 117.154C193.644 118.111 192.763 121.972 190.017 121.711C187.66 121.488 186.481 124.49 188.361 125.929C190.552 127.607 188.572 131.036 186.024 129.977C183.838 129.069 181.827 131.59 183.199 133.52C184.798 135.768 181.895 138.462 179.773 136.699C177.951 135.187 175.286 137.003 176.029 139.252C176.894 141.871 173.326 143.589 171.817 141.28C170.523 139.298 167.441 140.248 167.488 142.615C167.542 145.374 163.627 145.964 162.866 143.312C162.212 141.036 158.988 141.036 158.334 143.312C157.573 145.964 153.658 145.374 153.712 142.615C153.759 140.248 150.677 139.298 149.383 141.28C147.874 143.589 144.306 141.871 145.171 139.252C145.914 137.003 143.249 135.187 141.427 136.699C139.305 138.462 136.402 135.768 138.001 133.52C139.373 131.59 137.362 129.069 135.176 129.977C132.628 131.036 130.648 127.607 132.839 125.929C134.719 124.49 133.54 121.488 131.183 121.711C128.437 121.972 127.556 118.111 130.143 117.154C132.364 116.333 132.123 113.117 129.805 112.636C127.103 112.075 127.399 108.127 130.154 107.975C132.518 107.844 133.236 104.7 131.162 103.557C128.746 102.225 130.193 98.5392 132.87 99.206C135.167 99.7783 136.78 96.9855 135.135 95.282C133.219 93.297 135.688 90.2012 138.05 91.6275C140.076 92.8515 142.44 90.658 141.371 88.5456C140.126 86.084 143.397 83.8534 145.233 85.9125C146.809 87.6795 149.715 86.2802 149.316 83.9465C148.851 81.2271 152.635 80.0599 153.782 82.5687C154.767 84.7217 157.956 84.2411 158.263 81.8934Z" fill="#DDE746"/>
</g>
<g filter="url(#filter1_d_84_894)">
<rect x="65" y="13" width="73" height="73" rx="1.60831" fill="#FF8F70"/>
</g>
<g filter="url(#filter2_d_84_894)">
<path d="M72.3736 108.219C72.4298 108.122 72.5702 108.122 72.6264 108.219L105.716 165.531C105.772 165.628 105.702 165.75 105.589 165.75H39.4108C39.2985 165.75 39.2283 165.628 39.2844 165.531L72.3736 108.219Z" fill="#FFDD80"/>
</g>
<g filter="url(#filter3_d_84_894)">
<rect x="127" y="47" width="63" height="63" rx="5.2407" fill="#FFC687"/>
</g>
<g filter="url(#filter4_d_84_894)">
<circle cx="86.5" cy="59.5" r="12.5" fill="#FFFF4E"/>
</g>
<g filter="url(#filter5_d_84_894)">
<line x1="10.5066" y1="62.4727" x2="50.3305" y2="-13.751" stroke="#E7F0BE" stroke-width="28.1916"/>
</g>
<g filter="url(#filter6_d_84_894)">
<line x1="41.0319" y1="72.8179" x2="117.022" y2="55.2269" stroke="#FFFF57" stroke-width="8.58541"/>
</g>
<g filter="url(#filter7_d_84_894)">
<rect x="95" y="65" width="70" height="70" rx="0.846352" fill="#FFB468"/>
</g>
<g filter="url(#filter8_d_84_894)">
<line x1="21.0609" y1="53.9663" x2="21.9511" y2="213.964" stroke="#FFFFBC" stroke-width="12.122"/>
</g>
<g filter="url(#filter9_d_84_894)">
<circle cx="78" cy="193" r="78" fill="#FFA37B"/>
</g>
<g filter="url(#filter10_d_84_894)">
<path d="M143.398 68.1775C143.443 68.0986 143.557 68.0986 143.602 68.1775L184.534 139.073C184.579 139.151 184.522 139.25 184.431 139.25H102.569C102.478 139.25 102.421 139.151 102.466 139.073L143.398 68.1775Z" fill="#FFE651"/>
</g>
<g filter="url(#filter11_d_84_894)">
<rect x="46" y="106" width="76" height="76" rx="0.000231576" fill="#FF9392"/>
</g>
<g filter="url(#filter12_d_84_894)">
<line x1="64.7823" y1="39.2644" x2="89.1373" y2="-19.9204" stroke="#FFF13C" stroke-width="9.12171"/>
</g>
<g filter="url(#filter13_d_84_894)">
<rect x="65" y="77" width="155" height="155" rx="7.94214" fill="#DAECAA"/>
</g>
<g filter="url(#filter14_d_84_894)">
<path d="M185.395 92.5115C186.553 90.5064 189.447 90.5064 190.605 92.5115L244.285 185.488C245.443 187.494 243.996 190 241.68 190H134.32C132.004 190 130.557 187.494 131.715 185.488L185.395 92.5115Z" fill="#FFFF8F"/>
</g>
<g filter="url(#filter15_d_84_894)">
<circle cx="63.5" cy="120.5" r="34.5" fill="#FFE0BB"/>
</g>
<g filter="url(#filter16_d_84_894)">
<path d="M72.995 25.0086C72.9972 25.0048 73.0028 25.0048 73.005 25.0086L111.966 92.4914C111.968 92.4952 111.966 92.5 111.961 92.5H34.0388C34.0344 92.5 34.0316 92.4952 34.0338 92.4914L72.995 25.0086Z" fill="#E9A431"/>
</g>
<g filter="url(#filter17_d_84_894)">
<line x1="97.5054" y1="55.1929" x2="160.483" y2="71.2814" stroke="#E9A431" stroke-width="20.2442"/>
</g>
</g>
<defs>
<filter id="filter0_d_84_894" x="31.9261" y="-16.1583" width="257.348" height="257.179" filterUnits="userSpaceOnUse" color-interpolation-filters="sRGB">
<feFlood flood-opacity="0" result="BackgroundImageFix"/>
<feColorMatrix in="SourceAlpha" type="matrix" values="0 0 0 0 0 0 0 0 0 0 0 0 0 0 0 0 0 0 127 0" result="hardAlpha"/>
<feOffset/>
<feGaussianBlur stdDeviation="48"/>
<feColorMatrix type="matrix" values="0 0 0 0 0.60915 0 0 0 0 0.428758 0 0 0 0 0.128105 0 0 0 0.230769 0"/>
<feBlend mode="multiply" in2="BackgroundImageFix" result="effect1_dropShadow_84_894"/>
<feBlend mode="normal" in="SourceGraphic" in2="effect1_dropShadow_84_894" result="shape"/>
</filter>
<filter id="filter1_d_84_894" x="-31" y="-83" width="265" height="265" filterUnits="userSpaceOnUse" color-interpolation-filters="sRGB">
<feFlood flood-opacity="0" result="BackgroundImageFix"/>
<feColorMatrix in="SourceAlpha" type="matrix" values="0 0 0 0 0 0 0 0 0 0 0 0 0 0 0 0 0 0 127 0" result="hardAlpha"/>
<feOffset/>
<feGaussianBlur stdDeviation="48"/>
<feColorMatrix type="matrix" values="0 0 0 0 0.60915 0 0 0 0 0.428758 0 0 0 0 0.128105 0 0 0 0.230769 0"/>
<feBlend mode="multiply" in2="BackgroundImageFix" result="effect1_dropShadow_84_894"/>
<feBlend mode="normal" in="SourceGraphic" in2="effect1_dropShadow_84_894" result="shape"/>
</filter>
<filter id="filter2_d_84_894" x="-56.7354" y="12.146" width="258.471" height="249.604" filterUnits="userSpaceOnUse" color-interpolation-filters="sRGB">
<feFlood flood-opacity="0" result="BackgroundImageFix"/>
<feColorMatrix in="SourceAlpha" type="matrix" values="0 0 0 0 0 0 0 0 0 0 0 0 0 0 0 0 0 0 127 0" result="hardAlpha"/>
<feOffset/>
<feGaussianBlur stdDeviation="48"/>
<feColorMatrix type="matrix" values="0 0 0 0 0.60915 0 0 0 0 0.428758 0 0 0 0 0.128105 0 0 0 0.230769 0"/>
<feBlend mode="multiply" in2="BackgroundImageFix" result="effect1_dropShadow_84_894"/>
<feBlend mode="normal" in="SourceGraphic" in2="effect1_dropShadow_84_894" result="shape"/>
</filter>
<filter id="filter3_d_84_894" x="31" y="-49" width="255" height="255" filterUnits="userSpaceOnUse" color-interpolation-filters="sRGB">
<feFlood flood-opacity="0" result="BackgroundImageFix"/>
<feColorMatrix in="SourceAlpha" type="matrix" values="0 0 0 0 0 0 0 0 0 0 0 0 0 0 0 0 0 0 127 0" result="hardAlpha"/>
<feOffset/>
<feGaussianBlur stdDeviation="48"/>
<feColorMatrix type="matrix" values="0 0 0 0 0.60915 0 0 0 0 0.428758 0 0 0 0 0.128105 0 0 0 0.230769 0"/>
<feBlend mode="multiply" in2="BackgroundImageFix" result="effect1_dropShadow_84_894"/>
<feBlend mode="normal" in="SourceGraphic" in2="effect1_dropShadow_84_894" result="shape"/>
</filter>
<filter id="filter4_d_84_894" x="-22" y="-49" width="217" height="217" filterUnits="userSpaceOnUse" color-interpolation-filters="sRGB">
<feFlood flood-opacity="0" result="BackgroundImageFix"/>
<feColorMatrix in="SourceAlpha" type="matrix" values="0 0 0 0 0 0 0 0 0 0 0 0 0 0 0 0 0 0 127 0" result="hardAlpha"/>
<feOffset/>
<feGaussianBlur stdDeviation="48"/>
<feColorMatrix type="matrix" values="0 0 0 0 0.60915 0 0 0 0 0.428758 0 0 0 0 0.128105 0 0 0 0.230769 0"/>
<feBlend mode="multiply" in2="BackgroundImageFix" result="effect1_dropShadow_84_894"/>
<feBlend mode="normal" in="SourceGraphic" in2="effect1_dropShadow_84_894" result="shape"/>
</filter>
<filter id="filter5_d_84_894" x="-97.9868" y="-116.278" width="256.811" height="281.278" filterUnits="userSpaceOnUse" color-interpolation-filters="sRGB">
<feFlood flood-opacity="0" result="BackgroundImageFix"/>
<feColorMatrix in="SourceAlpha" type="matrix" values="0 0 0 0 0 0 0 0 0 0 0 0 0 0 0 0 0 0 127 0" result="hardAlpha"/>
<feOffset/>
<feGaussianBlur stdDeviation="48"/>
<feColorMatrix type="matrix" values="0 0 0 0 0.60915 0 0 0 0 0.428758 0 0 0 0 0.128105 0 0 0 0.230769 0"/>
<feBlend mode="multiply" in2="BackgroundImageFix" result="effect1_dropShadow_84_894"/>
<feBlend mode="normal" in="SourceGraphic" in2="effect1_dropShadow_84_894" result="shape"/>
</filter>
<filter id="filter6_d_84_894" x="-55.9363" y="-44.9552" width="269.927" height="217.955" filterUnits="userSpaceOnUse" color-interpolation-filters="sRGB">
<feFlood flood-opacity="0" result="BackgroundImageFix"/>
<feColorMatrix in="SourceAlpha" type="matrix" values="0 0 0 0 0 0 0 0 0 0 0 0 0 0 0 0 0 0 127 0" result="hardAlpha"/>
<feOffset/>
<feGaussianBlur stdDeviation="48"/>
<feColorMatrix type="matrix" values="0 0 0 0 0.60915 0 0 0 0 0.428758 0 0 0 0 0.128105 0 0 0 0.230769 0"/>
<feBlend mode="multiply" in2="BackgroundImageFix" result="effect1_dropShadow_84_894"/>
<feBlend mode="normal" in="SourceGraphic" in2="effect1_dropShadow_84_894" result="shape"/>
</filter>
<filter id="filter7_d_84_894" x="-1" y="-31" width="262" height="262" filterUnits="userSpaceOnUse" color-interpolation-filters="sRGB">
<feFlood flood-opacity="0" result="BackgroundImageFix"/>
<feColorMatrix in="SourceAlpha" type="matrix" values="0 0 0 0 0 0 0 0 0 0 0 0 0 0 0 0 0 0 127 0" result="hardAlpha"/>
<feOffset/>
<feGaussianBlur stdDeviation="48"/>
<feColorMatrix type="matrix" values="0 0 0 0 0.60915 0 0 0 0 0.428758 0 0 0 0 0.128105 0 0 0 0.230769 0"/>
<feBlend mode="multiply" in2="BackgroundImageFix" result="effect1_dropShadow_84_894"/>
<feBlend mode="normal" in="SourceGraphic" in2="effect1_dropShadow_84_894" result="shape"/>
</filter>
<filter id="filter8_d_84_894" x="-81" y="-42.0674" width="205.012" height="352.065" filterUnits="userSpaceOnUse" color-interpolation-filters="sRGB">
<feFlood flood-opacity="0" result="BackgroundImageFix"/>
<feColorMatrix in="SourceAlpha" type="matrix" values="0 0 0 0 0 0 0 0 0 0 0 0 0 0 0 0 0 0 127 0" result="hardAlpha"/>
<feOffset/>
<feGaussianBlur stdDeviation="48"/>
<feColorMatrix type="matrix" values="0 0 0 0 0.60915 0 0 0 0 0.428758 0 0 0 0 0.128105 0 0 0 0.230769 0"/>
<feBlend mode="multiply" in2="BackgroundImageFix" result="effect1_dropShadow_84_894"/>
<feBlend mode="normal" in="SourceGraphic" in2="effect1_dropShadow_84_894" result="shape"/>
</filter>
<filter id="filter9_d_84_894" x="-96" y="19" width="348" height="348" filterUnits="userSpaceOnUse" color-interpolation-filters="sRGB">
<feFlood flood-opacity="0" result="BackgroundImageFix"/>
<feColorMatrix in="SourceAlpha" type="matrix" values="0 0 0 0 0 0 0 0 0 0 0 0 0 0 0 0 0 0 127 0" result="hardAlpha"/>
<feOffset/>
<feGaussianBlur stdDeviation="48"/>
<feColorMatrix type="matrix" values="0 0 0 0 0.60915 0 0 0 0 0.428758 0 0 0 0 0.128105 0 0 0 0.230769 0"/>
<feBlend mode="multiply" in2="BackgroundImageFix" result="effect1_dropShadow_84_894"/>
<feBlend mode="normal" in="SourceGraphic" in2="effect1_dropShadow_84_894" result="shape"/>
</filter>
<filter id="filter10_d_84_894" x="6.4502" y="-27.8817" width="274.1" height="263.132" filterUnits="userSpaceOnUse" color-interpolation-filters="sRGB">
<feFlood flood-opacity="0" result="BackgroundImageFix"/>
<feColorMatrix in="SourceAlpha" type="matrix" values="0 0 0 0 0 0 0 0 0 0 0 0 0 0 0 0 0 0 127 0" result="hardAlpha"/>
<feOffset/>
<feGaussianBlur stdDeviation="48"/>
<feColorMatrix type="matrix" values="0 0 0 0 0.60915 0 0 0 0 0.428758 0 0 0 0 0.128105 0 0 0 0.230769 0"/>
<feBlend mode="multiply" in2="BackgroundImageFix" result="effect1_dropShadow_84_894"/>
<feBlend mode="normal" in="SourceGraphic" in2="effect1_dropShadow_84_894" result="shape"/>
</filter>
<filter id="filter11_d_84_894" x="-50" y="10" width="268" height="268" filterUnits="userSpaceOnUse" color-interpolation-filters="sRGB">
<feFlood flood-opacity="0" result="BackgroundImageFix"/>
<feColorMatrix in="SourceAlpha" type="matrix" values="0 0 0 0 0 0 0 0 0 0 0 0 0 0 0 0 0 0 127 0" result="hardAlpha"/>
<feOffset/>
<feGaussianBlur stdDeviation="48"/>
<feColorMatrix type="matrix" values="0 0 0 0 0.60915 0 0 0 0 0.428758 0 0 0 0 0.128105 0 0 0 0.230769 0"/>
<feBlend mode="multiply" in2="BackgroundImageFix" result="effect1_dropShadow_84_894"/>
<feBlend mode="normal" in="SourceGraphic" in2="effect1_dropShadow_84_894" result="shape"/>
</filter>
<filter id="filter12_d_84_894" x="-35.4354" y="-117.656" width="224.79" height="254.656" filterUnits="userSpaceOnUse" color-interpolation-filters="sRGB">
<feFlood flood-opacity="0" result="BackgroundImageFix"/>
<feColorMatrix in="SourceAlpha" type="matrix" values="0 0 0 0 0 0 0 0 0 0 0 0 0 0 0 0 0 0 127 0" result="hardAlpha"/>
<feOffset/>
<feGaussianBlur stdDeviation="48"/>
<feColorMatrix type="matrix" values="0 0 0 0 0.60915 0 0 0 0 0.428758 0 0 0 0 0.128105 0 0 0 0.230769 0"/>
<feBlend mode="multiply" in2="BackgroundImageFix" result="effect1_dropShadow_84_894"/>
<feBlend mode="normal" in="SourceGraphic" in2="effect1_dropShadow_84_894" result="shape"/>
</filter>
<filter id="filter13_d_84_894" x="-31" y="-19" width="347" height="347" filterUnits="userSpaceOnUse" color-interpolation-filters="sRGB">
<feFlood flood-opacity="0" result="BackgroundImageFix"/>
<feColorMatrix in="SourceAlpha" type="matrix" values="0 0 0 0 0 0 0 0 0 0 0 0 0 0 0 0 0 0 127 0" result="hardAlpha"/>
<feOffset/>
<feGaussianBlur stdDeviation="48"/>
<feColorMatrix type="matrix" values="0 0 0 0 0.60915 0 0 0 0 0.428758 0 0 0 0 0.128105 0 0 0 0.230769 0"/>
<feBlend mode="multiply" in2="BackgroundImageFix" result="effect1_dropShadow_84_894"/>
<feBlend mode="normal" in="SourceGraphic" in2="effect1_dropShadow_84_894" result="shape"/>
</filter>
<filter id="filter14_d_84_894" x="35.3076" y="-4.99231" width="305.385" height="290.992" filterUnits="userSpaceOnUse" color-interpolation-filters="sRGB">
<feFlood flood-opacity="0" result="BackgroundImageFix"/>
<feColorMatrix in="SourceAlpha" type="matrix" values="0 0 0 0 0 0 0 0 0 0 0 0 0 0 0 0 0 0 127 0" result="hardAlpha"/>
<feOffset/>
<feGaussianBlur stdDeviation="48"/>
<feColorMatrix type="matrix" values="0 0 0 0 0.60915 0 0 0 0 0.428758 0 0 0 0 0.128105 0 0 0 0.230769 0"/>
<feBlend mode="multiply" in2="BackgroundImageFix" result="effect1_dropShadow_84_894"/>
<feBlend mode="normal" in="SourceGraphic" in2="effect1_dropShadow_84_894" result="shape"/>
</filter>
<filter id="filter15_d_84_894" x="-67" y="-10" width="261" height="261" filterUnits="userSpaceOnUse" color-interpolation-filters="sRGB">
<feFlood flood-opacity="0" result="BackgroundImageFix"/>
<feColorMatrix in="SourceAlpha" type="matrix" values="0 0 0 0 0 0 0 0 0 0 0 0 0 0 0 0 0 0 127 0" result="hardAlpha"/>
<feOffset/>
<feGaussianBlur stdDeviation="48"/>
<feColorMatrix type="matrix" values="0 0 0 0 0.60915 0 0 0 0 0.428758 0 0 0 0 0.128105 0 0 0 0.230769 0"/>
<feBlend mode="multiply" in2="BackgroundImageFix" result="effect1_dropShadow_84_894"/>
<feBlend mode="normal" in="SourceGraphic" in2="effect1_dropShadow_84_894" result="shape"/>
</filter>
<filter id="filter16_d_84_894" x="-61.9669" y="-70.9942" width="269.934" height="259.494" filterUnits="userSpaceOnUse" color-interpolation-filters="sRGB">
<feFlood flood-opacity="0" result="BackgroundImageFix"/>
<feColorMatrix in="SourceAlpha" type="matrix" values="0 0 0 0 0 0 0 0 0 0 0 0 0 0 0 0 0 0 127 0" result="hardAlpha"/>
<feOffset/>
<feGaussianBlur stdDeviation="48"/>
<feColorMatrix type="matrix" values="0 0 0 0 0.60915 0 0 0 0 0.428758 0 0 0 0 0.128105 0 0 0 0.230769 0"/>
<feBlend mode="multiply" in2="BackgroundImageFix" result="effect1_dropShadow_84_894"/>
<feBlend mode="normal" in="SourceGraphic" in2="effect1_dropShadow_84_894" result="shape"/>
</filter>
<filter id="filter17_d_84_894" x="-1" y="-50.6143" width="259.988" height="227.703" filterUnits="userSpaceOnUse" color-interpolation-filters="sRGB">
<feFlood flood-opacity="0" result="BackgroundImageFix"/>
<feColorMatrix in="SourceAlpha" type="matrix" values="0 0 0 0 0 0 0 0 0 0 0 0 0 0 0 0 0 0 127 0" result="hardAlpha"/>
<feOffset/>
<feGaussianBlur stdDeviation="48"/>
<feColorMatrix type="matrix" values="0 0 0 0 0.60915 0 0 0 0 0.428758 0 0 0 0 0.128105 0 0 0 0.230769 0"/>
<feBlend mode="multiply" in2="BackgroundImageFix" result="effect1_dropShadow_84_894"/>
<feBlend mode="normal" in="SourceGraphic" in2="effect1_dropShadow_84_894" result="shape"/>
</filter>
<clipPath id="clip0_84_894">
<rect width="167" height="170" fill="white"/>
</clipPath>
</defs>
</svg>
