<svg width="227" height="170" viewBox="0 0 227 170" fill="none" xmlns="http://www.w3.org/2000/svg">
<g clip-path="url(#clip0_84_9056)">
<rect width="227" height="170" fill="#9EFFFF"/>
<g filter="url(#filter0_d_84_9056)">
<rect x="36" y="231" width="207" height="207" rx="1.2224" fill="#FFFFDE"/>
</g>
<g filter="url(#filter1_d_84_9056)">
<rect x="-60" y="105" width="48" height="48" rx="4.63446" fill="#BEDBE1"/>
</g>
<g filter="url(#filter2_d_84_9056)">
<rect x="170" y="159" width="217" height="217" rx="1.44772" fill="#B1F0FF"/>
</g>
<g filter="url(#filter3_d_84_9056)">
<line x1="-40.6286" y1="-110.22" x2="-107.245" y2="-23.9454" stroke="#B6FFFB" stroke-width="28.7336"/>
</g>
<g filter="url(#filter4_d_84_9056)">
<line x1="-28.8731" y1="254.226" x2="21.1216" y2="292.561" stroke="#A9FFBE" stroke-width="6.99073"/>
</g>
<g filter="url(#filter5_d_84_9056)">
<path d="M271.273 -108.8C271.332 -108.893 271.468 -108.893 271.527 -108.8L282.403 -91.6779C282.447 -91.6099 282.536 -91.5879 282.606 -91.6281L300.193 -101.734C300.289 -101.789 300.409 -101.726 300.418 -101.616L302.092 -81.4009C302.098 -81.3206 302.167 -81.2598 302.248 -81.2629L322.517 -82.0382C322.628 -82.0424 322.705 -81.9305 322.662 -81.8289L314.749 -63.1515C314.718 -63.0773 314.75 -62.9915 314.823 -62.9568L333.131 -54.2236C333.231 -54.1761 333.247 -54.0411 333.162 -53.9711L317.476 -41.1103C317.413 -41.0592 317.402 -40.9681 317.45 -40.9036L329.603 -24.6625C329.669 -24.5742 329.621 -24.447 329.513 -24.4248L309.647 -20.3267C309.568 -20.3104 309.516 -20.2349 309.528 -20.1553L312.741 -0.127052C312.759 -0.0180969 312.657 0.072052 312.551 0.0415649L293.056 -5.56203C292.979 -5.5843 292.897 -5.54165 292.872 -5.46526L286.409 13.762C286.374 13.8666 286.242 13.8991 286.162 13.8229L271.504 -0.198662C271.446 -0.254364 271.354 -0.254364 271.296 -0.198662L256.638 13.8229C256.558 13.8991 256.426 13.8666 256.391 13.762L249.928 -5.46526C249.903 -5.54165 249.821 -5.5843 249.744 -5.56203L230.249 0.0415649C230.143 0.072052 230.041 -0.0180969 230.059 -0.127052L233.272 -20.1553C233.284 -20.2349 233.232 -20.3104 233.153 -20.3267L213.287 -24.4248C213.179 -24.447 213.131 -24.5742 213.197 -24.6625L225.35 -40.9036C225.398 -40.9681 225.387 -41.0592 225.324 -41.1103L209.638 -53.9711C209.553 -54.0411 209.569 -54.1761 209.669 -54.2236L227.977 -62.9568C228.05 -62.9915 228.082 -63.0773 228.051 -63.1515L220.138 -81.8289C220.095 -81.9305 220.172 -82.0424 220.283 -82.0382L240.552 -81.2629C240.633 -81.2598 240.702 -81.3206 240.708 -81.4009L242.382 -101.616C242.391 -101.726 242.511 -101.789 242.607 -101.734L260.194 -91.6281C260.264 -91.5879 260.353 -91.6099 260.397 -91.6779L271.273 -108.8Z" fill="#DDFFF8"/>
</g>
<g filter="url(#filter6_d_84_9056)">
<circle cx="250.5" cy="122.5" r="83.5" fill="#B7FFFF"/>
</g>
<g filter="url(#filter7_d_84_9056)">
<rect x="-109" y="-35" width="546" height="546" rx="0.950865" fill="#EFFFFF"/>
</g>
<g filter="url(#filter8_d_84_9056)">
<rect x="168" y="12" width="581" height="581" rx="2.80416e-07" fill="#E9BFF7"/>
</g>
<g filter="url(#filter9_d_84_9056)">
<path d="M97.7702 166.13C98.3168 165.183 99.6832 165.183 100.23 166.13L160.99 271.37C161.537 272.317 160.853 273.5 159.76 273.5H38.2398C37.1466 273.5 36.4634 272.317 37.01 271.37L97.7702 166.13Z" fill="#AAFFFF"/>
</g>
<g filter="url(#filter10_d_84_9056)">
<path d="M46.6854 -76.125C47.9363 -78.2917 51.0637 -78.2917 52.3146 -76.125C53.5655 -73.9583 52.0019 -71.25 49.5 -71.25C46.9981 -71.25 45.4345 -73.9583 46.6854 -76.125Z" fill="#FFFFED"/>
</g>
<g filter="url(#filter11_d_84_9056)">
<path d="M278.997 60.0047C278.998 60.0026 279.002 60.0026 279.003 60.0047L298.05 92.9953C298.051 92.9974 298.05 93 298.047 93H259.953C259.95 93 259.949 92.9974 259.95 92.9953L278.997 60.0047Z" fill="#FFF4C9"/>
</g>
<g filter="url(#filter12_d_84_9056)">
<rect x="70" y="104" width="152" height="152" rx="6.58137" fill="#C4BFFF"/>
</g>
<g filter="url(#filter13_d_84_9056)">
<line x1="245.996" y1="119.98" x2="204.431" y2="586.131" stroke="#C7FFFF" stroke-width="22.0794"/>
</g>
<g filter="url(#filter14_d_84_9056)">
<path d="M244.922 48.1971C246.512 45.4428 250.488 45.4428 252.078 48.1971L276.532 90.5529C278.122 93.3072 276.134 96.75 272.954 96.75H224.046C220.865 96.75 218.878 93.3072 220.468 90.5529L244.922 48.1971Z" fill="#FFBDFF"/>
</g>
<g filter="url(#filter15_d_84_9056)">
<path d="M177.58 477.591L90 148.224L69.1617 2.13344C69.0921 1.6454 68.509 1.42894 68.1378 1.75329L-43.2831 99.1005C-43.7524 99.5106 -44.103 100.039 -44.2983 100.631L-60 148.224L-89.8359 273.25C-90.5447 276.22 -89.4495 279.33 -87.0362 281.201L171.519 481.611C174.422 483.861 178.524 481.141 177.58 477.591Z" fill="#C1FFFF"/>
</g>
<g filter="url(#filter16_d_84_9056)">
<rect x="6" y="49" width="112" height="112" rx="0.155557" fill="#B3CFCD"/>
</g>
</g>
<defs>
<filter id="filter0_d_84_9056" x="-60" y="135" width="399" height="399" filterUnits="userSpaceOnUse" color-interpolation-filters="sRGB">
<feFlood flood-opacity="0" result="BackgroundImageFix"/>
<feColorMatrix in="SourceAlpha" type="matrix" values="0 0 0 0 0 0 0 0 0 0 0 0 0 0 0 0 0 0 127 0" result="hardAlpha"/>
<feOffset/>
<feGaussianBlur stdDeviation="48"/>
<feColorMatrix type="matrix" values="0 0 0 0 0.467974 0 0 0 0 0.541176 0 0 0 0 0.535948 0 0 0 0.230769 0"/>
<feBlend mode="multiply" in2="BackgroundImageFix" result="effect1_dropShadow_84_9056"/>
<feBlend mode="normal" in="SourceGraphic" in2="effect1_dropShadow_84_9056" result="shape"/>
</filter>
<filter id="filter1_d_84_9056" x="-156" y="9" width="240" height="240" filterUnits="userSpaceOnUse" color-interpolation-filters="sRGB">
<feFlood flood-opacity="0" result="BackgroundImageFix"/>
<feColorMatrix in="SourceAlpha" type="matrix" values="0 0 0 0 0 0 0 0 0 0 0 0 0 0 0 0 0 0 127 0" result="hardAlpha"/>
<feOffset/>
<feGaussianBlur stdDeviation="48"/>
<feColorMatrix type="matrix" values="0 0 0 0 0.467974 0 0 0 0 0.541176 0 0 0 0 0.535948 0 0 0 0.230769 0"/>
<feBlend mode="multiply" in2="BackgroundImageFix" result="effect1_dropShadow_84_9056"/>
<feBlend mode="normal" in="SourceGraphic" in2="effect1_dropShadow_84_9056" result="shape"/>
</filter>
<filter id="filter2_d_84_9056" x="74" y="63" width="409" height="409" filterUnits="userSpaceOnUse" color-interpolation-filters="sRGB">
<feFlood flood-opacity="0" result="BackgroundImageFix"/>
<feColorMatrix in="SourceAlpha" type="matrix" values="0 0 0 0 0 0 0 0 0 0 0 0 0 0 0 0 0 0 127 0" result="hardAlpha"/>
<feOffset/>
<feGaussianBlur stdDeviation="48"/>
<feColorMatrix type="matrix" values="0 0 0 0 0.467974 0 0 0 0 0.541176 0 0 0 0 0.535948 0 0 0 0.230769 0"/>
<feBlend mode="multiply" in2="BackgroundImageFix" result="effect1_dropShadow_84_9056"/>
<feBlend mode="normal" in="SourceGraphic" in2="effect1_dropShadow_84_9056" result="shape"/>
</filter>
<filter id="filter3_d_84_9056" x="-214.617" y="-215" width="281.359" height="295.835" filterUnits="userSpaceOnUse" color-interpolation-filters="sRGB">
<feFlood flood-opacity="0" result="BackgroundImageFix"/>
<feColorMatrix in="SourceAlpha" type="matrix" values="0 0 0 0 0 0 0 0 0 0 0 0 0 0 0 0 0 0 127 0" result="hardAlpha"/>
<feOffset/>
<feGaussianBlur stdDeviation="48"/>
<feColorMatrix type="matrix" values="0 0 0 0 0.467974 0 0 0 0 0.541176 0 0 0 0 0.535948 0 0 0 0.230769 0"/>
<feBlend mode="multiply" in2="BackgroundImageFix" result="effect1_dropShadow_84_9056"/>
<feBlend mode="normal" in="SourceGraphic" in2="effect1_dropShadow_84_9056" result="shape"/>
</filter>
<filter id="filter4_d_84_9056" x="-127" y="155.452" width="246.248" height="235.882" filterUnits="userSpaceOnUse" color-interpolation-filters="sRGB">
<feFlood flood-opacity="0" result="BackgroundImageFix"/>
<feColorMatrix in="SourceAlpha" type="matrix" values="0 0 0 0 0 0 0 0 0 0 0 0 0 0 0 0 0 0 127 0" result="hardAlpha"/>
<feOffset/>
<feGaussianBlur stdDeviation="48"/>
<feColorMatrix type="matrix" values="0 0 0 0 0.467974 0 0 0 0 0.541176 0 0 0 0 0.535948 0 0 0 0.230769 0"/>
<feBlend mode="multiply" in2="BackgroundImageFix" result="effect1_dropShadow_84_9056"/>
<feBlend mode="normal" in="SourceGraphic" in2="effect1_dropShadow_84_9056" result="shape"/>
</filter>
<filter id="filter5_d_84_9056" x="113.583" y="-204.87" width="315.634" height="314.734" filterUnits="userSpaceOnUse" color-interpolation-filters="sRGB">
<feFlood flood-opacity="0" result="BackgroundImageFix"/>
<feColorMatrix in="SourceAlpha" type="matrix" values="0 0 0 0 0 0 0 0 0 0 0 0 0 0 0 0 0 0 127 0" result="hardAlpha"/>
<feOffset/>
<feGaussianBlur stdDeviation="48"/>
<feColorMatrix type="matrix" values="0 0 0 0 0.467974 0 0 0 0 0.541176 0 0 0 0 0.535948 0 0 0 0.230769 0"/>
<feBlend mode="multiply" in2="BackgroundImageFix" result="effect1_dropShadow_84_9056"/>
<feBlend mode="normal" in="SourceGraphic" in2="effect1_dropShadow_84_9056" result="shape"/>
</filter>
<filter id="filter6_d_84_9056" x="71" y="-57" width="359" height="359" filterUnits="userSpaceOnUse" color-interpolation-filters="sRGB">
<feFlood flood-opacity="0" result="BackgroundImageFix"/>
<feColorMatrix in="SourceAlpha" type="matrix" values="0 0 0 0 0 0 0 0 0 0 0 0 0 0 0 0 0 0 127 0" result="hardAlpha"/>
<feOffset/>
<feGaussianBlur stdDeviation="48"/>
<feColorMatrix type="matrix" values="0 0 0 0 0.467974 0 0 0 0 0.541176 0 0 0 0 0.535948 0 0 0 0.230769 0"/>
<feBlend mode="multiply" in2="BackgroundImageFix" result="effect1_dropShadow_84_9056"/>
<feBlend mode="normal" in="SourceGraphic" in2="effect1_dropShadow_84_9056" result="shape"/>
</filter>
<filter id="filter7_d_84_9056" x="-205" y="-131" width="738" height="738" filterUnits="userSpaceOnUse" color-interpolation-filters="sRGB">
<feFlood flood-opacity="0" result="BackgroundImageFix"/>
<feColorMatrix in="SourceAlpha" type="matrix" values="0 0 0 0 0 0 0 0 0 0 0 0 0 0 0 0 0 0 127 0" result="hardAlpha"/>
<feOffset/>
<feGaussianBlur stdDeviation="48"/>
<feColorMatrix type="matrix" values="0 0 0 0 0.467974 0 0 0 0 0.541176 0 0 0 0 0.535948 0 0 0 0.230769 0"/>
<feBlend mode="multiply" in2="BackgroundImageFix" result="effect1_dropShadow_84_9056"/>
<feBlend mode="normal" in="SourceGraphic" in2="effect1_dropShadow_84_9056" result="shape"/>
</filter>
<filter id="filter8_d_84_9056" x="72" y="-84" width="773" height="773" filterUnits="userSpaceOnUse" color-interpolation-filters="sRGB">
<feFlood flood-opacity="0" result="BackgroundImageFix"/>
<feColorMatrix in="SourceAlpha" type="matrix" values="0 0 0 0 0 0 0 0 0 0 0 0 0 0 0 0 0 0 127 0" result="hardAlpha"/>
<feOffset/>
<feGaussianBlur stdDeviation="48"/>
<feColorMatrix type="matrix" values="0 0 0 0 0.467974 0 0 0 0 0.541176 0 0 0 0 0.535948 0 0 0 0.230769 0"/>
<feBlend mode="multiply" in2="BackgroundImageFix" result="effect1_dropShadow_84_9056"/>
<feBlend mode="normal" in="SourceGraphic" in2="effect1_dropShadow_84_9056" result="shape"/>
</filter>
<filter id="filter9_d_84_9056" x="-59.1824" y="69.4201" width="316.365" height="300.08" filterUnits="userSpaceOnUse" color-interpolation-filters="sRGB">
<feFlood flood-opacity="0" result="BackgroundImageFix"/>
<feColorMatrix in="SourceAlpha" type="matrix" values="0 0 0 0 0 0 0 0 0 0 0 0 0 0 0 0 0 0 127 0" result="hardAlpha"/>
<feOffset/>
<feGaussianBlur stdDeviation="48"/>
<feColorMatrix type="matrix" values="0 0 0 0 0.467974 0 0 0 0 0.541176 0 0 0 0 0.535948 0 0 0 0.230769 0"/>
<feBlend mode="multiply" in2="BackgroundImageFix" result="effect1_dropShadow_84_9056"/>
<feBlend mode="normal" in="SourceGraphic" in2="effect1_dropShadow_84_9056" result="shape"/>
</filter>
<filter id="filter10_d_84_9056" x="-49.7549" y="-173.75" width="198.51" height="198.5" filterUnits="userSpaceOnUse" color-interpolation-filters="sRGB">
<feFlood flood-opacity="0" result="BackgroundImageFix"/>
<feColorMatrix in="SourceAlpha" type="matrix" values="0 0 0 0 0 0 0 0 0 0 0 0 0 0 0 0 0 0 127 0" result="hardAlpha"/>
<feOffset/>
<feGaussianBlur stdDeviation="48"/>
<feColorMatrix type="matrix" values="0 0 0 0 0.467974 0 0 0 0 0.541176 0 0 0 0 0.535948 0 0 0 0.230769 0"/>
<feBlend mode="multiply" in2="BackgroundImageFix" result="effect1_dropShadow_84_9056"/>
<feBlend mode="normal" in="SourceGraphic" in2="effect1_dropShadow_84_9056" result="shape"/>
</filter>
<filter id="filter11_d_84_9056" x="163.95" y="-35.9969" width="230.101" height="224.997" filterUnits="userSpaceOnUse" color-interpolation-filters="sRGB">
<feFlood flood-opacity="0" result="BackgroundImageFix"/>
<feColorMatrix in="SourceAlpha" type="matrix" values="0 0 0 0 0 0 0 0 0 0 0 0 0 0 0 0 0 0 127 0" result="hardAlpha"/>
<feOffset/>
<feGaussianBlur stdDeviation="48"/>
<feColorMatrix type="matrix" values="0 0 0 0 0.467974 0 0 0 0 0.541176 0 0 0 0 0.535948 0 0 0 0.230769 0"/>
<feBlend mode="multiply" in2="BackgroundImageFix" result="effect1_dropShadow_84_9056"/>
<feBlend mode="normal" in="SourceGraphic" in2="effect1_dropShadow_84_9056" result="shape"/>
</filter>
<filter id="filter12_d_84_9056" x="-26" y="8" width="344" height="344" filterUnits="userSpaceOnUse" color-interpolation-filters="sRGB">
<feFlood flood-opacity="0" result="BackgroundImageFix"/>
<feColorMatrix in="SourceAlpha" type="matrix" values="0 0 0 0 0 0 0 0 0 0 0 0 0 0 0 0 0 0 127 0" result="hardAlpha"/>
<feOffset/>
<feGaussianBlur stdDeviation="48"/>
<feColorMatrix type="matrix" values="0 0 0 0 0.467974 0 0 0 0 0.541176 0 0 0 0 0.535948 0 0 0 0.230769 0"/>
<feBlend mode="multiply" in2="BackgroundImageFix" result="effect1_dropShadow_84_9056"/>
<feBlend mode="normal" in="SourceGraphic" in2="effect1_dropShadow_84_9056" result="shape"/>
</filter>
<filter id="filter13_d_84_9056" x="97.4354" y="23" width="255.557" height="660.112" filterUnits="userSpaceOnUse" color-interpolation-filters="sRGB">
<feFlood flood-opacity="0" result="BackgroundImageFix"/>
<feColorMatrix in="SourceAlpha" type="matrix" values="0 0 0 0 0 0 0 0 0 0 0 0 0 0 0 0 0 0 127 0" result="hardAlpha"/>
<feOffset/>
<feGaussianBlur stdDeviation="48"/>
<feColorMatrix type="matrix" values="0 0 0 0 0.467974 0 0 0 0 0.541176 0 0 0 0 0.535948 0 0 0 0.230769 0"/>
<feBlend mode="multiply" in2="BackgroundImageFix" result="effect1_dropShadow_84_9056"/>
<feBlend mode="normal" in="SourceGraphic" in2="effect1_dropShadow_84_9056" result="shape"/>
</filter>
<filter id="filter14_d_84_9056" x="123.908" y="-49.8686" width="249.183" height="242.619" filterUnits="userSpaceOnUse" color-interpolation-filters="sRGB">
<feFlood flood-opacity="0" result="BackgroundImageFix"/>
<feColorMatrix in="SourceAlpha" type="matrix" values="0 0 0 0 0 0 0 0 0 0 0 0 0 0 0 0 0 0 127 0" result="hardAlpha"/>
<feOffset/>
<feGaussianBlur stdDeviation="48"/>
<feColorMatrix type="matrix" values="0 0 0 0 0.467974 0 0 0 0 0.541176 0 0 0 0 0.535948 0 0 0 0.230769 0"/>
<feBlend mode="multiply" in2="BackgroundImageFix" result="effect1_dropShadow_84_9056"/>
<feBlend mode="normal" in="SourceGraphic" in2="effect1_dropShadow_84_9056" result="shape"/>
</filter>
<filter id="filter15_d_84_9056" x="-186.049" y="-94.4008" width="459.767" height="672.832" filterUnits="userSpaceOnUse" color-interpolation-filters="sRGB">
<feFlood flood-opacity="0" result="BackgroundImageFix"/>
<feColorMatrix in="SourceAlpha" type="matrix" values="0 0 0 0 0 0 0 0 0 0 0 0 0 0 0 0 0 0 127 0" result="hardAlpha"/>
<feOffset/>
<feGaussianBlur stdDeviation="48"/>
<feColorMatrix type="matrix" values="0 0 0 0 0.467974 0 0 0 0 0.541176 0 0 0 0 0.535948 0 0 0 0.230769 0"/>
<feBlend mode="multiply" in2="BackgroundImageFix" result="effect1_dropShadow_84_9056"/>
<feBlend mode="normal" in="SourceGraphic" in2="effect1_dropShadow_84_9056" result="shape"/>
</filter>
<filter id="filter16_d_84_9056" x="-90" y="-47" width="304" height="304" filterUnits="userSpaceOnUse" color-interpolation-filters="sRGB">
<feFlood flood-opacity="0" result="BackgroundImageFix"/>
<feColorMatrix in="SourceAlpha" type="matrix" values="0 0 0 0 0 0 0 0 0 0 0 0 0 0 0 0 0 0 127 0" result="hardAlpha"/>
<feOffset/>
<feGaussianBlur stdDeviation="48"/>
<feColorMatrix type="matrix" values="0 0 0 0 0.467974 0 0 0 0 0.541176 0 0 0 0 0.535948 0 0 0 0.230769 0"/>
<feBlend mode="multiply" in2="BackgroundImageFix" result="effect1_dropShadow_84_9056"/>
<feBlend mode="normal" in="SourceGraphic" in2="effect1_dropShadow_84_9056" result="shape"/>
</filter>
<clipPath id="clip0_84_9056">
<rect width="227" height="170" fill="white"/>
</clipPath>
</defs>
</svg>
