<svg width="330" height="170" viewBox="0 0 330 170" fill="none" xmlns="http://www.w3.org/2000/svg">
<g clip-path="url(#clip0_84_11344)">
<rect width="330" height="170" fill="#EC9899"/>
<g filter="url(#filter0_d_84_11344)">
<path d="M170.247 176.774L215.097 166.192C283.963 149.944 271.656 48.4724 200.903 49.1583C198.473 49.1819 196.224 50.4482 194.944 52.514L142.144 137.732C129.924 157.455 147.665 182.102 170.247 176.774Z" fill="#FF8399"/>
</g>
<g filter="url(#filter1_d_84_11344)">
<path d="M171.134 122.371L212.404 163.51C245.555 196.554 302.111 180.273 312.617 134.661C319.742 103.729 294.768 74.7844 263.126 77.3019L204.362 81.9774C193.139 82.8704 182.637 76.37 178.43 65.9268L166.341 35.915C160.43 21.2393 143.482 14.4466 129.071 20.9774C89.9064 38.7263 93.7149 95.5516 134.898 107.916L159.057 115.169C163.615 116.537 167.764 119.011 171.134 122.371Z" fill="#F6A086"/>
</g>
<g filter="url(#filter2_d_84_11344)">
<path d="M288.366 227.703L292.92 223.62C338.015 183.193 338.529 112.728 294.029 71.6472C283.842 62.2423 271.443 55.5647 257.984 52.2344L255.481 51.6153C199.469 37.7557 142.288 69.6286 124.619 124.559L123.301 128.656C119.168 141.505 118.354 155.192 120.935 168.44C133.204 231.422 199.524 267.909 259.29 244.559L263.907 242.755C272.896 239.243 281.18 234.145 288.366 227.703Z" fill="#E8ACAC"/>
</g>
<g filter="url(#filter3_d_84_11344)">
<path d="M65.2322 142.698L69.4634 139.665C80.2672 131.922 80.6752 115.998 70.2822 107.711L68.877 106.591C53.0489 93.9713 29.7423 105.988 30.8433 126.202C31.7771 143.346 51.2763 152.7 65.2322 142.698Z" fill="#FFAEA0"/>
</g>
<g filter="url(#filter4_d_84_11344)">
<path d="M78.8924 150.041L82.5047 174.493C86.5558 201.916 117.139 216.458 140.966 202.291C179.668 179.278 173.738 121.511 131.168 106.842L124.206 104.442C106.325 98.2811 86.9961 108.708 82.3248 127.034L79.5084 138.083C78.5127 141.989 78.3034 146.053 78.8924 150.041Z" fill="#EAAAB4"/>
</g>
<g filter="url(#filter5_d_84_11344)">
<path d="M118.761 203.472L125.886 190.714C138.824 167.545 137.549 139.052 122.592 117.132L115.463 106.683C114.824 105.748 114.051 104.912 113.168 104.203C95.6801 90.1665 72.1804 111.837 84.7571 130.403L97.4732 149.174C99.0006 151.428 99.0081 154.384 97.4922 156.647L83.4413 177.618C69.4309 198.529 95.6605 222.864 115.464 207.328C116.808 206.274 117.929 204.964 118.761 203.472Z" fill="#FF8EAA"/>
</g>
<g filter="url(#filter6_d_84_11344)">
<path d="M205.195 42.7694L151.366 112.485C132.892 136.412 133.067 170.005 151.561 193.917C237.035 304.433 415.026 252.921 425.387 113.593C427.781 81.4037 408.321 51.5985 377.887 40.8425L297.776 12.5292C278.835 5.83492 257.93 7.60121 240.381 17.3787L224.246 26.3679C216.85 30.4884 210.369 36.0684 205.195 42.7694Z" fill="#F495A8"/>
</g>
<path d="M608.618 318.269L634.696 229.001C639.389 212.937 637.804 195.689 630.262 180.749L605.568 131.837C596.409 113.694 576.115 104.069 556.27 108.455L546.252 110.67C420.668 138.428 407.827 312.415 527.976 358.308C561.391 371.072 598.588 352.604 608.618 318.269Z" fill="#FFAD8F"/>
<g filter="url(#filter8_d_84_11344)">
<path d="M239.626 110.894L260.22 109.139C296.183 106.076 312.196 62.4075 286.738 36.8218C276.604 26.6375 261.337 23.5537 248.045 29.0064L194 51.1769L147.263 67.4796C104.196 82.5019 93.7108 138.608 128.445 168.171C148.645 185.363 179.233 181.579 194.635 159.983L222.808 120.481C226.736 114.973 232.885 111.468 239.626 110.894Z" fill="#FF8187"/>
</g>
<g filter="url(#filter9_d_84_11344)">
<path d="M342.539 127.66L343.565 120.945C345.105 110.861 342.002 100.622 335.124 93.0885L306.03 61.223C280.003 32.7174 238.172 25.0452 203.723 42.4589L120.942 84.3039C97.4118 96.1984 86.1292 123.522 94.4122 148.553C136.695 276.33 322.219 260.709 342.539 127.66Z" fill="#FFA19C"/>
</g>
<g filter="url(#filter10_d_84_11344)">
<path d="M148.007 286.423L155.928 286.868C179.791 288.21 202.808 277.83 217.6 259.058C256.025 210.293 228.567 138.167 167.441 127.301L138.55 122.164C134.209 121.393 129.776 121.296 125.406 121.879L121.76 122.364C107.503 124.264 94.5754 131.727 85.8014 143.125L84.9892 144.18C81.3594 148.896 78.6078 154.226 76.866 159.916L71.6642 176.909C55.5543 229.536 93.0559 283.332 148.007 286.423Z" fill="#FD8EB2"/>
</g>
<path d="M359.385 532.865L462.353 526.796C570.087 520.446 607.747 380.623 517.776 321.023C401.811 244.204 259.496 371.752 323.203 495.406L335.483 519.24C340.053 528.111 349.424 533.452 359.385 532.865Z" fill="#FF83BA"/>
<g filter="url(#filter12_d_84_11344)">
<path d="M246.968 329.648L248.291 324.332C256.374 291.849 234.213 259.615 200.989 255.531L190.944 254.296C187.81 253.911 185.006 252.16 183.284 249.513L176.037 238.369C158.521 211.435 116.732 229.118 123.869 260.445C124.286 262.275 124.35 264.167 124.058 266.021L119.659 293.957C111.974 342.766 156.429 383.68 204.434 371.978C225.379 366.872 241.761 350.568 246.968 329.648Z" fill="#F98094"/>
</g>
<g filter="url(#filter13_d_84_11344)">
<path d="M267.162 243.136L297.812 221.135C338.884 191.654 355.774 138.735 339.376 90.9116L337.185 84.5212C320.011 34.4351 273.013 0.710416 220.064 0.478241C157.596 0.20432 104.541 46.1464 95.8822 108.013L91.3144 140.648C88.5027 160.736 91.7745 181.206 100.708 199.418L103.167 204.43C126.358 251.708 180.62 274.939 230.837 259.089L242.898 255.283C251.578 252.543 259.767 248.443 267.162 243.136Z" fill="#FC76A8"/>
</g>
<g filter="url(#filter14_d_84_11344)">
<path d="M78.2745 165.535L105.045 278.781C108.425 293.079 122.093 302.486 136.656 300.538C241.14 286.56 252.015 139.667 150.728 110.455L139.501 107.217C103.503 96.8351 69.6555 129.075 78.2745 165.535Z" fill="#FF8C9A"/>
</g>
<g filter="url(#filter15_d_84_11344)">
<path d="M222.754 255.046L203.744 222.698C202.579 220.715 199.669 220.846 198.687 222.925C197.797 224.808 195.131 224.843 194.193 222.984L179.854 194.577C157.374 150.041 92.4587 154.233 75.8925 201.29C72.0842 212.108 72.1747 223.916 76.1483 234.674L97.4427 292.326C110.928 328.837 150.636 348.4 187.803 336.846L191.57 335.675C225.514 325.122 240.764 285.693 222.754 255.046Z" fill="#FFA9A1"/>
</g>
<g filter="url(#filter16_d_84_11344)">
<path d="M67.3784 292.192L68.3182 289.256C69.4106 285.842 69.3819 282.168 68.2361 278.771L67.1091 275.431C56.1693 243.002 8.44192 249.806 7 284C8.38298 318.574 56.8325 325.148 67.3784 292.192Z" fill="#FF78A2"/>
</g>
<g filter="url(#filter17_d_84_11344)">
<path d="M291.61 196.665L290.935 195.414C288.48 190.87 288.49 185.393 290.961 180.857L295.504 172.516C314.617 137.425 290.243 94.4641 250.316 92.8706C236.297 92.3112 222.484 97.187 211.858 106.348C169.168 143.153 180.491 212.701 233.057 233.045L253.5 240.956C280.51 250.677 305.252 221.922 291.61 196.665Z" fill="#FE77B3"/>
</g>
<g filter="url(#filter18_d_84_11344)">
<path d="M156.666 132.474L181.779 113.513C183.564 112.166 185.662 111.295 187.876 110.983C246.927 102.667 243.844 16.3727 184.35 12.2927L166.733 11.0845C165.914 11.0284 165.091 11.0698 164.282 11.208L134.038 16.3727C131.35 16.8317 128.698 17.4865 126.106 18.3319L76.9536 34.3571C57.9644 40.5482 45.241 58.4089 45.5939 78.3787C46.5951 135.028 111.448 166.613 156.666 132.474Z" fill="#FFA0B4"/>
</g>
<g filter="url(#filter19_d_84_11344)">
<path d="M143.53 185.441L144.882 189.602C150.752 207.666 174.943 210.857 185.296 194.932C190.243 187.322 189.987 177.45 184.652 170.106L161.806 138.662C159.53 135.53 156.167 133.36 152.375 132.577C126.987 127.337 112.379 160.407 133.352 175.645L139.835 180.355C141.573 181.618 142.867 183.398 143.53 185.441Z" fill="#FFA59C"/>
</g>
<g filter="url(#filter20_d_84_11344)">
<path d="M579.072 79.7139L582.648 78.0734C599.745 70.2299 592.98 44.5075 574.236 46.0911L553.935 47.8063C552.347 47.9405 552.07 50.1488 553.577 50.6705C555.035 51.1756 554.633 53.3383 553.091 53.2859L103 38L516.07 86.3761C521.668 87.0318 527.327 86.9939 532.916 86.2633L575.785 80.6595C576.922 80.5108 578.03 80.1921 579.072 79.7139Z" fill="#FF9989"/>
</g>
<g filter="url(#filter21_d_84_11344)">
<path d="M105.579 331.549L150.975 327.877C188.661 324.829 208.831 282.045 187.203 251.033C155.27 205.247 83.8787 221.262 74.5643 276.302L71.154 296.454C68.7633 310.581 77.0253 324.342 90.6176 328.873L94.6901 330.23C98.1939 331.398 101.898 331.847 105.579 331.549Z" fill="#EB9F9D"/>
</g>
<g filter="url(#filter22_d_84_11344)">
<path d="M226.944 206.093L227.513 204.106C231.158 191.381 230.154 177.774 224.683 165.721L220.787 157.137C198.818 108.741 134.884 97.8986 98.1876 136.345C89.9687 144.955 85.2027 156.287 84.7967 168.184L83.5537 204.61C83.1967 215.072 86.6365 225.311 93.2383 233.435C132.474 281.72 209.814 265.904 226.944 206.093Z" fill="#FF7EA7"/>
</g>
<g filter="url(#filter23_d_84_11344)">
<path d="M115.503 122.763L277 103L114.697 117.705C114.566 117.716 114.437 117.745 114.314 117.79C111.434 118.834 112.463 123.135 115.503 122.763Z" fill="#FF838E"/>
</g>
<g filter="url(#filter24_d_84_11344)">
<path d="M103.923 78.571L101.309 79.906C88.4348 86.4801 91.854 105.744 106.152 107.874C106.712 107.957 107.285 107.979 107.85 107.937C125.114 106.651 127.126 82.1386 110.352 77.8559C108.195 77.3052 105.906 77.5585 103.923 78.571Z" fill="#F978B0"/>
</g>
<g filter="url(#filter25_d_84_11344)">
<path d="M220.105 272.52L263.839 263.454C376.52 240.095 387.426 83.4245 279.07 44.6787C254.466 35.881 227.274 47.8275 217.111 71.8996L176.456 168.196C175.138 171.318 173.127 174.098 170.574 176.326C132.393 209.654 155.428 272.511 206.103 273.276L211.311 273.354C214.264 273.399 217.213 273.119 220.105 272.52Z" fill="#E890B9"/>
</g>
<g filter="url(#filter26_d_84_11344)">
<path d="M179.61 139.435L186.835 148.626C215.687 185.329 274.444 169.751 281.324 123.575C282.566 115.237 280.714 106.732 276.118 99.6648L248.457 57.1325C243.421 49.3876 235.446 44.029 226.372 42.2923C177.34 32.9078 142.224 88.5051 171.765 128.748L179.61 139.435Z" fill="#FF90AB"/>
</g>
<g filter="url(#filter27_d_84_11344)">
<path d="M418.268 463.922L413.489 446.465C411.523 439.28 411.228 431.74 412.629 424.423L440.857 277.003C459.152 181.456 386.413 92.6824 289.134 91.8336C184.182 90.9178 107.835 191.157 136.608 292.092L175.494 428.506C176.829 433.191 177.784 437.975 178.349 442.813L192.03 559.899C193.619 573.494 200.248 585.999 210.608 594.945C306.549 677.784 451.733 586.181 418.268 463.922Z" fill="#E992AB"/>
</g>
<g filter="url(#filter28_d_84_11344)">
<path d="M142.014 119.91L128.184 270.671C124.682 308.849 160.648 338.824 197.784 329.299C329.074 295.624 327.773 106.176 194.716 80.3561C168.905 75.3476 144.415 93.7274 142.014 119.91Z" fill="#FF8A9E"/>
</g>
<path d="M575 458.349L585.849 457.289C683.512 447.745 695.943 310.263 601.576 283.355L585.368 276.77C470.054 229.917 371.246 371.929 455.263 463.765C463.458 472.722 475.695 476.818 487.631 474.598L575 458.349Z" fill="#FF9B86"/>
<g filter="url(#filter30_d_84_11344)">
<path d="M177.383 240.037L219.768 226.059C278.524 206.683 299.512 134.355 260.254 86.5373C232.687 52.9588 183.894 46.3099 148.348 71.2879L89.7265 112.48C79.52 119.652 71.8795 129.904 67.9248 141.735C47.4048 203.124 104.738 262.082 166.676 243.286L177.383 240.037Z" fill="#E98BBC"/>
</g>
<g filter="url(#filter31_d_84_11344)">
<path d="M184.929 182.643L220.588 205.679C249.781 224.538 288.894 213.618 304.096 182.365C317.718 154.361 305.453 120.642 277.023 107.935L245.744 93.9534C239.303 91.0745 232.387 89.4084 225.342 89.0387L192.768 87.329C188.636 87.1121 184.506 87.7758 180.651 89.2761C140.44 104.924 138.828 161.227 178.078 179.149L180.911 180.443C182.302 181.078 183.645 181.813 184.929 182.643Z" fill="#FF89A9"/>
</g>
</g>
<defs>
<filter id="filter0_d_84_11344" x="42.1594" y="-46.8452" width="314.667" height="320.356" filterUnits="userSpaceOnUse" color-interpolation-filters="sRGB">
<feFlood flood-opacity="0" result="BackgroundImageFix"/>
<feColorMatrix in="SourceAlpha" type="matrix" values="0 0 0 0 0 0 0 0 0 0 0 0 0 0 0 0 0 0 127 0" result="hardAlpha"/>
<feOffset/>
<feGaussianBlur stdDeviation="48"/>
<feColorMatrix type="matrix" values="0 0 0 0 0.666667 0 0 0 0 0.373856 0 0 0 0 0.413072 0 0 0 0.230769 0"/>
<feBlend mode="multiply" in2="BackgroundImageFix" result="effect1_dropShadow_84_11344"/>
<feBlend mode="normal" in="SourceGraphic" in2="effect1_dropShadow_84_11344" result="shape"/>
</filter>
<filter id="filter1_d_84_11344" x="5.74585" y="-77.5103" width="404.095" height="354.464" filterUnits="userSpaceOnUse" color-interpolation-filters="sRGB">
<feFlood flood-opacity="0" result="BackgroundImageFix"/>
<feColorMatrix in="SourceAlpha" type="matrix" values="0 0 0 0 0 0 0 0 0 0 0 0 0 0 0 0 0 0 127 0" result="hardAlpha"/>
<feOffset/>
<feGaussianBlur stdDeviation="48"/>
<feColorMatrix type="matrix" values="0 0 0 0 0.666667 0 0 0 0 0.373856 0 0 0 0 0.413072 0 0 0 0.230769 0"/>
<feBlend mode="multiply" in2="BackgroundImageFix" result="effect1_dropShadow_84_11344"/>
<feBlend mode="normal" in="SourceGraphic" in2="effect1_dropShadow_84_11344" result="shape"/>
</filter>
<filter id="filter2_d_84_11344" x="23.4587" y="-47.6186" width="399.617" height="395.281" filterUnits="userSpaceOnUse" color-interpolation-filters="sRGB">
<feFlood flood-opacity="0" result="BackgroundImageFix"/>
<feColorMatrix in="SourceAlpha" type="matrix" values="0 0 0 0 0 0 0 0 0 0 0 0 0 0 0 0 0 0 127 0" result="hardAlpha"/>
<feOffset/>
<feGaussianBlur stdDeviation="48"/>
<feColorMatrix type="matrix" values="0 0 0 0 0.666667 0 0 0 0 0.373856 0 0 0 0 0.413072 0 0 0 0.230769 0"/>
<feBlend mode="multiply" in2="BackgroundImageFix" result="effect1_dropShadow_84_11344"/>
<feBlend mode="normal" in="SourceGraphic" in2="effect1_dropShadow_84_11344" result="shape"/>
</filter>
<filter id="filter3_d_84_11344" x="-65.1943" y="5.42365" width="239.023" height="237.377" filterUnits="userSpaceOnUse" color-interpolation-filters="sRGB">
<feFlood flood-opacity="0" result="BackgroundImageFix"/>
<feColorMatrix in="SourceAlpha" type="matrix" values="0 0 0 0 0 0 0 0 0 0 0 0 0 0 0 0 0 0 127 0" result="hardAlpha"/>
<feOffset/>
<feGaussianBlur stdDeviation="48"/>
<feColorMatrix type="matrix" values="0 0 0 0 0.666667 0 0 0 0 0.373856 0 0 0 0 0.413072 0 0 0 0.230769 0"/>
<feBlend mode="multiply" in2="BackgroundImageFix" result="effect1_dropShadow_84_11344"/>
<feBlend mode="normal" in="SourceGraphic" in2="effect1_dropShadow_84_11344" result="shape"/>
</filter>
<filter id="filter4_d_84_11344" x="-17.4341" y="6.66583" width="280.262" height="297.134" filterUnits="userSpaceOnUse" color-interpolation-filters="sRGB">
<feFlood flood-opacity="0" result="BackgroundImageFix"/>
<feColorMatrix in="SourceAlpha" type="matrix" values="0 0 0 0 0 0 0 0 0 0 0 0 0 0 0 0 0 0 127 0" result="hardAlpha"/>
<feOffset/>
<feGaussianBlur stdDeviation="48"/>
<feColorMatrix type="matrix" values="0 0 0 0 0.666667 0 0 0 0 0.373856 0 0 0 0 0.413072 0 0 0 0.230769 0"/>
<feBlend mode="multiply" in2="BackgroundImageFix" result="effect1_dropShadow_84_11344"/>
<feBlend mode="normal" in="SourceGraphic" in2="effect1_dropShadow_84_11344" result="shape"/>
</filter>
<filter id="filter5_d_84_11344" x="-16.5106" y="3.70923" width="247.28" height="304.544" filterUnits="userSpaceOnUse" color-interpolation-filters="sRGB">
<feFlood flood-opacity="0" result="BackgroundImageFix"/>
<feColorMatrix in="SourceAlpha" type="matrix" values="0 0 0 0 0 0 0 0 0 0 0 0 0 0 0 0 0 0 127 0" result="hardAlpha"/>
<feOffset/>
<feGaussianBlur stdDeviation="48"/>
<feColorMatrix type="matrix" values="0 0 0 0 0.666667 0 0 0 0 0.373856 0 0 0 0 0.413072 0 0 0 0.230769 0"/>
<feBlend mode="multiply" in2="BackgroundImageFix" result="effect1_dropShadow_84_11344"/>
<feBlend mode="normal" in="SourceGraphic" in2="effect1_dropShadow_84_11344" result="shape"/>
</filter>
<filter id="filter6_d_84_11344" x="41.6003" y="-87.4716" width="479.985" height="437.279" filterUnits="userSpaceOnUse" color-interpolation-filters="sRGB">
<feFlood flood-opacity="0" result="BackgroundImageFix"/>
<feColorMatrix in="SourceAlpha" type="matrix" values="0 0 0 0 0 0 0 0 0 0 0 0 0 0 0 0 0 0 127 0" result="hardAlpha"/>
<feOffset/>
<feGaussianBlur stdDeviation="48"/>
<feColorMatrix type="matrix" values="0 0 0 0 0.666667 0 0 0 0 0.373856 0 0 0 0 0.413072 0 0 0 0.230769 0"/>
<feBlend mode="multiply" in2="BackgroundImageFix" result="effect1_dropShadow_84_11344"/>
<feBlend mode="normal" in="SourceGraphic" in2="effect1_dropShadow_84_11344" result="shape"/>
</filter>
<filter id="filter8_d_84_11344" x="11.6542" y="-69.6545" width="383.516" height="344.622" filterUnits="userSpaceOnUse" color-interpolation-filters="sRGB">
<feFlood flood-opacity="0" result="BackgroundImageFix"/>
<feColorMatrix in="SourceAlpha" type="matrix" values="0 0 0 0 0 0 0 0 0 0 0 0 0 0 0 0 0 0 127 0" result="hardAlpha"/>
<feOffset/>
<feGaussianBlur stdDeviation="48"/>
<feColorMatrix type="matrix" values="0 0 0 0 0.666667 0 0 0 0 0.373856 0 0 0 0 0.413072 0 0 0 0.230769 0"/>
<feBlend mode="multiply" in2="BackgroundImageFix" result="effect1_dropShadow_84_11344"/>
<feBlend mode="normal" in="SourceGraphic" in2="effect1_dropShadow_84_11344" result="shape"/>
</filter>
<filter id="filter9_d_84_11344" x="-4.29163" y="-62.7932" width="444.244" height="395.188" filterUnits="userSpaceOnUse" color-interpolation-filters="sRGB">
<feFlood flood-opacity="0" result="BackgroundImageFix"/>
<feColorMatrix in="SourceAlpha" type="matrix" values="0 0 0 0 0 0 0 0 0 0 0 0 0 0 0 0 0 0 127 0" result="hardAlpha"/>
<feOffset/>
<feGaussianBlur stdDeviation="48"/>
<feColorMatrix type="matrix" values="0 0 0 0 0.666667 0 0 0 0 0.373856 0 0 0 0 0.413072 0 0 0 0.230769 0"/>
<feBlend mode="multiply" in2="BackgroundImageFix" result="effect1_dropShadow_84_11344"/>
<feBlend mode="normal" in="SourceGraphic" in2="effect1_dropShadow_84_11344" result="shape"/>
</filter>
<filter id="filter10_d_84_11344" x="-28.0995" y="25.5037" width="359.406" height="357.48" filterUnits="userSpaceOnUse" color-interpolation-filters="sRGB">
<feFlood flood-opacity="0" result="BackgroundImageFix"/>
<feColorMatrix in="SourceAlpha" type="matrix" values="0 0 0 0 0 0 0 0 0 0 0 0 0 0 0 0 0 0 127 0" result="hardAlpha"/>
<feOffset/>
<feGaussianBlur stdDeviation="48"/>
<feColorMatrix type="matrix" values="0 0 0 0 0.666667 0 0 0 0 0.373856 0 0 0 0 0.413072 0 0 0 0.230769 0"/>
<feBlend mode="multiply" in2="BackgroundImageFix" result="effect1_dropShadow_84_11344"/>
<feBlend mode="normal" in="SourceGraphic" in2="effect1_dropShadow_84_11344" result="shape"/>
</filter>
<filter id="filter12_d_84_11344" x="22.7892" y="129.152" width="323.171" height="340.844" filterUnits="userSpaceOnUse" color-interpolation-filters="sRGB">
<feFlood flood-opacity="0" result="BackgroundImageFix"/>
<feColorMatrix in="SourceAlpha" type="matrix" values="0 0 0 0 0 0 0 0 0 0 0 0 0 0 0 0 0 0 127 0" result="hardAlpha"/>
<feOffset/>
<feGaussianBlur stdDeviation="48"/>
<feColorMatrix type="matrix" values="0 0 0 0 0.666667 0 0 0 0 0.373856 0 0 0 0 0.413072 0 0 0 0.230769 0"/>
<feBlend mode="multiply" in2="BackgroundImageFix" result="effect1_dropShadow_84_11344"/>
<feBlend mode="normal" in="SourceGraphic" in2="effect1_dropShadow_84_11344" result="shape"/>
</filter>
<filter id="filter13_d_84_11344" x="-5.66553" y="-95.5229" width="447.244" height="455.567" filterUnits="userSpaceOnUse" color-interpolation-filters="sRGB">
<feFlood flood-opacity="0" result="BackgroundImageFix"/>
<feColorMatrix in="SourceAlpha" type="matrix" values="0 0 0 0 0 0 0 0 0 0 0 0 0 0 0 0 0 0 127 0" result="hardAlpha"/>
<feOffset/>
<feGaussianBlur stdDeviation="48"/>
<feColorMatrix type="matrix" values="0 0 0 0 0.666667 0 0 0 0 0.373856 0 0 0 0 0.413072 0 0 0 0.230769 0"/>
<feBlend mode="multiply" in2="BackgroundImageFix" result="effect1_dropShadow_84_11344"/>
<feBlend mode="normal" in="SourceGraphic" in2="effect1_dropShadow_84_11344" result="shape"/>
</filter>
<filter id="filter14_d_84_11344" x="-19.083" y="9.24463" width="336.222" height="387.548" filterUnits="userSpaceOnUse" color-interpolation-filters="sRGB">
<feFlood flood-opacity="0" result="BackgroundImageFix"/>
<feColorMatrix in="SourceAlpha" type="matrix" values="0 0 0 0 0 0 0 0 0 0 0 0 0 0 0 0 0 0 127 0" result="hardAlpha"/>
<feOffset/>
<feGaussianBlur stdDeviation="48"/>
<feColorMatrix type="matrix" values="0 0 0 0 0.666667 0 0 0 0 0.373856 0 0 0 0 0.413072 0 0 0 0.230769 0"/>
<feBlend mode="multiply" in2="BackgroundImageFix" result="effect1_dropShadow_84_11344"/>
<feBlend mode="normal" in="SourceGraphic" in2="effect1_dropShadow_84_11344" result="shape"/>
</filter>
<filter id="filter15_d_84_11344" x="-22.8993" y="67.4647" width="349.286" height="368.696" filterUnits="userSpaceOnUse" color-interpolation-filters="sRGB">
<feFlood flood-opacity="0" result="BackgroundImageFix"/>
<feColorMatrix in="SourceAlpha" type="matrix" values="0 0 0 0 0 0 0 0 0 0 0 0 0 0 0 0 0 0 127 0" result="hardAlpha"/>
<feOffset/>
<feGaussianBlur stdDeviation="48"/>
<feColorMatrix type="matrix" values="0 0 0 0 0.666667 0 0 0 0 0.373856 0 0 0 0 0.413072 0 0 0 0.230769 0"/>
<feBlend mode="multiply" in2="BackgroundImageFix" result="effect1_dropShadow_84_11344"/>
<feBlend mode="normal" in="SourceGraphic" in2="effect1_dropShadow_84_11344" result="shape"/>
</filter>
<filter id="filter16_d_84_11344" x="-89" y="158.401" width="254.117" height="251.32" filterUnits="userSpaceOnUse" color-interpolation-filters="sRGB">
<feFlood flood-opacity="0" result="BackgroundImageFix"/>
<feColorMatrix in="SourceAlpha" type="matrix" values="0 0 0 0 0 0 0 0 0 0 0 0 0 0 0 0 0 0 127 0" result="hardAlpha"/>
<feOffset/>
<feGaussianBlur stdDeviation="48"/>
<feColorMatrix type="matrix" values="0 0 0 0 0.666667 0 0 0 0 0.373856 0 0 0 0 0.413072 0 0 0 0.230769 0"/>
<feBlend mode="multiply" in2="BackgroundImageFix" result="effect1_dropShadow_84_11344"/>
<feBlend mode="normal" in="SourceGraphic" in2="effect1_dropShadow_84_11344" result="shape"/>
</filter>
<filter id="filter17_d_84_11344" x="89.7032" y="-3.17273" width="308.434" height="342.066" filterUnits="userSpaceOnUse" color-interpolation-filters="sRGB">
<feFlood flood-opacity="0" result="BackgroundImageFix"/>
<feColorMatrix in="SourceAlpha" type="matrix" values="0 0 0 0 0 0 0 0 0 0 0 0 0 0 0 0 0 0 127 0" result="hardAlpha"/>
<feOffset/>
<feGaussianBlur stdDeviation="48"/>
<feColorMatrix type="matrix" values="0 0 0 0 0.666667 0 0 0 0 0.373856 0 0 0 0 0.413072 0 0 0 0.230769 0"/>
<feBlend mode="multiply" in2="BackgroundImageFix" result="effect1_dropShadow_84_11344"/>
<feBlend mode="normal" in="SourceGraphic" in2="effect1_dropShadow_84_11344" result="shape"/>
</filter>
<filter id="filter18_d_84_11344" x="-50.4132" y="-84.9397" width="377.015" height="327.529" filterUnits="userSpaceOnUse" color-interpolation-filters="sRGB">
<feFlood flood-opacity="0" result="BackgroundImageFix"/>
<feColorMatrix in="SourceAlpha" type="matrix" values="0 0 0 0 0 0 0 0 0 0 0 0 0 0 0 0 0 0 127 0" result="hardAlpha"/>
<feOffset/>
<feGaussianBlur stdDeviation="48"/>
<feColorMatrix type="matrix" values="0 0 0 0 0.666667 0 0 0 0 0.373856 0 0 0 0 0.413072 0 0 0 0.230769 0"/>
<feBlend mode="multiply" in2="BackgroundImageFix" result="effect1_dropShadow_84_11344"/>
<feBlend mode="normal" in="SourceGraphic" in2="effect1_dropShadow_84_11344" result="shape"/>
</filter>
<filter id="filter19_d_84_11344" x="27.3209" y="36.02" width="257.516" height="265.192" filterUnits="userSpaceOnUse" color-interpolation-filters="sRGB">
<feFlood flood-opacity="0" result="BackgroundImageFix"/>
<feColorMatrix in="SourceAlpha" type="matrix" values="0 0 0 0 0 0 0 0 0 0 0 0 0 0 0 0 0 0 127 0" result="hardAlpha"/>
<feOffset/>
<feGaussianBlur stdDeviation="48"/>
<feColorMatrix type="matrix" values="0 0 0 0 0.666667 0 0 0 0 0.373856 0 0 0 0 0.413072 0 0 0 0.230769 0"/>
<feBlend mode="multiply" in2="BackgroundImageFix" result="effect1_dropShadow_84_11344"/>
<feBlend mode="normal" in="SourceGraphic" in2="effect1_dropShadow_84_11344" result="shape"/>
</filter>
<filter id="filter20_d_84_11344" x="7" y="-58" width="681.472" height="240.841" filterUnits="userSpaceOnUse" color-interpolation-filters="sRGB">
<feFlood flood-opacity="0" result="BackgroundImageFix"/>
<feColorMatrix in="SourceAlpha" type="matrix" values="0 0 0 0 0 0 0 0 0 0 0 0 0 0 0 0 0 0 127 0" result="hardAlpha"/>
<feOffset/>
<feGaussianBlur stdDeviation="48"/>
<feColorMatrix type="matrix" values="0 0 0 0 0.666667 0 0 0 0 0.373856 0 0 0 0 0.413072 0 0 0 0.230769 0"/>
<feBlend mode="multiply" in2="BackgroundImageFix" result="effect1_dropShadow_84_11344"/>
<feBlend mode="normal" in="SourceGraphic" in2="effect1_dropShadow_84_11344" result="shape"/>
</filter>
<filter id="filter21_d_84_11344" x="-25.2562" y="128.297" width="317.329" height="299.341" filterUnits="userSpaceOnUse" color-interpolation-filters="sRGB">
<feFlood flood-opacity="0" result="BackgroundImageFix"/>
<feColorMatrix in="SourceAlpha" type="matrix" values="0 0 0 0 0 0 0 0 0 0 0 0 0 0 0 0 0 0 127 0" result="hardAlpha"/>
<feOffset/>
<feGaussianBlur stdDeviation="48"/>
<feColorMatrix type="matrix" values="0 0 0 0 0.666667 0 0 0 0 0.373856 0 0 0 0 0.413072 0 0 0 0.230769 0"/>
<feBlend mode="multiply" in2="BackgroundImageFix" result="effect1_dropShadow_84_11344"/>
<feBlend mode="normal" in="SourceGraphic" in2="effect1_dropShadow_84_11344" result="shape"/>
</filter>
<filter id="filter22_d_84_11344" x="-12.4716" y="17.1035" width="338.139" height="340.793" filterUnits="userSpaceOnUse" color-interpolation-filters="sRGB">
<feFlood flood-opacity="0" result="BackgroundImageFix"/>
<feColorMatrix in="SourceAlpha" type="matrix" values="0 0 0 0 0 0 0 0 0 0 0 0 0 0 0 0 0 0 127 0" result="hardAlpha"/>
<feOffset/>
<feGaussianBlur stdDeviation="48"/>
<feColorMatrix type="matrix" values="0 0 0 0 0.666667 0 0 0 0 0.373856 0 0 0 0 0.413072 0 0 0 0.230769 0"/>
<feBlend mode="multiply" in2="BackgroundImageFix" result="effect1_dropShadow_84_11344"/>
<feBlend mode="normal" in="SourceGraphic" in2="effect1_dropShadow_84_11344" result="shape"/>
</filter>
<filter id="filter23_d_84_11344" x="16.6119" y="7" width="356.388" height="211.786" filterUnits="userSpaceOnUse" color-interpolation-filters="sRGB">
<feFlood flood-opacity="0" result="BackgroundImageFix"/>
<feColorMatrix in="SourceAlpha" type="matrix" values="0 0 0 0 0 0 0 0 0 0 0 0 0 0 0 0 0 0 127 0" result="hardAlpha"/>
<feOffset/>
<feGaussianBlur stdDeviation="48"/>
<feColorMatrix type="matrix" values="0 0 0 0 0.666667 0 0 0 0 0.373856 0 0 0 0 0.413072 0 0 0 0.230769 0"/>
<feBlend mode="multiply" in2="BackgroundImageFix" result="effect1_dropShadow_84_11344"/>
<feBlend mode="normal" in="SourceGraphic" in2="effect1_dropShadow_84_11344" result="shape"/>
</filter>
<filter id="filter24_d_84_11344" x="-2.69226" y="-18.4288" width="220.614" height="222.386" filterUnits="userSpaceOnUse" color-interpolation-filters="sRGB">
<feFlood flood-opacity="0" result="BackgroundImageFix"/>
<feColorMatrix in="SourceAlpha" type="matrix" values="0 0 0 0 0 0 0 0 0 0 0 0 0 0 0 0 0 0 127 0" result="hardAlpha"/>
<feOffset/>
<feGaussianBlur stdDeviation="48"/>
<feColorMatrix type="matrix" values="0 0 0 0 0.666667 0 0 0 0 0.373856 0 0 0 0 0.413072 0 0 0 0.230769 0"/>
<feBlend mode="multiply" in2="BackgroundImageFix" result="effect1_dropShadow_84_11344"/>
<feBlend mode="normal" in="SourceGraphic" in2="effect1_dropShadow_84_11344" result="shape"/>
</filter>
<filter id="filter25_d_84_11344" x="55.5366" y="-54.2078" width="395.096" height="423.567" filterUnits="userSpaceOnUse" color-interpolation-filters="sRGB">
<feFlood flood-opacity="0" result="BackgroundImageFix"/>
<feColorMatrix in="SourceAlpha" type="matrix" values="0 0 0 0 0 0 0 0 0 0 0 0 0 0 0 0 0 0 127 0" result="hardAlpha"/>
<feOffset/>
<feGaussianBlur stdDeviation="48"/>
<feColorMatrix type="matrix" values="0 0 0 0 0.666667 0 0 0 0 0.373856 0 0 0 0 0.413072 0 0 0 0.230769 0"/>
<feBlend mode="multiply" in2="BackgroundImageFix" result="effect1_dropShadow_84_11344"/>
<feBlend mode="normal" in="SourceGraphic" in2="effect1_dropShadow_84_11344" result="shape"/>
</filter>
<filter id="filter26_d_84_11344" x="64.9374" y="-54.7567" width="312.763" height="319.766" filterUnits="userSpaceOnUse" color-interpolation-filters="sRGB">
<feFlood flood-opacity="0" result="BackgroundImageFix"/>
<feColorMatrix in="SourceAlpha" type="matrix" values="0 0 0 0 0 0 0 0 0 0 0 0 0 0 0 0 0 0 127 0" result="hardAlpha"/>
<feOffset/>
<feGaussianBlur stdDeviation="48"/>
<feColorMatrix type="matrix" values="0 0 0 0 0.666667 0 0 0 0 0.373856 0 0 0 0 0.413072 0 0 0 0.230769 0"/>
<feBlend mode="multiply" in2="BackgroundImageFix" result="effect1_dropShadow_84_11344"/>
<feBlend mode="normal" in="SourceGraphic" in2="effect1_dropShadow_84_11344" result="shape"/>
</filter>
<filter id="filter27_d_84_11344" x="34.4889" y="-4.17267" width="505.197" height="726.901" filterUnits="userSpaceOnUse" color-interpolation-filters="sRGB">
<feFlood flood-opacity="0" result="BackgroundImageFix"/>
<feColorMatrix in="SourceAlpha" type="matrix" values="0 0 0 0 0 0 0 0 0 0 0 0 0 0 0 0 0 0 127 0" result="hardAlpha"/>
<feOffset/>
<feGaussianBlur stdDeviation="48"/>
<feColorMatrix type="matrix" values="0 0 0 0 0.666667 0 0 0 0 0.373856 0 0 0 0 0.413072 0 0 0 0.230769 0"/>
<feBlend mode="multiply" in2="BackgroundImageFix" result="effect1_dropShadow_84_11344"/>
<feBlend mode="normal" in="SourceGraphic" in2="effect1_dropShadow_84_11344" result="shape"/>
</filter>
<filter id="filter28_d_84_11344" x="31.948" y="-16.4686" width="359.439" height="443.55" filterUnits="userSpaceOnUse" color-interpolation-filters="sRGB">
<feFlood flood-opacity="0" result="BackgroundImageFix"/>
<feColorMatrix in="SourceAlpha" type="matrix" values="0 0 0 0 0 0 0 0 0 0 0 0 0 0 0 0 0 0 127 0" result="hardAlpha"/>
<feOffset/>
<feGaussianBlur stdDeviation="48"/>
<feColorMatrix type="matrix" values="0 0 0 0 0.666667 0 0 0 0 0.373856 0 0 0 0 0.413072 0 0 0 0.230769 0"/>
<feBlend mode="multiply" in2="BackgroundImageFix" result="effect1_dropShadow_84_11344"/>
<feBlend mode="normal" in="SourceGraphic" in2="effect1_dropShadow_84_11344" result="shape"/>
</filter>
<filter id="filter30_d_84_11344" x="-32.317" y="-39.81" width="408.615" height="382.65" filterUnits="userSpaceOnUse" color-interpolation-filters="sRGB">
<feFlood flood-opacity="0" result="BackgroundImageFix"/>
<feColorMatrix in="SourceAlpha" type="matrix" values="0 0 0 0 0 0 0 0 0 0 0 0 0 0 0 0 0 0 127 0" result="hardAlpha"/>
<feOffset/>
<feGaussianBlur stdDeviation="48"/>
<feColorMatrix type="matrix" values="0 0 0 0 0.666667 0 0 0 0 0.373856 0 0 0 0 0.413072 0 0 0 0.230769 0"/>
<feBlend mode="multiply" in2="BackgroundImageFix" result="effect1_dropShadow_84_11344"/>
<feBlend mode="normal" in="SourceGraphic" in2="effect1_dropShadow_84_11344" result="shape"/>
</filter>
<filter id="filter31_d_84_11344" x="53.5461" y="-8.71118" width="352.117" height="319.673" filterUnits="userSpaceOnUse" color-interpolation-filters="sRGB">
<feFlood flood-opacity="0" result="BackgroundImageFix"/>
<feColorMatrix in="SourceAlpha" type="matrix" values="0 0 0 0 0 0 0 0 0 0 0 0 0 0 0 0 0 0 127 0" result="hardAlpha"/>
<feOffset/>
<feGaussianBlur stdDeviation="48"/>
<feColorMatrix type="matrix" values="0 0 0 0 0.666667 0 0 0 0 0.373856 0 0 0 0 0.413072 0 0 0 0.230769 0"/>
<feBlend mode="multiply" in2="BackgroundImageFix" result="effect1_dropShadow_84_11344"/>
<feBlend mode="normal" in="SourceGraphic" in2="effect1_dropShadow_84_11344" result="shape"/>
</filter>
<clipPath id="clip0_84_11344">
<rect width="330" height="170" fill="white"/>
</clipPath>
</defs>
</svg>
