<svg width="82" height="170" viewBox="0 0 82 170" fill="none" xmlns="http://www.w3.org/2000/svg">
<g clip-path="url(#clip0_84_8651)">
<rect width="82" height="170" fill="#FFBA89"/>
<g filter="url(#filter0_d_84_8651)">
<path d="M48.5882 219.396L64.8887 194.806C67.0899 191.486 67.1578 187.188 65.0625 183.799C47.7118 155.739 4.39843 172.896 10.9688 205.226L12.4162 212.348C15.9543 229.758 38.7724 234.204 48.5882 219.396Z" fill="#FFAB82"/>
</g>
<g filter="url(#filter1_d_84_8651)">
<path d="M78.9001 450.396L268.92 418.721C368.183 402.175 421.105 292.298 372.163 204.368C304.933 83.5826 129.042 90.1415 70.9943 215.599L10.2292 346.929C9.43562 348.644 8.50658 350.293 7.45087 351.861C-25.3378 400.541 18.3671 464.234 75.5842 451.154L78.9001 450.396Z" fill="#FF5922"/>
</g>
<g filter="url(#filter2_d_84_8651)">
<path d="M-59.3042 79.8496L-53.2034 76.8099C-36.3375 68.4062 -34.7637 44.9506 -50.3558 34.3691C-69.9597 21.0652 -96.0755 37.1886 -92.9654 60.6755L-92.7821 62.0598C-90.6837 77.9064 -73.6115 86.9784 -59.3042 79.8496Z" fill="#FF9636"/>
</g>
<g filter="url(#filter3_d_84_8651)">
<path d="M34.8505 14.7572L45.2618 48.7536C47.7121 56.7549 55.5588 61.8373 63.8625 60.8018C106.748 55.4536 113.093 -4.10629 72.2958 -18.3684L70.0975 -19.1369C48.8991 -26.5476 28.2747 -6.71484 34.8505 14.7572Z" fill="#F2A515"/>
</g>
<g filter="url(#filter4_d_84_8651)">
<path d="M183.288 279.971L191.701 279.676C221.751 278.621 229.559 237.58 201.995 225.565C198.194 223.909 193.931 223.649 189.958 224.833L162.237 233.093C146.479 237.788 138.072 254.923 144.001 270.259C148.932 283.013 163.822 288.689 175.991 282.455L178.318 281.263C179.86 280.473 181.557 280.032 183.288 279.971Z" fill="#EA8533"/>
</g>
<g filter="url(#filter5_d_84_8651)">
<path d="M112.208 44.9358L109.106 33.7838C108.874 32.9494 108.768 32.0847 108.793 31.2189L109.396 10.2355C110.097 -14.1625 89.8744 -33.9908 65.4949 -32.8092C33.0937 -31.2388 10.161 -0.514545 17.8711 30.9951L28.5209 74.5188C28.7651 75.5168 29.1271 76.4822 29.5993 77.3948C54.2535 125.046 126.588 96.6245 112.208 44.9358Z" fill="#F8AC98"/>
</g>
<g filter="url(#filter6_d_84_8651)">
<path d="M221.768 137.99L235.31 128.664C265.543 107.843 273.091 66.2752 252.369 35.9738C219.406 -12.2271 148.19 -13.0777 114.6 34.6883C92.8769 65.5788 100.822 108.293 132.199 129.307L145.898 138.482C168.898 153.886 198.97 153.691 221.768 137.99Z" fill="#FF6759"/>
</g>
<path d="M264.497 476.584L265.772 473.876C288.451 425.691 270.099 368.171 223.706 342.024L182.752 318.942C180.934 317.918 179.331 316.552 178.03 314.921C134.498 260.339 48.8423 312.677 77.5481 376.318L81.3037 384.644C82.4107 387.099 82.7809 389.821 82.3692 392.482L76.5613 430.022C68.7852 480.282 103.096 527.375 153.321 535.377C199.335 542.708 244.655 518.742 264.497 476.584Z" fill="#FF3246"/>
<g filter="url(#filter8_d_84_8651)">
<path d="M-55 656.716L187.604 314.009C188.527 312.707 189.685 311.589 191.021 310.714C205.53 301.211 197.435 278.626 180.192 280.503L166.969 281.943C163.4 282.332 159.979 280.406 158.46 277.152L114.5 183L144.501 252.284C150.181 265.403 149.512 280.405 142.686 292.965L-55 656.716Z" fill="#FF3283"/>
</g>
<g filter="url(#filter9_d_84_8651)">
<path d="M-49.1128 174.389L-50.4749 178.487C-58.8599 203.711 -24.981 220.788 -9.691 199.044C-6.99352 195.208 -7.50365 189.977 -10.8914 186.734L-29.001 169.4C-35.5038 163.175 -46.2733 165.847 -49.1128 174.389Z" fill="#FF24A1"/>
</g>
<g filter="url(#filter10_d_84_8651)">
<path d="M14.9064 295.277L27.9728 320.204C43.3548 349.548 83.4465 354.213 105.155 329.185C128.15 302.673 117.908 261.38 85.1885 248.689L66.6776 241.509C50.5727 235.262 32.2766 240.243 21.5618 253.793L18.4666 257.707C14.5178 262.7 12.0321 268.691 11.2863 275.014L11.2382 275.421C10.4316 282.258 11.7103 289.179 14.9064 295.277Z" fill="#E97158"/>
</g>
<g filter="url(#filter11_d_84_8651)">
<path d="M77.3782 316.876L75.5993 301.175L69.9606 275.283C65.6234 255.366 49.4456 240.192 29.2927 237.138C-18.1119 229.954 -59.6578 269.208 -55.1721 316.944L-52.9559 340.528C-51.2558 358.62 -40.9195 374.775 -25.2059 383.901C23.5396 412.21 83.7245 372.887 77.3782 316.876Z" fill="#DA2925"/>
</g>
<g filter="url(#filter12_d_84_8651)">
<path d="M57.866 -89.6346L43.9804 -99.9979C30.4873 -110.068 11.1173 -102.34 8.26238 -85.747C3.25571 -56.6483 39.1943 -38.9135 59.9647 -59.8992C68.374 -68.3956 67.4463 -82.4845 57.866 -89.6346Z" fill="#FFA8AE"/>
</g>
<g filter="url(#filter13_d_84_8651)">
<path d="M105.951 184.005L104.356 184.53C91.5334 188.756 95.1451 207.787 108.624 207.021C108.874 207.007 109.126 207.011 109.375 207.034C121.368 208.104 126.159 191.886 115.467 186.349L111.851 184.476C110.028 183.532 107.901 183.362 105.951 184.005Z" fill="#FF8F21"/>
</g>
<g filter="url(#filter14_d_84_8651)">
<path d="M-23.9499 140.856L8.32391 205.974C29.4474 248.594 87.7612 254.69 117.243 217.36C149.787 176.151 124.895 115.196 72.8077 108.547L6.71574 100.111C5.55177 99.9626 4.40871 99.6809 3.30904 99.2715C-20.369 90.4561 -40.7471 118.211 -25.4974 138.355C-24.9052 139.137 -24.3856 139.977 -23.9499 140.856Z" fill="#FFC32E"/>
</g>
<g filter="url(#filter15_d_84_8651)">
<path d="M318.485 185.375L338.189 186.178C372.172 187.563 384.247 141.774 354 126.221L283.331 98.261C265.183 91.0809 245.317 89.4255 226.231 93.503L28.2008 135.81C-96.3534 162.419 -153.078 307.75 -79.4836 411.7C-10.8284 508.673 135.487 500.885 193.461 397.173L308.833 190.777C310.776 187.301 314.507 185.213 318.485 185.375Z" fill="#EB697E"/>
</g>
</g>
<defs>
<filter id="filter0_d_84_8651" x="-85.7037" y="73.6651" width="248.292" height="250.669" filterUnits="userSpaceOnUse" color-interpolation-filters="sRGB">
<feFlood flood-opacity="0" result="BackgroundImageFix"/>
<feColorMatrix in="SourceAlpha" type="matrix" values="0 0 0 0 0 0 0 0 0 0 0 0 0 0 0 0 0 0 127 0" result="hardAlpha"/>
<feOffset/>
<feGaussianBlur stdDeviation="48"/>
<feColorMatrix type="matrix" values="0 0 0 0 0.564706 0 0 0 0 0.156863 0 0 0 0 0.117647 0 0 0 0.230769 0"/>
<feBlend mode="multiply" in2="BackgroundImageFix" result="effect1_dropShadow_84_8651"/>
<feBlend mode="normal" in="SourceGraphic" in2="effect1_dropShadow_84_8651" result="shape"/>
</filter>
<filter id="filter1_d_84_8651" x="-99.8107" y="21.522" width="586.467" height="527.365" filterUnits="userSpaceOnUse" color-interpolation-filters="sRGB">
<feFlood flood-opacity="0" result="BackgroundImageFix"/>
<feColorMatrix in="SourceAlpha" type="matrix" values="0 0 0 0 0 0 0 0 0 0 0 0 0 0 0 0 0 0 127 0" result="hardAlpha"/>
<feOffset/>
<feGaussianBlur stdDeviation="48"/>
<feColorMatrix type="matrix" values="0 0 0 0 0.564706 0 0 0 0 0.156863 0 0 0 0 0.117647 0 0 0 0.230769 0"/>
<feBlend mode="multiply" in2="BackgroundImageFix" result="effect1_dropShadow_84_8651"/>
<feBlend mode="normal" in="SourceGraphic" in2="effect1_dropShadow_84_8651" result="shape"/>
</filter>
<filter id="filter2_d_84_8651" x="-189.219" y="-66.436" width="245.668" height="244.75" filterUnits="userSpaceOnUse" color-interpolation-filters="sRGB">
<feFlood flood-opacity="0" result="BackgroundImageFix"/>
<feColorMatrix in="SourceAlpha" type="matrix" values="0 0 0 0 0 0 0 0 0 0 0 0 0 0 0 0 0 0 127 0" result="hardAlpha"/>
<feOffset/>
<feGaussianBlur stdDeviation="48"/>
<feColorMatrix type="matrix" values="0 0 0 0 0.564706 0 0 0 0 0.156863 0 0 0 0 0.117647 0 0 0 0.230769 0"/>
<feBlend mode="multiply" in2="BackgroundImageFix" result="effect1_dropShadow_84_8651"/>
<feBlend mode="normal" in="SourceGraphic" in2="effect1_dropShadow_84_8651" result="shape"/>
</filter>
<filter id="filter3_d_84_8651" x="-62.3936" y="-116.72" width="258.098" height="273.656" filterUnits="userSpaceOnUse" color-interpolation-filters="sRGB">
<feFlood flood-opacity="0" result="BackgroundImageFix"/>
<feColorMatrix in="SourceAlpha" type="matrix" values="0 0 0 0 0 0 0 0 0 0 0 0 0 0 0 0 0 0 127 0" result="hardAlpha"/>
<feOffset/>
<feGaussianBlur stdDeviation="48"/>
<feColorMatrix type="matrix" values="0 0 0 0 0.564706 0 0 0 0 0.156863 0 0 0 0 0.117647 0 0 0 0.230769 0"/>
<feBlend mode="multiply" in2="BackgroundImageFix" result="effect1_dropShadow_84_8651"/>
<feBlend mode="normal" in="SourceGraphic" in2="effect1_dropShadow_84_8651" result="shape"/>
</filter>
<filter id="filter4_d_84_8651" x="46.0951" y="128.102" width="268.885" height="252.895" filterUnits="userSpaceOnUse" color-interpolation-filters="sRGB">
<feFlood flood-opacity="0" result="BackgroundImageFix"/>
<feColorMatrix in="SourceAlpha" type="matrix" values="0 0 0 0 0 0 0 0 0 0 0 0 0 0 0 0 0 0 127 0" result="hardAlpha"/>
<feOffset/>
<feGaussianBlur stdDeviation="48"/>
<feColorMatrix type="matrix" values="0 0 0 0 0.564706 0 0 0 0 0.156863 0 0 0 0 0.117647 0 0 0 0.230769 0"/>
<feBlend mode="multiply" in2="BackgroundImageFix" result="effect1_dropShadow_84_8651"/>
<feBlend mode="normal" in="SourceGraphic" in2="effect1_dropShadow_84_8651" result="shape"/>
</filter>
<filter id="filter5_d_84_8651" x="-79.629" y="-128.859" width="289.711" height="326.605" filterUnits="userSpaceOnUse" color-interpolation-filters="sRGB">
<feFlood flood-opacity="0" result="BackgroundImageFix"/>
<feColorMatrix in="SourceAlpha" type="matrix" values="0 0 0 0 0 0 0 0 0 0 0 0 0 0 0 0 0 0 127 0" result="hardAlpha"/>
<feOffset/>
<feGaussianBlur stdDeviation="48"/>
<feColorMatrix type="matrix" values="0 0 0 0 0.564706 0 0 0 0 0.156863 0 0 0 0 0.117647 0 0 0 0.230769 0"/>
<feBlend mode="multiply" in2="BackgroundImageFix" result="effect1_dropShadow_84_8651"/>
<feBlend mode="normal" in="SourceGraphic" in2="effect1_dropShadow_84_8651" result="shape"/>
</filter>
<filter id="filter6_d_84_8651" x="6.34546" y="-96.661" width="353.707" height="342.563" filterUnits="userSpaceOnUse" color-interpolation-filters="sRGB">
<feFlood flood-opacity="0" result="BackgroundImageFix"/>
<feColorMatrix in="SourceAlpha" type="matrix" values="0 0 0 0 0 0 0 0 0 0 0 0 0 0 0 0 0 0 127 0" result="hardAlpha"/>
<feOffset/>
<feGaussianBlur stdDeviation="48"/>
<feColorMatrix type="matrix" values="0 0 0 0 0.564706 0 0 0 0 0.156863 0 0 0 0 0.117647 0 0 0 0.230769 0"/>
<feBlend mode="multiply" in2="BackgroundImageFix" result="effect1_dropShadow_84_8651"/>
<feBlend mode="normal" in="SourceGraphic" in2="effect1_dropShadow_84_8651" result="shape"/>
</filter>
<filter id="filter8_d_84_8651" x="-151" y="87" width="445.53" height="665.716" filterUnits="userSpaceOnUse" color-interpolation-filters="sRGB">
<feFlood flood-opacity="0" result="BackgroundImageFix"/>
<feColorMatrix in="SourceAlpha" type="matrix" values="0 0 0 0 0 0 0 0 0 0 0 0 0 0 0 0 0 0 127 0" result="hardAlpha"/>
<feOffset/>
<feGaussianBlur stdDeviation="48"/>
<feColorMatrix type="matrix" values="0 0 0 0 0.564706 0 0 0 0 0.156863 0 0 0 0 0.117647 0 0 0 0.230769 0"/>
<feBlend mode="multiply" in2="BackgroundImageFix" result="effect1_dropShadow_84_8651"/>
<feBlend mode="normal" in="SourceGraphic" in2="effect1_dropShadow_84_8651" result="shape"/>
</filter>
<filter id="filter9_d_84_8651" x="-147.789" y="69.9907" width="235.825" height="235.007" filterUnits="userSpaceOnUse" color-interpolation-filters="sRGB">
<feFlood flood-opacity="0" result="BackgroundImageFix"/>
<feColorMatrix in="SourceAlpha" type="matrix" values="0 0 0 0 0 0 0 0 0 0 0 0 0 0 0 0 0 0 127 0" result="hardAlpha"/>
<feOffset/>
<feGaussianBlur stdDeviation="48"/>
<feColorMatrix type="matrix" values="0 0 0 0 0.564706 0 0 0 0 0.156863 0 0 0 0 0.117647 0 0 0 0.230769 0"/>
<feBlend mode="multiply" in2="BackgroundImageFix" result="effect1_dropShadow_84_8651"/>
<feBlend mode="normal" in="SourceGraphic" in2="effect1_dropShadow_84_8651" result="shape"/>
</filter>
<filter id="filter10_d_84_8651" x="-84.9971" y="142.842" width="298.572" height="298.562" filterUnits="userSpaceOnUse" color-interpolation-filters="sRGB">
<feFlood flood-opacity="0" result="BackgroundImageFix"/>
<feColorMatrix in="SourceAlpha" type="matrix" values="0 0 0 0 0 0 0 0 0 0 0 0 0 0 0 0 0 0 127 0" result="hardAlpha"/>
<feOffset/>
<feGaussianBlur stdDeviation="48"/>
<feColorMatrix type="matrix" values="0 0 0 0 0.564706 0 0 0 0 0.156863 0 0 0 0 0.117647 0 0 0 0.230769 0"/>
<feBlend mode="multiply" in2="BackgroundImageFix" result="effect1_dropShadow_84_8651"/>
<feBlend mode="normal" in="SourceGraphic" in2="effect1_dropShadow_84_8651" result="shape"/>
</filter>
<filter id="filter11_d_84_8651" x="-151.505" y="140.286" width="325.346" height="349.034" filterUnits="userSpaceOnUse" color-interpolation-filters="sRGB">
<feFlood flood-opacity="0" result="BackgroundImageFix"/>
<feColorMatrix in="SourceAlpha" type="matrix" values="0 0 0 0 0 0 0 0 0 0 0 0 0 0 0 0 0 0 127 0" result="hardAlpha"/>
<feOffset/>
<feGaussianBlur stdDeviation="48"/>
<feColorMatrix type="matrix" values="0 0 0 0 0.564706 0 0 0 0 0.156863 0 0 0 0 0.117647 0 0 0 0.230769 0"/>
<feBlend mode="multiply" in2="BackgroundImageFix" result="effect1_dropShadow_84_8651"/>
<feBlend mode="normal" in="SourceGraphic" in2="effect1_dropShadow_84_8651" result="shape"/>
</filter>
<filter id="filter12_d_84_8651" x="-88.2104" y="-200.499" width="249.92" height="245.772" filterUnits="userSpaceOnUse" color-interpolation-filters="sRGB">
<feFlood flood-opacity="0" result="BackgroundImageFix"/>
<feColorMatrix in="SourceAlpha" type="matrix" values="0 0 0 0 0 0 0 0 0 0 0 0 0 0 0 0 0 0 127 0" result="hardAlpha"/>
<feOffset/>
<feGaussianBlur stdDeviation="48"/>
<feColorMatrix type="matrix" values="0 0 0 0 0.564706 0 0 0 0 0.156863 0 0 0 0 0.117647 0 0 0 0.230769 0"/>
<feBlend mode="multiply" in2="BackgroundImageFix" result="effect1_dropShadow_84_8651"/>
<feBlend mode="normal" in="SourceGraphic" in2="effect1_dropShadow_84_8651" result="shape"/>
</filter>
<filter id="filter13_d_84_8651" x="0.408325" y="87.6212" width="216.996" height="215.463" filterUnits="userSpaceOnUse" color-interpolation-filters="sRGB">
<feFlood flood-opacity="0" result="BackgroundImageFix"/>
<feColorMatrix in="SourceAlpha" type="matrix" values="0 0 0 0 0 0 0 0 0 0 0 0 0 0 0 0 0 0 127 0" result="hardAlpha"/>
<feOffset/>
<feGaussianBlur stdDeviation="48"/>
<feColorMatrix type="matrix" values="0 0 0 0 0.564706 0 0 0 0 0.156863 0 0 0 0 0.117647 0 0 0 0.230769 0"/>
<feBlend mode="multiply" in2="BackgroundImageFix" result="effect1_dropShadow_84_8651"/>
<feBlend mode="normal" in="SourceGraphic" in2="effect1_dropShadow_84_8651" result="shape"/>
</filter>
<filter id="filter14_d_84_8651" x="-126.768" y="1.59045" width="354.619" height="336.415" filterUnits="userSpaceOnUse" color-interpolation-filters="sRGB">
<feFlood flood-opacity="0" result="BackgroundImageFix"/>
<feColorMatrix in="SourceAlpha" type="matrix" values="0 0 0 0 0 0 0 0 0 0 0 0 0 0 0 0 0 0 127 0" result="hardAlpha"/>
<feOffset/>
<feGaussianBlur stdDeviation="48"/>
<feColorMatrix type="matrix" values="0 0 0 0 0.564706 0 0 0 0 0.156863 0 0 0 0 0.117647 0 0 0 0.230769 0"/>
<feBlend mode="multiply" in2="BackgroundImageFix" result="effect1_dropShadow_84_8651"/>
<feBlend mode="normal" in="SourceGraphic" in2="effect1_dropShadow_84_8651" result="shape"/>
</filter>
<filter id="filter15_d_84_8651" x="-208.227" y="-4.68158" width="675.518" height="580.608" filterUnits="userSpaceOnUse" color-interpolation-filters="sRGB">
<feFlood flood-opacity="0" result="BackgroundImageFix"/>
<feColorMatrix in="SourceAlpha" type="matrix" values="0 0 0 0 0 0 0 0 0 0 0 0 0 0 0 0 0 0 127 0" result="hardAlpha"/>
<feOffset/>
<feGaussianBlur stdDeviation="48"/>
<feColorMatrix type="matrix" values="0 0 0 0 0.564706 0 0 0 0 0.156863 0 0 0 0 0.117647 0 0 0 0.230769 0"/>
<feBlend mode="multiply" in2="BackgroundImageFix" result="effect1_dropShadow_84_8651"/>
<feBlend mode="normal" in="SourceGraphic" in2="effect1_dropShadow_84_8651" result="shape"/>
</filter>
<clipPath id="clip0_84_8651">
<rect width="82" height="170" fill="white"/>
</clipPath>
</defs>
</svg>
